<?xml version="1.0"?>
<svg width="1242" height="1080" xmlns="http://www.w3.org/2000/svg" xmlns:svg="http://www.w3.org/2000/svg" preserveAspectRatio="xMidYMid meet" version="1.0">
 <metadata>Created by potrace 1.16, written by Peter Selinger 2001-2019</metadata>
 <g class="layer">
  <title>Layer 1</title>
  <g fill="#000000" id="svg_1" transform="translate(0.000000,1080.000000) scale(0.100000,-0.100000)">
   <path d="m7706,9468c-37,-53 -4,-116 54,-105c22,5 30,3 30,-8c0,-25 -34,-35 -63,-20c-15,8 -27,10 -27,5c0,-16 41,-32 66,-26c34,9 45,38 42,108l-3,61l-42,4c-34,3 -44,0 -57,-19z" id="svg_2"/>
   <path d="m6250,8390c-11,-11 -20,-33 -20,-51c0,-40 -30,-37 -41,4c-11,41 -28,57 -60,57c-36,0 -59,-32 -59,-82c0,-48 -17,-50 -26,-3c-7,41 -25,58 -61,58c-46,0 -53,-24 -53,-172l0,-136l-29,-13c-85,-38 -84,-168 2,-210c25,-12 27,-18 27,-78c0,-65 17,-124 46,-155c13,-15 10,-18 -38,-34c-119,-38 -288,-152 -288,-193c0,-10 29,-35 71,-61c47,-29 69,-48 65,-57c-3,-8 -11,-45 -17,-82c-8,-42 -20,-76 -34,-92c-68,-76 -57,-169 25,-224c57,-37 59,-59 13,-109c-21,-23 -49,-59 -62,-80c-22,-36 -22,-39 -6,-57c15,-17 15,-22 -3,-82c-11,-34 -23,-85 -27,-113c-4,-28 -17,-61 -30,-77c-13,-15 -25,-33 -28,-40c-7,-20 -106,35 -177,99c-134,122 -286,361 -381,601c-39,99 -71,139 -128,165c-41,18 -51,19 -106,8c-124,-26 -206,-102 -283,-262c-91,-190 -152,-379 -189,-579c-26,-146 -24,-431 6,-573c74,-357 233,-657 507,-958c51,-56 63,-109 40,-183c-8,-27 -13,-53 -10,-58c18,-29 119,11 178,70c97,95 122,236 60,327c-39,57 -29,113 28,166c49,44 61,39 53,-20c-9,-64 14,-143 55,-193c48,-58 103,-78 265,-98c136,-16 145,-19 168,-46l25,-28l98,23c129,31 136,35 132,74c-3,29 -11,36 -93,79c-49,26 -97,47 -106,48c-9,0 -27,-8 -40,-19c-23,-18 -28,-18 -154,-2c-71,9 -136,20 -142,24c-19,12 -16,45 5,55c10,6 88,0 207,-14c247,-30 479,-47 530,-39c215,33 386,183 440,386c8,30 15,66 15,82l0,27l331,0c316,0 333,-1 365,-20c42,-26 71,-88 80,-167l7,-63l46,0c79,0 151,-27 198,-75c38,-37 43,-48 43,-87c0,-28 -6,-50 -15,-58c-27,-23 -57,-121 -51,-169c15,-111 102,-225 197,-256c67,-22 74,-15 58,64c-16,84 -3,125 68,204c203,226 348,469 428,715c14,45 28,82 31,82c2,0 27,-10 55,-22c40,-18 52,-28 56,-51c8,-39 29,-45 74,-19c51,30 88,28 154,-8c30,-16 64,-30 74,-30c42,0 141,86 141,123c0,7 6,21 13,32c13,17 17,16 77,-14c70,-36 87,-35 157,6c65,38 103,77 103,107c0,36 -19,72 -45,86c-20,11 -28,9 -53,-9c-17,-11 -37,-21 -46,-21c-17,0 -20,5 -31,53c-7,33 -77,112 -116,133c-44,22 -75,17 -147,-25c-96,-57 -122,-79 -129,-112c-5,-29 -6,-29 -59,-23c-48,6 -58,4 -102,-25c-49,-31 -102,-40 -130,-22c-13,8 -12,60 3,216c7,61 -13,266 -35,375c-30,147 -83,297 -164,465c-90,185 -136,253 -204,305c-112,83 -231,92 -305,22c-37,-35 -48,-57 -87,-172c-40,-121 -143,-334 -205,-425c-84,-123 -174,-213 -264,-263l-38,-22l-30,48c-17,26 -34,69 -37,95c-4,26 -16,73 -27,104c-17,52 -18,58 -3,74c22,24 13,44 -50,114c-53,59 -53,60 -39,90c8,17 28,38 44,47c35,21 69,74 69,110c0,37 -17,78 -44,108c-15,16 -29,54 -40,105c-19,91 -22,84 68,137c26,16 49,35 53,45c13,35 -155,154 -273,193l-62,21l25,44c17,32 26,66 30,120c6,71 8,77 34,91c61,31 78,120 34,173c-14,16 -35,33 -45,36c-19,6 -20,16 -20,141c0,130 -1,136 -25,159c-13,14 -29,25 -35,25c-21,0 -60,-49 -60,-75c0,-43 -17,-27 -23,22c-10,93 -100,101 -122,11c-10,-38 -35,-36 -35,2c0,31 -30,70 -53,70c-24,0 -55,-30 -62,-61c-6,-28 -10,-30 -43,-27c-32,3 -37,7 -40,30c-3,28 -35,58 -59,58c-7,0 -22,-9 -33,-20zm52,-80l3,-35l70,-3c78,-3 95,8 95,61c0,16 4,26 10,22c6,-3 10,-21 10,-39c0,-36 15,-56 42,-56c18,0 18,-2 2,-32c-9,-18 -30,-52 -46,-76c-30,-43 -30,-62 0,-62c30,0 108,134 127,218c3,17 11,34 16,38c17,10 21,-25 9,-98c-18,-107 -18,-113 5,-113c15,0 23,12 33,48c12,43 16,48 37,43c28,-7 40,7 49,57c4,20 11,37 17,37c7,0 9,-61 7,-175l-3,-174l-38,-39c-44,-45 -35,-65 12,-26l31,26l0,-111c0,-189 -21,-213 -197,-221c-103,-5 -113,-3 -113,13c0,21 -18,23 -26,2c-4,-8 -17,-15 -30,-15c-14,0 -27,7 -30,15c-4,8 -10,15 -15,15c-5,0 -9,-7 -9,-15c0,-10 -10,-15 -30,-15c-20,0 -30,5 -30,15c0,8 -4,15 -10,15c-5,0 -10,-6 -10,-14c0,-11 -22,-15 -97,-18c-109,-5 -144,4 -183,46c-23,26 -25,35 -28,152c-2,68 -1,124 3,124c4,0 18,-9 32,-20c43,-34 46,-10 4,29l-41,38l0,182c0,119 3,180 10,176c6,-3 10,-12 10,-18c0,-7 5,-29 11,-50c9,-35 13,-38 37,-32c26,5 29,3 40,-40c12,-46 38,-68 52,-45c4,6 1,33 -6,58c-16,50 -19,152 -5,152c5,0 18,-31 30,-68c29,-89 93,-192 121,-192c30,0 25,22 -20,91c-22,34 -40,65 -40,69c0,5 11,11 25,14c21,5 25,12 25,45c0,64 26,66 32,1zm38,-1129c0,-5 -12,-12 -27,-16c-54,-13 -123,-48 -123,-61c0,-19 5,-18 90,12c72,25 86,26 189,12c38,-5 36,19 -3,33c-20,7 -36,17 -36,21c0,26 162,-27 166,-55c2,-13 -4,-15 -27,-10c-30,6 -37,-5 -18,-24c14,-14 -23,-63 -84,-110c-32,-24 -48,-30 -73,-26c-27,4 -35,0 -60,-31c-29,-35 -30,-36 -101,-36c-58,0 -73,3 -73,15c0,8 -6,15 -14,15c-7,0 -19,-7 -26,-15c-24,-29 -56,-18 -73,26c-16,41 -16,42 8,61c46,36 57,50 46,61c-6,6 -20,2 -39,-12c-35,-24 -42,-26 -42,-8c0,24 106,95 199,133c57,24 121,32 121,15zm1638,-32c78,-38 114,-81 190,-222c68,-127 94,-187 145,-337c62,-182 102,-433 90,-567l-5,-59l-33,33c-18,18 -42,33 -52,33c-18,0 -21,10 -27,120c-13,236 -81,476 -196,694c-73,139 -122,193 -185,203c-50,8 -76,-24 -115,-143c-68,-206 -182,-409 -305,-541c-60,-66 -177,-163 -194,-163c-4,0 -22,18 -39,39l-32,40l47,32c170,118 344,390 447,703c28,85 65,142 100,156c44,18 102,11 164,-21zm-3077,-19c44,-12 77,-53 109,-135c32,-84 130,-278 175,-350c97,-153 204,-273 307,-343c53,-37 200,-102 228,-102c10,0 21,-4 24,-8c7,-12 83,-14 91,-2c15,25 25,5 25,-53l0,-63l-82,7c-138,13 -283,78 -422,190c-41,33 -76,63 -78,68c-2,5 -27,35 -57,67c-97,104 -195,272 -277,471c-47,114 -61,128 -126,124c-31,-2 -95,-69 -131,-139c-38,-73 -98,-229 -129,-332c-56,-191 -73,-450 -43,-637c19,-117 74,-298 119,-393c20,-41 36,-87 36,-103c0,-16 4,-26 10,-22c5,3 15,-6 22,-20c8,-18 14,-22 19,-13c6,9 10,7 15,-7c4,-11 25,-42 46,-69c21,-27 38,-55 38,-63c0,-8 4,-12 9,-9c5,3 15,-2 22,-11c12,-15 11,-16 -9,-11c-12,4 -20,2 -16,-3c3,-5 14,-9 24,-9c25,0 130,-108 130,-133c0,-12 5,-17 14,-14c21,8 80,-55 82,-87c1,-19 1,-19 -16,2l-18,22l-7,-27c-3,-14 -2,-29 2,-32c20,-15 46,-65 35,-69c-14,-4 -16,-42 -3,-42c5,0 12,6 14,13c3,6 6,-3 6,-20c1,-23 -4,-33 -14,-33c-8,0 -15,9 -15,20c0,11 -4,20 -8,20c-5,0 -15,18 -22,41c-14,41 -39,63 -66,57c-11,-2 -8,-12 13,-43c32,-46 36,-103 10,-150l-16,-30l-1,30c-1,69 -22,107 -120,221c-233,267 -368,532 -441,864c-20,89 -23,133 -23,290c0,130 5,212 17,275c55,296 184,625 283,720c40,40 125,83 164,84c8,1 31,-4 51,-9zm3093,-228c92,-142 186,-386 221,-576c8,-45 16,-128 17,-186l3,-105l-65,-3l-66,-3l-12,34c-7,19 -21,42 -31,51c-16,15 -17,30 -13,166c5,154 -1,186 -34,173c-11,-4 -14,-33 -14,-142c0,-75 -4,-140 -8,-146c-4,-6 -49,-9 -109,-7l-102,3l14,39c7,21 23,84 35,141c18,89 19,104 6,117c-21,21 -33,8 -40,-45c-10,-69 -55,-234 -67,-250c-7,-7 -32,-13 -59,-13c-38,0 -56,6 -82,27c-18,15 -37,34 -42,42c-5,9 -20,26 -33,39l-23,23l64,77c124,150 208,304 281,512c19,57 40,109 46,117c19,22 67,-13 113,-85zm-3137,36c5,-7 22,-44 38,-83c92,-226 206,-407 345,-546c155,-156 307,-241 494,-275c44,-9 91,-17 104,-20c21,-4 22,-9 22,-88l0,-84l-55,-26c-61,-30 -121,-93 -130,-137c-5,-20 -13,-29 -26,-29c-10,0 -19,-4 -19,-10c0,-5 5,-10 10,-10c6,0 10,-7 10,-15c0,-19 -21,-19 -46,0c-22,17 -44,19 -44,5c0,-5 18,-19 39,-30c45,-23 58,-37 43,-52c-23,-23 -209,100 -334,220c-58,56 -93,82 -103,78c-8,-3 -15,-10 -15,-16c0,-32 198,-207 319,-281l54,-33l-42,-14c-77,-26 -151,-128 -151,-209c0,-33 -14,-29 -79,22c-31,25 -65,45 -74,45c-30,0 -18,-28 28,-67c51,-42 55,-53 23,-53c-64,-1 -161,-72 -191,-139l-20,-45l-71,74c-429,449 -539,931 -341,1499c49,141 109,262 147,300c34,33 50,38 65,19zm1641,-149c30,-6 70,-17 89,-26l36,-14l-32,-33c-57,-59 -48,-146 19,-181c52,-27 89,-18 147,38c18,17 34,29 37,26c2,-2 16,-29 32,-59l29,-55l3,-252l4,-253l-69,0l-68,0l-24,44c-50,95 -87,96 -138,7c-26,-48 -30,-51 -68,-51c-48,1 -74,18 -84,57c-11,41 -45,39 -49,-4c-2,-23 4,-40 26,-64c27,-31 36,-34 108,-40c44,-4 196,-5 339,-2c246,4 456,-5 500,-21c16,-6 17,-6 5,3c-23,16 -3,13 33,-6c38,-19 237,-26 244,-7c2,6 -6,21 -17,34c-26,30 -25,68 2,97c28,30 15,43 -47,51c-100,11 -20,21 197,25c277,5 276,5 312,-105c5,-16 20,-18 123,-18c122,-1 140,-6 160,-45c13,-26 -2,-81 -26,-94c-16,-9 -234,-19 -439,-20c-68,-1 -76,-3 -103,-30c-43,-44 -41,-97 7,-140l35,-33l182,3c101,2 188,-1 195,-5c20,-12 15,-64 -7,-76c-23,-12 -61,-13 -61,-2c0,4 -48,6 -107,6l-108,-2l100,14l100,13l-94,-5c-67,-4 -96,-2 -101,6c-6,9 -15,10 -36,2c-17,-6 -22,-11 -12,-11c9,-1 20,-5 23,-11c4,-6 -14,-10 -47,-9c-45,1 -49,3 -23,9c28,7 27,8 -12,9c-32,1 -43,-3 -43,-14c0,-13 -22,-15 -142,-15l-143,1l-24,39c-14,22 -32,43 -40,47c-9,4 -308,10 -666,13l-650,5l648,3c509,2 647,5 647,15c0,8 4,7 10,-3c8,-12 10,-11 10,8c0,12 5,22 10,22c6,0 10,-10 10,-22c0,-32 26,-56 55,-50c21,4 25,10 25,38c0,32 -2,33 -47,40c-27,4 -151,4 -278,0c-126,-3 -334,-3 -462,0l-233,7l6,24c5,17 2,23 -10,23c-9,0 -16,-7 -16,-15c0,-8 -7,-15 -15,-15c-9,0 -18,7 -21,15c-4,8 -13,15 -21,15c-11,0 -13,-7 -9,-25l6,-25l-190,0c-152,0 -197,3 -220,15c-17,9 -30,13 -30,10c0,-15 -32,28 -46,61c-13,31 -15,87 -14,335c1,307 6,353 47,433l15,28l34,-33c31,-30 41,-34 89,-34c45,0 57,4 79,28c46,50 47,121 0,176l-25,30l32,16c72,38 212,53 307,34zm670,-577c1,-20 4,-46 5,-57c2,-15 -9,-23 -53,-36c-78,-24 -152,-40 -158,-35c-2,3 -1,18 3,33c4,15 10,22 12,16c10,-29 21,-10 16,27c-5,34 -3,40 13,41c34,1 60,8 105,28c24,12 46,21 49,21c3,0 6,-17 8,-38zm1866,-253c30,-24 66,-88 66,-119c0,-12 11,-32 25,-46l24,-24l45,21c56,28 81,20 72,-22c-7,-34 -15,-44 -71,-82c-50,-34 -80,-34 -146,1c-78,40 -111,27 -124,-50c-13,-74 -107,-102 -188,-55c-50,30 -101,34 -131,12c-27,-20 -43,-19 -49,5c-3,12 -22,27 -44,36c-21,8 -61,26 -88,39c-62,31 -99,31 -148,1c-36,-22 -41,-23 -68,-9c-17,8 -35,26 -41,39c-16,35 -36,37 -60,4c-29,-40 -87,-43 -112,-5c-9,14 -23,25 -31,25c-9,0 -21,-11 -27,-25c-10,-22 -17,-25 -63,-25c-28,0 -56,5 -63,12c-17,17 -15,53 3,68c18,15 20,13 50,-37l23,-37l21,42c19,38 25,42 60,42c30,0 40,-5 51,-25c17,-32 47,-32 61,-1c9,18 21,25 50,28c36,3 41,0 59,-30c22,-37 39,-38 57,-3c16,33 153,79 153,52c0,-4 21,-16 46,-26c54,-20 90,-15 142,20c42,28 72,31 130,11c45,-16 62,-8 62,31c0,37 27,69 92,113c70,47 119,53 162,19zm-3164,-202c0,-69 104,-208 189,-251c27,-14 30,-20 25,-44c-19,-81 -82,-152 -154,-173c-35,-11 -73,-9 -238,9c-108,12 -212,22 -229,22c-40,0 -42,14 -10,60c33,50 80,73 161,79l71,6l6,65c14,133 46,197 121,237c46,25 58,22 58,-10zm2480,-106c0,-28 -60,-184 -114,-296c-84,-173 -147,-267 -318,-467c-55,-64 -79,-101 -84,-127c-3,-20 -9,-49 -13,-66l-7,-30l-14,25c-21,40 -15,106 14,150c30,45 33,65 11,74c-8,3 -14,2 -13,-2c1,-4 -10,-26 -25,-49c-15,-24 -27,-49 -27,-57c0,-8 -5,-18 -11,-21c-6,-4 -8,-13 -5,-21c3,-7 1,-16 -4,-19c-4,-3 -11,1 -13,7c-3,8 -6,6 -6,-4c-1,-10 6,-18 14,-18c18,0 20,-16 3,-26c-6,-4 -8,-3 -5,3c4,6 0,14 -9,17c-14,5 -16,17 -11,66c4,47 12,67 36,97c17,21 31,47 31,59c0,20 -2,21 -24,11c-14,-7 -37,-30 -52,-52c-14,-22 -23,-31 -19,-20c4,11 8,27 10,35c1,8 8,14 14,13c6,-2 11,8 11,22c0,14 4,25 9,25c5,0 45,34 88,77c43,42 82,75 86,74c5,-1 6,3 2,9c-4,6 12,29 34,51c22,22 43,49 46,59c3,11 15,22 26,25c10,4 17,10 14,15c-3,5 0,12 6,16c8,4 9,3 5,-4c-4,-7 -2,-12 4,-12c7,0 5,-11 -6,-29c-11,-18 -14,-36 -9,-47c6,-15 11,-6 21,36c8,30 19,63 24,73c7,11 7,17 0,17c-14,0 -12,16 3,32c7,7 16,21 20,31c4,11 12,15 19,11c7,-5 9,-2 5,8c-8,23 12,43 59,56c54,16 77,43 84,100c4,41 9,49 40,64c39,20 50,22 50,9zm-301,-208c-51,-87 -139,-201 -218,-285l-85,-90l-22,49c-27,62 -83,109 -157,132l-59,18l51,38c52,40 63,61 36,71c-9,4 -42,-14 -82,-45l-67,-52l-13,61c-7,35 -23,77 -38,96l-26,33l148,3c81,2 240,4 352,6l203,3l-23,-38zm-1717,15c109,-3 128,-5 128,-19c0,-9 -3,-19 -7,-23c-5,-4 -9,-16 -9,-27c-3,-36 -4,-39 -20,-39c-12,0 -15,-6 -10,-23c6,-26 -19,-71 -35,-62c-5,4 -9,0 -9,-7c0,-7 -9,-19 -20,-26c-11,-7 -20,-19 -20,-27c0,-8 -4,-15 -9,-15c-6,0 -22,-11 -37,-25c-73,-68 -210,-70 -707,-13c-102,11 -111,11 -145,-7c-22,-12 -44,-35 -54,-55c-16,-36 -31,-143 -18,-135c4,3 8,-6 8,-20c0,-29 -18,-23 -59,22c-49,53 -61,123 -33,193c16,40 18,41 63,40c70,-3 71,-2 71,29c0,27 22,61 38,61c4,0 93,-11 197,-25c224,-29 235,-30 305,-9c64,19 150,99 170,158c10,31 16,37 34,32c19,-5 20,-4 4,8c-26,19 -22,25 15,20c17,-2 89,-5 159,-6z" id="svg_3"/>
   <path d="m6054,8025c-9,-22 3,-34 41,-41c25,-4 35,-12 37,-28c3,-24 43,-35 61,-17c6,6 23,11 38,11c28,0 69,39 69,67c0,24 -30,27 -46,4c-19,-26 -32,-26 -112,-1c-76,24 -81,24 -88,5z" id="svg_4"/>
   <path d="m6467,8028c-10,-30 32,-77 70,-78c12,0 25,-4 28,-10c11,-19 57,-11 62,10c3,13 20,24 45,32c42,12 58,32 40,50c-7,7 -31,4 -80,-11c-87,-26 -104,-26 -120,-1c-14,22 -38,26 -45,8z" id="svg_5"/>
   <path d="m4924,6415c-8,-21 18,-133 56,-237c23,-65 37,-88 49,-88c10,0 20,3 24,6c3,3 -9,47 -28,97c-18,51 -38,119 -45,152c-13,61 -25,85 -42,85c-5,0 -11,-7 -14,-15z" id="svg_6"/>
   <path d="m4733,6403c-25,-9 -10,-225 23,-362c21,-88 70,-224 104,-292c57,-112 186,-289 211,-289c25,0 19,33 -13,73c-172,209 -288,521 -288,773c0,81 -10,107 -37,97z" id="svg_7"/>
   <path d="m6348,6673c-27,-31 -76,-128 -71,-140c7,-19 202,-18 209,1c6,15 -24,81 -58,129c-22,31 -57,36 -80,10z" id="svg_8"/>
   <path d="m6348,6343c-27,-32 -76,-128 -71,-140c7,-20 202,-18 209,2c6,16 -49,122 -74,143c-22,17 -46,15 -64,-5z" id="svg_9"/>
  </g>
  <text fill="#000000" font-family="Monospace" font-size="24" id="svg_10" stroke="#000000" stroke-width="0" text-anchor="middle" transform="matrix(10.977 0 0 9.15682 -1690.12 -5574.34)" x="212.32" xml:space="preserve" y="701.35">404</text>
 </g>
</svg>