<?xml version="1.0"?>
<svg width="1242" height="1080" xmlns="http://www.w3.org/2000/svg" xmlns:svg="http://www.w3.org/2000/svg" preserveAspectRatio="xMidYMid meet" version="1.0">
 <metadata>Created by potrace 1.16, written by Peter Selinger 2001-2019</metadata>
 <g class="layer">
  <title>Layer 1</title>
  <g fill="#000000" id="svg_1" transform="translate(0.000000,1080.000000) scale(0.100000,-0.100000)">
   <path d="m7707,9472c-42,-46 -6,-120 53,-109c36,8 42,-16 9,-33c-16,-9 -26,-8 -45,5c-13,8 -24,11 -24,6c0,-17 40,-33 66,-27c34,9 45,38 42,108l-3,61l-41,4c-30,3 -45,-1 -57,-15z" id="svg_2"/>
   <path d="m6250,8330c-11,-11 -20,-33 -20,-51c0,-40 -30,-37 -41,4c-11,41 -28,57 -60,57c-36,0 -59,-32 -59,-82c0,-48 -17,-50 -26,-3c-7,41 -25,58 -61,58c-46,0 -53,-24 -53,-172l0,-136l-30,-13c-83,-37 -78,-180 6,-212c22,-9 24,-15 24,-78c0,-53 6,-80 24,-116c16,-32 20,-49 12,-51c-121,-42 -202,-87 -279,-154c-53,-47 -49,-63 33,-112c54,-32 69,-46 65,-59c-3,-9 -12,-46 -19,-82c-10,-47 -21,-72 -44,-94c-33,-34 -48,-87 -37,-131c3,-16 28,-48 54,-73c69,-65 71,-78 17,-144c-65,-79 -71,-94 -52,-115c14,-16 14,-26 -9,-115c-14,-54 -25,-105 -25,-113c0,-8 -11,-28 -24,-44c-13,-15 -26,-34 -28,-41c-7,-20 -101,55 -162,129c-104,125 -209,352 -276,597c-37,133 -71,185 -137,207c-73,24 -181,-4 -270,-69c-90,-67 -275,-396 -352,-627c-70,-210 -86,-318 -86,-560c1,-181 4,-225 24,-320c49,-232 125,-440 263,-718c78,-159 83,-187 41,-279c-31,-70 -24,-82 42,-72c178,26 301,198 259,360c-8,32 -12,71 -8,87c10,46 69,104 130,127c55,20 164,28 164,11c0,-5 -7,-25 -15,-44c-24,-58 -19,-144 11,-205c51,-103 113,-130 312,-139c138,-6 148,-8 165,-30c24,-30 52,-29 162,10c86,31 90,33 93,64c3,29 -1,34 -45,56c-26,13 -74,34 -106,47l-58,23l-31,-23c-30,-22 -36,-22 -160,-16c-72,4 -137,10 -145,13c-8,3 -13,16 -11,32l3,26l195,-5c107,-3 287,-5 400,-5c202,0 206,0 270,28c125,53 239,162 288,274c11,26 27,80 35,118l14,70l339,-1c388,-1 408,-4 469,-68c39,-41 53,-68 74,-152l11,-40l82,0c102,1 171,-26 223,-87c44,-51 51,-89 29,-156c-52,-161 75,-357 251,-384c65,-10 73,2 45,64c-39,83 -34,134 27,254c109,217 193,435 238,619c44,177 43,176 70,176c18,0 26,-8 35,-32c14,-42 38,-71 81,-97c48,-29 78,-26 145,14c67,41 85,42 138,14c49,-26 67,-22 81,20c6,19 20,39 30,45c10,6 39,23 64,39c53,32 88,34 141,7c22,-11 48,-20 60,-20c26,0 55,58 46,94c-8,31 -57,79 -114,108c-29,16 -44,31 -48,48c-9,48 -39,95 -61,98c-12,2 -35,-4 -52,-12c-43,-23 -89,-20 -143,9c-38,20 -52,23 -73,15c-31,-12 -75,-98 -75,-147c0,-37 -38,-73 -77,-73c-13,0 -50,14 -82,30c-41,21 -67,29 -83,25l-25,-6l-6,158c-7,202 -30,318 -99,513c-75,210 -245,498 -368,621c-76,76 -146,109 -240,110c-124,2 -174,-53 -209,-233c-46,-230 -138,-464 -235,-595c-45,-61 -137,-143 -159,-143c-21,1 -64,84 -76,148c-7,34 -19,81 -27,104c-13,37 -13,43 2,59c22,24 13,45 -47,108l-51,54l18,38c9,21 25,41 35,44c28,9 67,62 75,100c8,44 -11,100 -42,124c-19,15 -30,41 -45,101c-10,45 -17,86 -14,91c3,5 35,25 70,45c44,24 65,42 65,54c0,40 -211,179 -299,196c-17,4 -31,8 -31,10c0,2 9,21 21,43c13,25 23,68 26,116c6,71 8,77 34,91c61,31 78,120 34,173c-14,16 -35,33 -45,36c-19,6 -20,16 -20,141c0,130 -1,136 -25,159c-13,14 -29,25 -35,25c-21,0 -60,-49 -60,-75c0,-43 -17,-27 -23,22c-10,93 -100,101 -122,11c-10,-41 -30,-34 -41,14c-17,77 -92,75 -109,-3c-6,-26 -11,-29 -46,-29c-37,0 -39,2 -39,29c0,20 -8,35 -22,45c-30,21 -44,20 -68,-4zm52,-80l3,-35l70,-3c76,-3 95,8 95,55c0,13 5,23 10,23c6,0 10,-15 10,-33c0,-37 15,-57 42,-57c18,0 18,-2 2,-32c-9,-18 -30,-52 -46,-76c-16,-23 -26,-47 -23,-52c26,-43 107,63 145,190c31,105 51,52 26,-70c-16,-76 -15,-90 10,-90c15,0 28,25 39,73c4,23 9,26 28,21c29,-7 42,9 51,59c4,20 11,37 17,37c7,0 9,-61 7,-176l-3,-176l-37,-34c-54,-49 -50,-77 5,-34c14,11 28,20 31,20c3,0 6,-47 6,-105c0,-183 -23,-207 -197,-215c-103,-5 -113,-3 -113,13c0,23 -21,22 -27,-3c-6,-24 -45,-23 -55,3c-10,23 -24,22 -31,-3c-3,-12 -14,-20 -27,-20c-13,0 -24,8 -27,20c-3,11 -9,20 -13,20c-4,0 -10,-9 -13,-20c-5,-18 -14,-20 -98,-20c-72,0 -102,4 -134,20c-64,31 -75,59 -75,194c0,64 3,116 6,116c3,0 17,-9 31,-20c43,-34 46,-10 4,29l-41,38l0,182c0,119 3,180 10,176c6,-3 10,-12 10,-18c0,-7 5,-29 11,-51c10,-35 13,-38 38,-33c26,6 29,3 37,-35c10,-44 36,-70 53,-53c7,7 6,27 -4,59c-16,54 -20,156 -6,156c5,0 19,-32 31,-71c29,-90 92,-189 120,-189c27,0 26,26 -4,64c-22,29 -56,90 -56,99c0,3 11,8 25,11c19,5 25,13 25,35c0,68 26,76 32,11zm1574,-1094c65,-30 111,-76 193,-193c112,-159 215,-364 275,-548c51,-156 67,-251 73,-435c6,-194 7,-192 -57,-205l-35,-7l27,24c35,31 48,59 48,103c0,47 -25,89 -67,112c-18,10 -33,22 -33,28c0,49 -34,251 -55,324c-62,221 -227,525 -349,643c-50,49 -108,68 -144,47c-31,-17 -43,-50 -67,-174c-49,-260 -154,-481 -299,-633c-86,-91 -93,-93 -131,-48l-31,38l61,61c34,34 76,84 94,110c88,128 181,375 220,582c24,125 42,161 96,187c49,23 106,18 181,-16zm-2822,-30c33,-21 56,-72 91,-201c31,-113 88,-262 141,-368c92,-181 202,-302 336,-366c48,-22 98,-41 112,-41c14,0 26,-4 26,-10c0,-5 19,-9 43,-9c38,1 40,2 12,8l-30,7l38,5l37,5l0,-61l0,-62l-43,-1c-24,-1 -78,7 -121,18c-309,79 -539,386 -666,888c-20,77 -72,102 -140,67c-68,-35 -189,-230 -274,-439c-109,-272 -138,-503 -96,-786c31,-207 32,-210 43,-210c6,0 7,-3 4,-6c-3,-4 -2,-15 4,-25c6,-13 6,-19 0,-19c-6,0 -8,-7 -4,-16c5,-13 7,-13 14,-2c7,10 9,9 9,-5c0,-19 2,-24 49,-116c19,-36 29,-66 24,-70c-6,-3 -13,-26 -17,-51c-4,-24 -4,-41 0,-37c5,4 9,15 10,23c8,54 25,53 50,-4c8,-20 20,-45 25,-54c5,-10 9,-24 9,-32c0,-8 7,-17 16,-20c9,-3 14,-15 12,-28c-2,-11 3,-23 11,-26c9,-3 11,0 7,9c-4,8 2,3 13,-11c24,-29 26,-40 9,-41c-7,0 -3,-4 10,-9c12,-5 27,-22 34,-37c6,-15 20,-37 30,-49c14,-16 16,-26 9,-45c-5,-13 -10,-18 -10,-11c-1,6 -7,12 -15,12c-18,0 -26,-20 -16,-40c5,-8 11,-45 15,-81c6,-56 4,-67 -9,-72c-9,-4 -16,-14 -16,-24c0,-10 -9,-24 -20,-31c-22,-13 -23,-12 -14,12c3,9 10,13 15,10c5,-3 6,27 3,68c-4,40 -7,81 -7,90c-1,9 -3,15 -6,13c-2,-3 -10,3 -17,13c-23,29 -33,-3 -17,-51c18,-52 10,-112 -20,-149l-22,-27l-1,82c0,82 0,82 -76,232c-196,388 -278,680 -278,990c1,352 113,708 326,1031c61,92 96,126 169,161c58,28 136,28 179,-1zm1281,5c3,-5 -19,-17 -49,-25c-57,-17 -106,-49 -93,-62c4,-4 43,5 87,21c81,27 109,29 193,9c24,-6 28,-4 25,11c-2,11 -19,23 -43,30c-31,10 -36,14 -22,20c20,9 54,1 119,-27c49,-21 58,-49 12,-40c-17,3 -24,0 -24,-12c0,-9 5,-16 10,-16c17,0 11,-14 -23,-50c-66,-72 -93,-89 -135,-83c-36,5 -40,3 -60,-31l-21,-36l-76,0c-60,0 -75,3 -75,15c0,8 -6,15 -14,15c-7,0 -19,-7 -26,-15c-7,-8 -23,-15 -35,-15c-17,0 -27,10 -40,42c-16,42 -16,43 7,60c49,36 60,50 50,60c-7,7 -20,3 -42,-12c-37,-26 -52,-19 -24,11c69,77 276,166 299,130zm1518,-162c87,-72 271,-397 331,-584c25,-80 49,-200 61,-307l6,-58l-29,0c-16,0 -50,-3 -75,-6c-40,-6 -48,-4 -53,12c-4,11 -18,34 -32,53c-22,30 -25,45 -28,140c-3,58 -10,140 -17,181c-11,67 -15,75 -36,78c-23,4 -24,2 -17,-35c15,-92 27,-222 24,-262l-3,-44l-106,-4l-106,-5l13,74c7,40 16,115 20,165c6,82 5,93 -10,99c-27,11 -33,-5 -40,-106c-3,-52 -8,-108 -11,-124c-21,-105 -18,-100 -62,-110c-61,-13 -88,-2 -153,65l-60,59l41,53c90,118 184,351 228,567c11,52 23,103 26,113c11,26 46,21 88,-14zm-2889,-8c3,-5 22,-64 41,-131c83,-287 187,-483 340,-635c123,-123 243,-184 415,-214l95,-16l3,-87l3,-87l-38,-10c-56,-16 -134,-80 -168,-138c-22,-39 -34,-51 -47,-47c-22,7 -23,-9 -3,-26c30,-25 -1,-34 -38,-11c-38,23 -47,26 -47,11c0,-5 18,-22 40,-36c36,-24 55,-64 31,-64c-5,0 -44,23 -87,51c-89,58 -195,156 -261,242c-44,57 -66,69 -76,43c-13,-32 139,-202 265,-296c75,-57 84,-70 46,-70c-61,0 -157,-86 -190,-171c-13,-32 -26,-59 -31,-59c-4,0 -32,25 -63,56c-31,30 -61,53 -67,51c-25,-8 -17,-38 24,-82c36,-39 39,-45 20,-45c-11,0 -51,-10 -88,-22c-66,-22 -128,-69 -163,-126c-15,-23 -17,-19 -98,117c-197,333 -266,552 -266,846c0,209 27,341 116,559c27,64 120,240 158,296c58,85 117,129 134,101zm1595,-232c30,-10 56,-21 58,-23c3,-3 -11,-21 -31,-41c-30,-29 -36,-43 -36,-76c0,-33 6,-47 34,-75c47,-47 96,-47 159,1c25,19 49,35 52,35c3,0 18,-26 33,-57c27,-57 27,-61 30,-308l4,-250l-69,3l-68,3l-30,52c-28,47 -34,52 -65,52c-31,0 -37,-5 -64,-52c-29,-50 -32,-53 -71,-53c-50,0 -73,15 -83,55c-6,20 -15,30 -28,30c-29,0 -31,-54 -3,-89c44,-56 51,-57 522,-55c365,1 437,-1 467,-14c41,-17 178,-32 215,-23c28,7 35,43 10,52c-10,4 -15,20 -15,46c0,22 7,46 15,54c29,30 21,37 -49,49c-21,4 -35,10 -30,15c12,11 444,29 470,19c27,-10 64,-56 64,-80c0,-30 20,-34 137,-30c109,3 113,2 137,-22c32,-32 33,-68 4,-101c-22,-25 -28,-26 -168,-31c-316,-11 -347,-14 -380,-45c-24,-23 -30,-36 -30,-70c0,-36 6,-47 36,-75l36,-33l151,4c84,3 162,10 173,16c43,21 87,-29 64,-72c-6,-11 -18,-21 -28,-21c-31,-2 -57,3 -60,12c-2,5 -13,9 -25,8c-21,0 -21,-1 -2,-8c19,-8 -28,-10 -452,-27l-163,-7l0,26c0,21 -9,31 -40,47c-40,20 -54,21 -680,20c-616,0 -640,0 -692,20c-57,21 -105,64 -132,118c-15,29 -17,72 -16,335c0,311 4,349 45,426c13,26 19,30 34,22c10,-6 23,-17 30,-25c7,-9 29,-20 48,-25c68,-19 143,37 143,106c0,42 -24,101 -45,109c-26,10 -17,21 38,43c105,43 241,47 346,10zm605,-566c12,-76 10,-79 -48,-97c-30,-10 -60,-16 -68,-15c-12,2 -74,-7 -110,-18c-16,-4 -18,3 -18,57c0,34 3,59 8,57c16,-10 143,13 179,32c21,11 41,20 44,21c4,0 9,-17 13,-37zm1761,-234c12,-12 82,-11 90,1c3,6 21,10 40,10c32,0 35,-3 47,-46c11,-41 19,-50 63,-73c90,-47 127,-101 89,-131c-13,-11 -23,-10 -60,8c-51,25 -96,28 -113,8c-7,-8 -42,-29 -77,-46c-50,-24 -68,-38 -76,-61c-12,-34 -14,-35 -53,-9c-37,25 -72,19 -136,-21c-55,-35 -88,-36 -140,-7c-30,17 -39,28 -39,48c0,32 -35,80 -57,80c-9,0 -40,-13 -69,-30c-76,-42 -119,-45 -154,-10c-17,17 -54,29 -74,24c-17,-4 -27,1 -40,20c-22,34 -42,33 -61,-4c-13,-25 -21,-30 -54,-30c-31,0 -40,5 -49,25c-7,15 -20,25 -32,25c-12,0 -25,-10 -32,-25c-8,-18 -19,-25 -39,-25c-15,0 -34,-2 -42,-5c-7,-3 -24,3 -37,13c-18,14 -22,25 -16,45c8,34 29,34 50,2c22,-33 38,-32 59,5c15,25 25,30 56,30c30,0 40,-5 51,-25c18,-33 34,-32 60,5c28,40 81,42 106,5c15,-23 54,-35 54,-17c0,4 7,15 15,26c13,17 15,17 37,2c39,-27 105,-15 158,29c34,28 69,26 134,-5c35,-16 72,-30 81,-30c51,0 115,78 115,141c1,63 44,95 99,72c20,-8 40,-19 46,-24zm-3055,-209c0,-32 31,-101 67,-152c29,-40 62,-68 137,-113c15,-9 15,-14 2,-58c-26,-85 -92,-149 -172,-167c-19,-4 -137,-3 -263,3c-227,10 -229,10 -275,-13c-26,-12 -49,-20 -51,-18c-3,2 8,31 24,65c45,94 104,129 231,136l64,3l14,73c22,123 81,210 166,247c43,18 56,17 56,-6zm2497,-137c18,3 22,1 19,-12c-3,-9 -8,-30 -11,-48c-3,-18 -9,-43 -15,-57c-5,-15 -8,-26 -5,-26c2,0 -18,-66 -46,-146c-49,-145 -72,-198 -177,-414c-52,-107 -56,-120 -55,-184l0,-70l-24,30c-21,26 -24,36 -20,92c3,34 10,68 16,76c6,7 9,20 5,29c-7,20 -34,30 -34,14c0,-7 -14,-18 -30,-24l-31,-11l7,35c5,25 3,38 -7,44c-12,8 -12,10 1,18c8,6 11,14 6,18c-5,4 -11,2 -13,-4c-5,-15 -23,-18 -23,-4c0,18 67,111 75,103c5,-4 5,-1 1,6c-9,16 12,44 27,35c6,-4 8,0 4,10c-3,9 1,24 11,33c9,9 18,26 19,37c2,12 9,25 16,29c6,4 8,8 2,8c-6,0 -5,3 1,8c14,9 49,74 46,86c-2,5 4,6 13,2c8,-3 22,-9 30,-12c18,-7 20,17 3,34c-8,8 -15,9 -25,0c-11,-9 -12,-7 -6,8c9,25 29,45 37,37c3,-4 6,-1 6,5c0,5 3,19 6,29c5,15 4,15 -5,3c-16,-22 -13,-5 5,34c10,19 22,32 29,30c15,-6 45,74 45,117l0,28l37,-15c20,-9 47,-14 60,-11zm-239,-155c-29,-84 -200,-388 -218,-388c-3,0 -14,17 -25,37c-35,65 -113,112 -229,138l-29,6l41,42c44,44 54,77 25,77c-9,0 -43,-26 -76,-57l-59,-57l-18,46c-25,66 -56,114 -93,143l-32,25l90,1c50,0 209,6 355,13c146,6 268,10 272,9c4,-2 2,-18 -4,-35zm-1693,-17c3,-5 -3,-12 -12,-14c-14,-4 -13,-5 5,-6c12,0 22,4 22,11c0,6 3,9 6,5c9,-9 -16,-107 -27,-107c-6,0 -9,-6 -7,-13c5,-22 -38,-82 -93,-129c-125,-106 -166,-110 -724,-82c-148,8 -177,0 -214,-59c-23,-38 -32,-148 -13,-155c7,-2 12,-8 12,-13c0,-6 -6,-7 -12,-3c-9,5 -10,4 -3,-4c12,-13 205,-32 323,-32c43,0 72,-4 72,-10c0,-10 -156,-7 -317,4c-54,4 -109,36 -105,62c2,15 1,16 -7,5c-8,-13 -12,-13 -26,-1c-30,25 -45,68 -45,128c0,78 37,139 105,172c45,22 54,23 204,16c86,-4 184,-9 217,-12c81,-8 166,17 230,65c37,28 58,54 84,108l35,72l142,0c78,1 144,-3 148,-8z" id="svg_3"/>
   <path d="m6054,7967c-8,-23 3,-36 39,-45c22,-6 33,-15 35,-30c2,-12 13,-27 25,-33c17,-10 24,-8 38,10c9,11 29,21 42,21c26,0 67,41 67,67c0,25 -29,26 -49,2l-19,-24l-69,19c-37,10 -76,21 -85,23c-10,3 -20,-1 -24,-10z" id="svg_4"/>
   <path d="m6473,7969c-9,-9 -8,-19 2,-39c15,-29 33,-40 66,-40c10,0 19,-4 19,-10c0,-5 9,-14 21,-20c25,-14 46,0 51,33c2,16 13,24 41,30c40,10 57,31 39,49c-7,7 -31,4 -80,-11c-87,-26 -104,-26 -120,-1c-14,23 -23,25 -39,9z" id="svg_5"/>
   <path d="m4772,6427c-18,-21 -26,-240 -13,-354c21,-182 86,-381 177,-542c32,-58 51,-81 65,-81c28,0 24,21 -18,92c-77,131 -143,318 -169,476c-11,68 -15,144 -12,256c3,158 -2,187 -30,153z" id="svg_6"/>
   <path d="m4966,6422c-7,-12 9,-146 30,-239c18,-84 36,-114 55,-96c10,10 10,23 -1,65c-7,29 -20,102 -29,163c-13,85 -21,111 -33,113c-9,2 -19,-1 -22,-6z" id="svg_7"/>
   <path d="m6348,6633c-28,-32 -68,-109 -68,-130c0,-28 18,-33 105,-33c120,0 125,7 70,105c-43,77 -75,94 -107,58z" id="svg_8"/>
   <path d="m6352,6303c-28,-25 -75,-117 -70,-139c3,-17 15,-19 101,-22c120,-3 125,3 76,95c-44,84 -69,99 -107,66z" id="svg_9"/>
  </g>
  <text fill="#000000" font-family="Monospace" font-size="20" font-weight="bold" id="svg_11" stroke="#000000" stroke-width="0" text-anchor="middle" transform="matrix(21.512 0 0 18.5303 -18360.2 -15739.7)" x="882.67" xml:space="preserve" y="900.22">404</text>
  <text fill="#000000" font-family="Fantasy" font-size="120" font-weight="bold" id="svg_10" letter-spacing="5" stroke="#000000" stroke-width="0" text-anchor="middle" x="633.75" xml:space="preserve" y="224.25">error</text>
 </g>
</svg>