<?xml version="1.0" encoding="UTF-8"?>
<!DOCTYPE svg PUBLIC "-//W3C//DTD SVG 1.1//EN" "http://www.w3.org/Graphics/SVG/1.1/DTD/svg11.dtd">
<svg xmlns="http://www.w3.org/2000/svg" version="1.1" width="1920px" height="410px" style="shape-rendering:geometricPrecision; text-rendering:geometricPrecision; image-rendering:optimizeQuality; fill-rule:evenodd; clip-rule:evenodd" xmlns:xlink="http://www.w3.org/1999/xlink">
<g><path style="opacity:1" fill="#0c9f43" d="M 298.5,24.5 C 300.527,24.6621 302.527,24.4955 304.5,24C 311.103,21.1897 317.77,18.6897 324.5,16.5C 327.545,16.3418 330.379,17.0085 333,18.5C 333.5,78.4991 333.667,138.499 333.5,198.5C 333.283,202.705 332.617,206.705 331.5,210.5C 329.539,214.053 328.206,218.053 327.5,222.5C 326.534,220.604 326.201,218.604 326.5,216.5C 324.023,216.949 322.023,216.283 320.5,214.5C 321.3,207.216 321.8,199.883 322,192.5C 322.832,138.998 322.665,85.6651 321.5,32.5C 320.209,32.2627 319.209,32.596 318.5,33.5C 315.284,33.3455 312.617,34.3455 310.5,36.5C 302.39,38.9409 294.057,40.6075 285.5,41.5C 273.85,42.2711 262.183,42.9378 250.5,43.5C 237.831,43.1665 225.164,42.8332 212.5,42.5C 204.44,40.9812 196.44,39.1479 188.5,37C 181.664,34.0876 174.83,31.2543 168,28.5C 153.469,35.0649 138.302,39.7315 122.5,42.5C 117.859,43.1266 113.193,43.4599 108.5,43.5C 96.1622,43.6665 83.8288,43.4999 71.5,43C 57.1787,40.6795 42.8454,38.5128 28.5,36.5C 25.3012,35.1009 21.9679,34.1009 18.5,33.5C 17.791,32.596 16.791,32.2627 15.5,32.5C 14.8333,86.3349 14.1667,140.335 13.5,194.5C 11.8333,194.5 10.1667,194.5 8.5,194.5C 7.52242,194.977 6.68909,195.643 6,196.5C 4.91559,193.166 4.08226,189.832 3.5,186.5C 3.33334,130.499 3.50001,74.499 4,18.5C 6.15293,16.5561 8.65293,16.0561 11.5,17C 20.093,21.7282 29.093,25.3948 38.5,28C 37.8333,28.3333 37.1667,28.6667 36.5,29C 44.1447,29.8871 51.8114,30.3871 59.5,30.5C 87.9428,33.4951 115.943,31.3284 143.5,24C 148.99,21.5725 154.323,19.0725 159.5,16.5C 162.754,15.5207 166.087,14.8541 169.5,14.5C 211.303,33.4637 254.303,36.797 298.5,24.5 Z"/></g>
<g><path style="opacity:0.553" fill="#b6e8c8" d="M 334.5,17.5 C 332.676,15.8626 330.509,14.8626 328,14.5C 326.319,14.6083 325.152,15.2749 324.5,16.5C 317.77,18.6897 311.103,21.1897 304.5,24C 302.527,24.4955 300.527,24.6621 298.5,24.5C 306.855,21.3179 315.188,17.8179 323.5,14C 326.5,13.3333 329.5,13.3333 332.5,14C 333.823,14.8159 334.489,15.9826 334.5,17.5 Z"/></g>
<g><path style="opacity:0.598" fill="#b4e9c9" d="M 159.5,16.5 C 154.323,19.0725 148.99,21.5725 143.5,24C 115.943,31.3284 87.9428,33.4951 59.5,30.5C 50.4244,27.8507 41.091,25.6841 31.5,24C 26.7809,21.2399 21.7809,19.2399 16.5,18C 13.6092,14.664 9.9425,13.664 5.5,15C 4.66667,15.8333 3.83333,16.6667 3,17.5C 2.50001,77.4991 2.33334,137.499 2.5,197.5C 1.81542,140.491 1.14875,83.3242 0.5,26C -0.326337,15.4892 4.34033,11.4892 14.5,14C 26.1178,20.3173 38.4511,24.6507 51.5,27C 88.5648,33.6313 124.565,30.1313 159.5,16.5 Z"/></g>
<g><path style="opacity:0.196" fill="#c3efd5" d="M 298.5,24.5 C 254.303,36.797 211.303,33.4637 169.5,14.5C 166.087,14.8541 162.754,15.5207 159.5,16.5C 160.058,15.2101 161.058,14.3768 162.5,14C 164.649,13.4212 166.815,12.9212 169,12.5C 177.726,15.5234 186.392,18.8567 195,22.5C 220.057,29.5915 245.557,31.7582 271.5,29C 280.538,27.5948 289.538,26.0948 298.5,24.5 Z"/></g>
<g><path style="opacity:1" fill="#f8fdfa" d="M 212.5,42.5 C 215.909,43.9034 219.575,44.5701 223.5,44.5C 231.111,45.9954 238.944,46.6621 247,46.5C 252.344,46.4994 257.511,46.166 262.5,45.5C 262.833,45.5 263.167,45.5 263.5,45.5C 277.743,45.7012 291.743,43.8679 305.5,40C 306.955,38.3743 308.622,37.2076 310.5,36.5C 313.402,35.4222 316.402,34.7556 319.5,34.5C 319.667,87.501 319.5,140.501 319,193.5C 317.927,203.201 316.761,212.868 315.5,222.5C 307.253,260.073 290.587,293.073 265.5,321.5C 258.758,327.575 252.425,333.908 246.5,340.5C 238.063,346.425 229.729,352.591 221.5,359C 212.646,363.259 203.98,367.759 195.5,372.5C 188.754,374.016 182.087,375.85 175.5,378C 169.05,378.768 162.717,378.268 156.5,376.5C 131.802,369.651 109.802,357.818 90.5,341C 46.6661,300.167 21.9994,250 16.5,190.5C 15.8377,137.823 16.5044,85.4894 18.5,33.5C 21.9679,34.1009 25.3012,35.1009 28.5,36.5C 37.1507,39.7037 46.1507,42.037 55.5,43.5C 59.8934,45.1504 64.56,46.3171 69.5,47C 84.5418,47.7604 99.5418,47.2604 114.5,45.5C 117.37,44.7432 120.036,43.7432 122.5,42.5C 138.302,39.7315 153.469,35.0649 168,28.5C 174.83,31.2543 181.664,34.0876 188.5,37C 196.44,39.1479 204.44,40.9812 212.5,42.5 Z"/></g>
<g><path style="opacity:1" fill="#24984f" d="M 59.5,30.5 C 51.8114,30.3871 44.1447,29.8871 36.5,29C 37.1667,28.6667 37.8333,28.3333 38.5,28C 29.093,25.3948 20.093,21.7282 11.5,17C 8.65293,16.0561 6.15293,16.5561 4,18.5C 3.50001,74.499 3.33334,130.499 3.5,186.5C 3.84126,196.579 4.84126,206.579 6.5,216.5C 5.39953,214.723 4.56619,212.723 4,210.5C 3.82382,206.312 3.32382,202.312 2.5,198.5C 2.5,198.167 2.5,197.833 2.5,197.5C 2.33334,137.499 2.50001,77.4991 3,17.5C 3.83333,16.6667 4.66667,15.8333 5.5,15C 9.9425,13.664 13.6092,14.664 16.5,18C 21.7809,19.2399 26.7809,21.2399 31.5,24C 41.091,25.6841 50.4244,27.8507 59.5,30.5 Z"/></g>
<g><path style="opacity:0.584" fill="#d0f7e2" d="M 334.5,17.5 C 335.665,78.332 335.832,139.332 335,200.5C 333.127,220.404 328.294,239.404 320.5,257.5C 322.624,247.628 325.457,237.961 329,228.5C 330.161,222.536 330.994,216.536 331.5,210.5C 332.617,206.705 333.283,202.705 333.5,198.5C 334.499,138.336 334.832,78.0023 334.5,17.5 Z"/></g>
<g><path style="opacity:1" fill="#45a76c" d="M 334.5,17.5 C 334.832,78.0023 334.499,138.336 333.5,198.5C 333.667,138.499 333.5,78.4991 333,18.5C 330.379,17.0085 327.545,16.3418 324.5,16.5C 325.152,15.2749 326.319,14.6083 328,14.5C 330.509,14.8626 332.676,15.8626 334.5,17.5 Z"/></g>
<g><path style="opacity:0.931" fill="#fefffe" d="M 473.5,108.5 C 508.67,103.539 536.503,115.206 557,143.5C 573.963,173.838 573.296,203.838 555,233.5C 543.086,249.255 527.919,260.589 509.5,267.5C 522.468,272.913 535.801,277.413 549.5,281C 569.044,285.642 588.711,289.642 608.5,293C 615.833,293.667 623.167,293.667 630.5,293C 634.547,291.56 638.38,289.726 642,287.5C 644.154,288.32 645.654,289.82 646.5,292C 639.229,302.28 629.896,309.946 618.5,315C 607.409,315.837 596.409,315.171 585.5,313C 548.046,304.185 512.379,290.852 478.5,273C 416.618,255.733 394.451,216.233 412,154.5C 425.117,129.352 445.617,114.019 473.5,108.5 Z M 481.5,118.5 C 507.978,120.79 525.145,134.79 533,160.5C 542.617,190.406 538.617,218.406 521,244.5C 499.103,264.768 477.436,264.435 456,243.5C 436.885,216.822 431.552,187.489 440,155.5C 446.46,134.716 460.293,122.383 481.5,118.5 Z"/></g>
<g><path style="opacity:0.911" fill="#fefffe" d="M 1814.5,108.5 C 1817.12,108.232 1819.62,108.565 1822,109.5C 1822.83,152.071 1822.66,194.571 1821.5,237C 1822.19,241.161 1823.02,245.327 1824,249.5C 1827.95,251.532 1832.12,253.032 1836.5,254C 1837.42,256.041 1837.76,258.208 1837.5,260.5C 1827.28,262.93 1817.11,265.597 1807,268.5C 1805.29,268.561 1803.96,267.894 1803,266.5C 1802.71,263.257 1801.38,260.59 1799,258.5C 1782.5,270.312 1765.33,271.479 1747.5,262C 1729.25,245.431 1724.75,225.597 1734,202.5C 1747.48,176.269 1768.64,166.935 1797.5,174.5C 1797.06,159.167 1796.56,143.834 1796,128.5C 1795.53,127.069 1794.7,125.903 1793.5,125C 1790.01,123.209 1786.34,121.876 1782.5,121C 1780.99,118.084 1781.32,115.418 1783.5,113C 1793.98,111.492 1804.31,109.992 1814.5,108.5 Z M 1770.5,182.5 C 1778.68,181.184 1786.01,183.018 1792.5,188C 1794.04,189.579 1795.21,191.413 1796,193.5C 1797.57,209.794 1797.91,226.127 1797,242.5C 1795.76,249.408 1791.6,253.574 1784.5,255C 1775.51,256.089 1768.34,252.922 1763,245.5C 1753.89,230.362 1751.89,214.362 1757,197.5C 1759.69,190.709 1764.19,185.709 1770.5,182.5 Z"/></g>
<g><path style="opacity:0.911" fill="#fefffe" d="M 1334.5,110.5 C 1352.58,110.913 1370.58,111.08 1388.5,111C 1389.33,111.833 1390.17,112.667 1391,113.5C 1405.48,149.78 1420.48,185.78 1436,221.5C 1452.44,185.53 1468.1,149.197 1483,112.5C 1484.74,111.106 1486.74,110.439 1489,110.5C 1503.82,110.904 1518.65,111.071 1533.5,111C 1535.73,113.553 1536.06,116.386 1534.5,119.5C 1529.5,120.333 1524.5,121.167 1519.5,122C 1518.81,123.067 1518.31,124.234 1518,125.5C 1517.83,145.833 1517.67,166.167 1517.5,186.5C 1517.36,208.54 1517.86,230.54 1519,252.5C 1519.37,253.416 1519.87,254.25 1520.5,255C 1525.77,256.106 1531.1,256.773 1536.5,257C 1538.04,260.24 1537.7,263.24 1535.5,266C 1513.12,266.822 1490.79,266.656 1468.5,265.5C 1467.22,262.628 1467.22,259.795 1468.5,257C 1474.56,256.805 1480.56,256.139 1486.5,255C 1488.07,253.174 1488.91,251.007 1489,248.5C 1489.83,208.829 1489.67,169.162 1488.5,129.5C 1468.89,173.194 1449.39,216.86 1430,260.5C 1427.93,262.648 1425.59,262.982 1423,261.5C 1404.19,216.717 1385.19,172.051 1366,127.5C 1365.33,164.167 1365.33,200.833 1366,237.5C 1367,242.167 1368,246.833 1369,251.5C 1369.83,252.5 1370.67,253.5 1371.5,254.5C 1376.71,256.088 1382.04,256.754 1387.5,256.5C 1387.78,259.777 1387.45,262.943 1386.5,266C 1367.59,266.825 1348.76,266.659 1330,265.5C 1329.22,262.571 1329.39,259.737 1330.5,257C 1335.56,256.752 1340.56,256.085 1345.5,255C 1348.23,252.374 1350.06,249.207 1351,245.5C 1352.88,222.209 1354.21,198.876 1355,175.5C 1355.92,158.788 1355.59,142.121 1354,125.5C 1353.53,124.069 1352.7,122.903 1351.5,122C 1345.55,120.928 1339.55,120.428 1333.5,120.5C 1333.25,117.061 1333.59,113.728 1334.5,110.5 Z"/></g>
<g><path style="opacity:0.906" fill="#fefffe" d="M 1567.5,124.5 C 1583.01,123.509 1588.85,130.509 1585,145.5C 1575.21,155.208 1566.21,154.542 1558,143.5C 1555.9,134.367 1559.07,128.034 1567.5,124.5 Z"/></g>
<g><path style="opacity:0.92" fill="#fefffe" d="M 954.5,149.5 C 956.167,149.5 957.833,149.5 959.5,149.5C 959.907,157.447 959.907,165.447 959.5,173.5C 969.416,173.181 979.25,173.514 989,174.5C 989.444,179.162 988.277,183.329 985.5,187C 976.589,187.181 967.755,187.681 959,188.5C 958.063,208.21 958.396,227.877 960,247.5C 961.105,250.937 963.272,253.437 966.5,255C 972.633,255.103 978.633,254.436 984.5,253C 987.7,257.529 986.7,260.862 981.5,263C 971.759,268.087 961.425,269.753 950.5,268C 944.201,266.037 939.368,262.203 936,256.5C 934.521,233.591 934.021,210.591 934.5,187.5C 930.154,187.666 925.821,187.499 921.5,187C 919.582,185.23 919.082,183.063 920,180.5C 934.16,173.176 945.66,162.842 954.5,149.5 Z"/></g>
<g><path style="opacity:0.914" fill="#fefffe" d="M 743.5,172.5 C 752.821,171.627 761.821,172.793 770.5,176C 774.194,178.687 776.694,182.187 778,186.5C 778.865,207.494 779.531,228.494 780,249.5C 780.263,252.264 781.763,253.931 784.5,254.5C 787.678,253.656 790.345,251.989 792.5,249.5C 798.13,251.564 798.963,254.898 795,259.5C 787.335,268.483 777.835,270.983 766.5,267C 762.689,264.222 759.689,260.722 757.5,256.5C 745.817,267.671 732.151,271.171 716.5,267C 707.264,257.15 706.098,246.317 713,234.5C 716.581,230.248 720.748,226.748 725.5,224C 734.986,219.756 744.32,215.256 753.5,210.5C 755.029,208.293 755.695,205.793 755.5,203C 755.68,184.907 747.346,179.573 730.5,187C 730,187.5 729.5,188 729,188.5C 728.667,193.5 728.333,198.5 728,203.5C 722.613,211.885 715.946,213.218 708,207.5C 706.198,198.268 709.031,190.768 716.5,185C 724.845,179.157 733.845,174.99 743.5,172.5 Z M 753.5,219.5 C 754.117,219.611 754.617,219.944 755,220.5C 755.917,229.909 755.584,239.242 754,248.5C 750.442,253.529 745.609,255.696 739.5,255C 732.848,250.37 731.015,244.203 734,236.5C 735.765,232.136 738.599,228.636 742.5,226C 746.56,224.311 750.227,222.144 753.5,219.5 Z"/></g>
<g><path style="opacity:0.907" fill="#fefffe" d="M 831.5,172.5 C 833.722,172.178 835.556,172.845 837,174.5C 837.787,178.179 838.621,181.846 839.5,185.5C 854.636,170.84 871.303,168.673 889.5,179C 894.308,182.789 897.475,187.622 899,193.5C 899.333,213.167 899.667,232.833 900,252.5C 900.309,253.766 900.809,254.933 901.5,256C 905.563,256.038 909.397,256.872 913,258.5C 913.957,261.379 913.457,263.879 911.5,266C 895.926,266.824 880.426,266.657 865,265.5C 863.349,263.246 863.182,260.912 864.5,258.5C 866.972,257.104 869.638,256.27 872.5,256C 873.863,254.055 874.697,251.888 875,249.5C 875.667,232.5 875.667,215.5 875,198.5C 870.376,187.281 862.21,183.781 850.5,188C 843.793,190.884 840.126,196.051 839.5,203.5C 840.826,219.673 840.826,235.84 839.5,252C 839.903,253.473 840.57,254.806 841.5,256C 844.168,256.567 846.834,257.067 849.5,257.5C 849.777,260.448 849.444,263.281 848.5,266C 834.167,266.667 819.833,266.667 805.5,266C 803.679,263.544 803.012,260.711 803.5,257.5C 806.813,256.955 810.146,256.455 813.5,256C 814,255.5 814.5,255 815,254.5C 815.667,237.5 815.667,220.5 815,203.5C 814.529,201.754 813.862,200.087 813,198.5C 809.115,195.661 805.615,192.494 802.5,189C 802.759,187.739 803.426,186.739 804.5,186C 813.771,181.762 822.771,177.262 831.5,172.5 Z"/></g>
<g><path style="opacity:0.913" fill="#fefffe" d="M 1138.5,172.5 C 1140.29,172.215 1141.95,172.548 1143.5,173.5C 1144.22,177.893 1145.22,182.226 1146.5,186.5C 1157.79,174.572 1171.45,170.405 1187.5,174C 1194.76,176.872 1200.26,181.705 1204,188.5C 1217.21,172.322 1233.37,168.489 1252.5,177C 1257.67,181.186 1261.51,186.353 1264,192.5C 1265.48,212.702 1265.98,232.868 1265.5,253C 1265.75,254.326 1266.42,255.326 1267.5,256C 1270.85,256.455 1274.19,256.955 1277.5,257.5C 1277.78,260.448 1277.44,263.281 1276.5,266C 1261.59,266.823 1246.76,266.657 1232,265.5C 1230.35,263.246 1230.18,260.912 1231.5,258.5C 1234.24,257.188 1237.07,256.188 1240,255.5C 1241.53,237.529 1241.87,219.529 1241,201.5C 1238.98,189.591 1232.15,184.758 1220.5,187C 1213.39,188.957 1208.89,193.457 1207,200.5C 1206.33,218.833 1206.33,237.167 1207,255.5C 1210.43,256.396 1213.93,257.062 1217.5,257.5C 1217.78,260.448 1217.44,263.281 1216.5,266C 1201.83,266.667 1187.17,266.667 1172.5,266C 1170.68,263.544 1170.01,260.711 1170.5,257.5C 1173.49,257.002 1176.49,256.502 1179.5,256C 1181,254.509 1181.84,252.676 1182,250.5C 1182.88,232.469 1182.55,214.469 1181,196.5C 1179.03,189.507 1174.37,186.174 1167,186.5C 1157.33,186.819 1151,191.486 1148,200.5C 1147.33,218.5 1147.33,236.5 1148,254.5C 1150.91,256.124 1154.08,257.29 1157.5,258C 1159.01,260.916 1158.68,263.582 1156.5,266C 1141.5,266.667 1126.5,266.667 1111.5,266C 1110.56,263.281 1110.22,260.448 1110.5,257.5C 1114.4,257.035 1118.23,256.368 1122,255.5C 1123.12,246.738 1123.62,237.905 1123.5,229C 1123.6,219.452 1123.1,209.952 1122,200.5C 1119.52,196.087 1115.85,193.087 1111,191.5C 1110.33,189.833 1110.33,188.167 1111,186.5C 1120.15,181.676 1129.32,177.009 1138.5,172.5 Z"/></g>
<g><path style="opacity:0.909" fill="#fefffe" d="M 1581.5,172.5 C 1587.16,171.499 1589.49,173.832 1588.5,179.5C 1587.05,204.847 1587.22,230.18 1589,255.5C 1593.2,256.105 1597.36,256.938 1601.5,258C 1603.01,260.916 1602.68,263.582 1600.5,266C 1583.5,266.667 1566.5,266.667 1549.5,266C 1546.89,263.205 1546.89,260.371 1549.5,257.5C 1553.45,256.732 1557.45,256.232 1561.5,256C 1562.29,254.915 1562.96,253.748 1563.5,252.5C 1563.56,234.899 1563.4,217.232 1563,199.5C 1562.65,197.152 1561.49,195.319 1559.5,194C 1556.14,192.882 1552.98,191.382 1550,189.5C 1549.33,188.167 1549.33,186.833 1550,185.5C 1560.51,181.056 1571.01,176.723 1581.5,172.5 Z"/></g>
<g><path style="opacity:0.909" fill="#fefffe" d="M 1638.5,172.5 C 1640.47,172.261 1642.3,172.594 1644,173.5C 1644.73,177.642 1645.73,181.642 1647,185.5C 1660.86,171.603 1676.69,168.77 1694.5,177C 1699.48,180.97 1703.31,185.803 1706,191.5C 1707,200.636 1707.5,209.802 1707.5,219C 1707.06,230.174 1706.9,241.341 1707,252.5C 1707.31,253.766 1707.81,254.933 1708.5,256C 1712.7,256.074 1716.7,256.907 1720.5,258.5C 1721.82,260.912 1721.65,263.246 1720,265.5C 1704.24,266.657 1688.41,266.824 1672.5,266C 1671.56,263.281 1671.22,260.448 1671.5,257.5C 1674.49,257.002 1677.49,256.502 1680.5,256C 1681.19,254.933 1681.69,253.766 1682,252.5C 1682.67,234.167 1682.67,215.833 1682,197.5C 1678.01,187.929 1670.85,184.429 1660.5,187C 1653.63,188.536 1649.46,192.702 1648,199.5C 1647.33,218.167 1647.33,236.833 1648,255.5C 1650.86,256.173 1653.69,257.007 1656.5,258C 1658.01,260.916 1657.68,263.582 1655.5,266C 1641.17,266.667 1626.83,266.667 1612.5,266C 1610.32,263.582 1609.99,260.916 1611.5,258C 1614.38,256.873 1617.38,256.206 1620.5,256C 1621.43,255.612 1622.09,254.945 1622.5,254C 1623.93,236.159 1623.77,218.326 1622,200.5C 1618.96,196.804 1615.3,193.804 1611,191.5C 1610.33,189.833 1610.33,188.167 1611,186.5C 1620.43,182.202 1629.6,177.535 1638.5,172.5 Z"/></g>
<g><path style="opacity:0.899" fill="#fefffe" d="M 1872.5,172.5 C 1883.76,171.212 1894.42,173.045 1904.5,178C 1905.33,178.833 1906.17,179.667 1907,180.5C 1909.37,186.712 1910.2,193.045 1909.5,199.5C 1907.67,200.929 1905.67,201.429 1903.5,201C 1898.13,193.959 1891.79,187.959 1884.5,183C 1876.35,181.003 1870.18,183.503 1866,190.5C 1864.99,194.744 1865.82,198.577 1868.5,202C 1879.7,205.881 1890.7,210.214 1901.5,215C 1915.23,226.857 1917.06,240.357 1907,255.5C 1895.65,267.318 1881.82,271.484 1865.5,268C 1860.48,267.327 1855.81,265.66 1851.5,263C 1848.21,254.21 1846.88,245.21 1847.5,236C 1849.53,235.319 1851.53,234.986 1853.5,235C 1857.62,240.077 1861.12,245.577 1864,251.5C 1873.51,261.487 1883.18,261.82 1893,252.5C 1895.99,245.757 1894.49,240.257 1888.5,236C 1878.34,232.391 1868.34,228.391 1858.5,224C 1846.79,213.819 1844.29,201.653 1851,187.5C 1856.74,180.385 1863.91,175.385 1872.5,172.5 Z"/></g>
<g><path style="opacity:0.924" fill="#fefffe" d="M 589.5,173.5 C 601.081,173.179 612.581,173.512 624,174.5C 624.781,175.729 625.281,177.062 625.5,178.5C 624.356,198.809 624.19,219.142 625,239.5C 627.912,254.368 636.412,258.868 650.5,253C 653.578,250.677 656.078,247.843 658,244.5C 658.667,225.167 658.667,205.833 658,186.5C 656.992,184.741 655.492,183.574 653.5,183C 646.703,183.865 644.203,181.032 646,174.5C 658.091,173.346 670.258,173.179 682.5,174C 683.804,174.804 684.471,175.971 684.5,177.5C 682.152,201.475 681.985,225.475 684,249.5C 684.374,250.416 684.874,251.25 685.5,252C 689.167,252.333 692.833,252.667 696.5,253C 698.396,254.808 698.896,256.975 698,259.5C 687.726,263.194 677.226,266.194 666.5,268.5C 665.167,268.167 663.833,267.833 662.5,267.5C 661.985,263.356 660.985,259.356 659.5,255.5C 645.854,269.408 630.188,272.241 612.5,264C 607.026,258.892 603.193,252.725 601,245.5C 600.667,228.167 600.333,210.833 600,193.5C 600.095,185.761 596.261,181.761 588.5,181.5C 587.121,178.533 587.454,175.866 589.5,173.5 Z"/></g>
<g><path style="opacity:0.917" fill="#fefffe" d="M 993.5,173.5 C 1005.08,173.179 1016.58,173.512 1028,174.5C 1028.96,176.199 1029.46,178.033 1029.5,180C 1028.38,199.484 1028.21,218.984 1029,238.5C 1031.33,254.086 1039.83,258.919 1054.5,253C 1058.08,251.084 1060.58,248.251 1062,244.5C 1062.67,224.833 1062.67,205.167 1062,185.5C 1058.49,183.274 1054.66,181.941 1050.5,181.5C 1049.17,179.167 1049.17,176.833 1050.5,174.5C 1062.83,173.167 1075.17,173.167 1087.5,174.5C 1087.41,199.109 1087.57,223.776 1088,248.5C 1088.47,249.931 1089.3,251.097 1090.5,252C 1094.17,252.333 1097.83,252.667 1101.5,253C 1102.59,255.064 1102.76,257.231 1102,259.5C 1091.88,263.115 1081.54,266.115 1071,268.5C 1068.97,268.646 1067.3,267.98 1066,266.5C 1065.67,263.167 1065.33,259.833 1065,256.5C 1064.59,256.043 1064.09,255.709 1063.5,255.5C 1052.94,266.965 1039.94,271.132 1024.5,268C 1015.02,264.236 1008.85,257.403 1006,247.5C 1004.97,227.514 1003.97,207.514 1003,187.5C 1000.67,183.583 997.174,181.583 992.5,181.5C 991.121,178.533 991.454,175.866 993.5,173.5 Z"/></g>
<g><path style="opacity:0.639" fill="#b9ebcd" d="M 2.5,198.5 C 3.32382,202.312 3.82382,206.312 4,210.5C 4.56619,212.723 5.39953,214.723 6.5,216.5C 7.43299,224.804 9.09966,232.97 11.5,241C 11.472,242.07 11.1386,242.903 10.5,243.5C 5.78648,228.926 3.11981,213.926 2.5,198.5 Z"/></g>
<g><path style="opacity:0.999" fill="#179f47" d="M 15.5,32.5 C 15.1677,85.336 15.5011,138.003 16.5,190.5C 21.9994,250 46.6661,300.167 90.5,341C 109.802,357.818 131.802,369.651 156.5,376.5C 162.767,379.36 169.433,380.193 176.5,379C 182.523,377.241 188.523,375.574 194.5,374C 195.056,373.617 195.389,373.117 195.5,372.5C 203.98,367.759 212.646,363.259 221.5,359C 229.729,352.591 238.063,346.425 246.5,340.5C 253.942,335.058 260.276,328.724 265.5,321.5C 290.587,293.073 307.253,260.073 315.5,222.5C 318.104,212.46 319.771,202.127 320.5,191.5C 321.499,138.669 321.832,85.6693 321.5,32.5C 322.665,85.6651 322.832,138.998 322,192.5C 321.8,199.883 321.3,207.216 320.5,214.5C 322.023,216.283 324.023,216.949 326.5,216.5C 326.201,218.604 326.534,220.604 327.5,222.5C 328.206,218.053 329.539,214.053 331.5,210.5C 330.994,216.536 330.161,222.536 329,228.5C 325.457,237.961 322.624,247.628 320.5,257.5C 320.5,257.833 320.5,258.167 320.5,258.5C 319.115,259.574 317.949,260.907 317,262.5C 311.409,276.35 304.742,289.683 297,302.5C 287.358,315.967 277.191,328.967 266.5,341.5C 255.982,349.791 245.315,358.124 234.5,366.5C 220.717,374.39 206.717,381.723 192.5,388.5C 184.303,389.59 176.136,390.924 168,392.5C 160.063,391.606 152.23,390.272 144.5,388.5C 100.105,371.005 64.9379,342.005 39,301.5C 33.6336,291.813 28.3003,282.147 23,272.5C 19.4108,263.644 16.0775,254.644 13,245.5C 12.6174,244.944 12.1174,244.611 11.5,244.5C 10.8333,244.5 10.5,244.167 10.5,243.5C 11.1386,242.903 11.472,242.07 11.5,241C 9.09966,232.97 7.43299,224.804 6.5,216.5C 4.84126,206.579 3.84126,196.579 3.5,186.5C 4.08226,189.832 4.91559,193.166 6,196.5C 6.68909,195.643 7.52242,194.977 8.5,194.5C 10.1667,194.5 11.8333,194.5 13.5,194.5C 14.1667,140.335 14.8333,86.3349 15.5,32.5 Z"/></g>
<g><path style="opacity:1" fill="#259250" d="M 42.5,236.5 C 45.614,239.245 48.614,242.078 51.5,245C 54.8333,245.667 58.1667,245.667 61.5,245C 64.0217,242.91 66.6884,241.076 69.5,239.5C 68.0681,242.102 66.0681,244.269 63.5,246C 58.4456,246.781 53.4456,246.614 48.5,245.5C 48.1667,246 47.8333,246.5 47.5,247C 51.8892,257.352 56.5559,267.519 61.5,277.5C 52.7447,264.987 46.4113,251.321 42.5,236.5 Z"/></g>
<g><path style="opacity:1" fill="#041606" d="M 226.5,219.5 C 223.656,224.184 221.656,229.184 220.5,234.5C 219.624,234.369 218.957,234.702 218.5,235.5C 212.56,246.4 205.893,256.734 198.5,266.5C 187.468,278.532 175.802,289.866 163.5,300.5C 151.738,308.27 139.738,315.603 127.5,322.5C 120.357,325.74 113.024,328.407 105.5,330.5C 104.596,329.791 104.263,328.791 104.5,327.5C 109.784,325.572 115.117,323.739 120.5,322C 141.236,311.446 160.236,298.279 177.5,282.5C 182.85,276.316 188.684,270.649 195,265.5C 201.971,254.207 209.305,243.207 217,232.5C 217.895,229.049 219.062,225.716 220.5,222.5C 221.376,222.631 222.043,222.298 222.5,221.5C 223.961,219.189 224.294,216.856 223.5,214.5C 222.893,214.624 222.56,214.957 222.5,215.5C 220.972,215.483 220.472,214.816 221,213.5C 224.015,210.317 227.182,207.317 230.5,204.5C 231.833,210.5 231.833,216.5 230.5,222.5C 229.813,220.726 228.98,219.059 228,217.5C 227.283,218.044 226.783,218.711 226.5,219.5 Z"/></g>
<g><path style="opacity:1" fill="#2d754f" d="M 43.5,224.5 C 42.6561,228.099 42.3227,231.766 42.5,235.5C 41.6515,233.112 40.6515,230.779 39.5,228.5C 39.5,228.167 39.5,227.833 39.5,227.5C 41.0301,226.789 42.3634,225.789 43.5,224.5 Z"/></g>
<g><path style="opacity:1" fill="#187e44" d="M 78.5,222.5 C 78.6602,224.199 78.4935,225.866 78,227.5C 74.8121,230.539 72.6454,234.206 71.5,238.5C 71.0431,239.298 70.3764,239.631 69.5,239.5C 71.1956,233.107 74.1956,227.44 78.5,222.5 Z"/></g>
<g><path style="opacity:1" fill="#243735" d="M 81.5,160.5 C 81.5,160.167 81.5,159.833 81.5,159.5C 84.5766,161.705 87.9099,163.372 91.5,164.5C 93.5598,163.189 95.7265,163.189 98,164.5C 98.3685,167.877 98.3685,171.21 98,174.5C 102.352,173.62 106.018,174.953 109,178.5C 114.785,177.566 120.618,177.232 126.5,177.5C 121.684,178.326 116.684,178.826 111.5,179C 109.722,181.135 109.055,183.635 109.5,186.5C 129.494,187.403 149.494,187.57 169.5,187C 170.908,183.661 172.908,180.827 175.5,178.5C 174.345,182.444 172.345,185.944 169.5,189C 153.477,189.165 137.477,189.332 121.5,189.5C 123.027,192.66 123.693,195.993 123.5,199.5C 129.685,200.549 135.685,201.883 141.5,203.5C 137.466,203.495 133.466,203.162 129.5,202.5C 128.5,202.5 127.5,202.5 126.5,202.5C 125.122,201.766 123.622,201.099 122,200.5C 121.502,197.518 121.335,194.518 121.5,191.5C 115.167,191.5 108.833,191.5 102.5,191.5C 103.81,186.924 104.81,182.257 105.5,177.5C 103.723,177.214 102.056,176.547 100.5,175.5C 98.9707,175.529 97.804,176.196 97,177.5C 97,180.833 97,184.167 97,187.5C 94.0714,190.69 92.2381,194.357 91.5,198.5C 90.4289,202.104 88.2623,205.104 85,207.5C 83.2802,212.743 81.1135,217.743 78.5,222.5C 74.1956,227.44 71.1956,233.107 69.5,239.5C 66.6884,241.076 64.0217,242.91 61.5,245C 58.1667,245.667 54.8333,245.667 51.5,245C 48.614,242.078 45.614,239.245 42.5,236.5C 42.5,236.167 42.5,235.833 42.5,235.5C 42.3227,231.766 42.6561,228.099 43.5,224.5C 49.2536,216.082 54.5869,207.416 59.5,198.5C 63.318,193.544 66.6513,188.211 69.5,182.5C 70.8421,179.834 72.6755,177.501 75,175.5C 75.4828,174.552 75.6495,173.552 75.5,172.5C 78.1667,172.5 80.8333,172.5 83.5,172.5C 83.6822,170.325 84.3489,168.325 85.5,166.5C 84.6531,164.129 83.3198,162.129 81.5,160.5 Z"/></g>
<g><path style="opacity:1" fill="#1a7343" d="M 51.5,219.5 C 51.3568,222.097 50.5234,224.431 49,226.5C 48.502,229.482 48.3354,232.482 48.5,235.5C 45.3047,229.566 46.3047,224.233 51.5,219.5 Z"/></g>
<g><path style="opacity:1" fill="#18693d" d="M 77.5,212.5 C 77.3414,216.674 75.6747,220.008 72.5,222.5C 73.6378,218.891 75.3044,215.558 77.5,212.5 Z"/></g>
<g><path style="opacity:1" fill="#197844" d="M 59.5,198.5 C 54.5869,207.416 49.2536,216.082 43.5,224.5C 43.5752,221.593 44.4086,218.927 46,216.5C 49.9142,212.43 52.9142,207.763 55,202.5C 56.3712,200.959 57.8712,199.625 59.5,198.5 Z"/></g>
<g><path style="opacity:1" fill="#175839" d="M 70.5,189.5 C 68.4888,193.03 66.6554,196.697 65,200.5C 63.9609,201.71 62.7942,202.71 61.5,203.5C 63.5058,198.145 66.5058,193.479 70.5,189.5 Z"/></g>
<g><path style="opacity:1" fill="#4daf6f" d="M 303.5,144.5 C 303.667,162.503 303.5,180.503 303,198.5C 302.468,206.825 300.968,214.825 298.5,222.5C 299.5,211.167 300.5,199.833 301.5,188.5C 302.496,174.343 302.829,160.01 302.5,145.5C 302.5,144.833 302.833,144.5 303.5,144.5 Z"/></g>
<g><path style="opacity:1" fill="#1c4b38" d="M 91.5,184.5 C 92.6491,184.791 93.3158,185.624 93.5,187C 90.7992,192.905 87.4659,198.405 83.5,203.5C 85.4461,198.274 87.9461,193.274 91,188.5C 91.49,187.207 91.6567,185.873 91.5,184.5 Z"/></g>
<g><path style="opacity:1" fill="#167a41" d="M 69.5,182.5 C 66.6513,188.211 63.318,193.544 59.5,198.5C 60.4279,195.546 61.2612,192.546 62,189.5C 64.9457,187.569 67.4457,185.236 69.5,182.5 Z"/></g>
<g><path style="opacity:1" fill="#158a45" d="M 126.5,202.5 C 124.533,202.739 122.699,202.406 121,201.5C 120.502,198.518 120.335,195.518 120.5,192.5C 112.454,192.53 104.454,192.363 96.5,192C 94.9343,194.326 93.2676,196.492 91.5,198.5C 92.2381,194.357 94.0714,190.69 97,187.5C 97,184.167 97,180.833 97,177.5C 97.804,176.196 98.9707,175.529 100.5,175.5C 102.056,176.547 103.723,177.214 105.5,177.5C 104.81,182.257 103.81,186.924 102.5,191.5C 108.833,191.5 115.167,191.5 121.5,191.5C 121.335,194.518 121.502,197.518 122,200.5C 123.622,201.099 125.122,201.766 126.5,202.5 Z"/></g>
<g><path style="opacity:1" fill="#0a9b42" d="M 91.5,184.5 C 91.6567,185.873 91.49,187.207 91,188.5C 87.9461,193.274 85.4461,198.274 83.5,203.5C 81.5,206.5 79.5,209.5 77.5,212.5C 75.3044,215.558 73.6378,218.891 72.5,222.5C 72.1062,226.391 70.2729,229.391 67,231.5C 65.6869,239.245 61.1869,242.079 53.5,240C 51.3395,239.004 49.6728,237.504 48.5,235.5C 48.3354,232.482 48.502,229.482 49,226.5C 50.5234,224.431 51.3568,222.097 51.5,219.5C 55.7501,214.766 59.0834,209.433 61.5,203.5C 62.7942,202.71 63.9609,201.71 65,200.5C 66.6554,196.697 68.4888,193.03 70.5,189.5C 72.038,186.101 73.8713,182.767 76,179.5C 76.7387,178.426 77.7387,177.759 79,177.5C 82.8373,180.523 87.004,182.856 91.5,184.5 Z"/></g>
<g><path style="opacity:1" fill="#1f934b" d="M 33.5,52.5 C 34.791,52.2627 35.791,52.596 36.5,53.5C 34.505,99.488 33.8383,145.821 34.5,192.5C 33.5012,146.003 33.1679,99.3363 33.5,52.5 Z"/></g>
<g><path style="opacity:1" fill="#079e41" d="M 301.5,188.5 C 300.5,199.833 299.5,211.167 298.5,222.5C 293.249,244.772 284.415,265.438 272,284.5C 267.311,291.343 262.477,298.01 257.5,304.5C 252.77,308.227 248.77,312.56 245.5,317.5C 234.571,326.917 222.904,335.417 210.5,343C 198.444,349.242 185.778,353.908 172.5,357C 167.833,357.667 163.167,357.667 158.5,357C 146.435,352.797 134.768,347.797 123.5,342C 117.546,337.837 111.546,334.004 105.5,330.5C 113.024,328.407 120.357,325.74 127.5,322.5C 132.374,321.395 137.041,319.729 141.5,317.5C 142.386,318.325 142.719,319.325 142.5,320.5C 142.5,324.167 142.5,327.833 142.5,331.5C 150.019,331.825 157.352,331.492 164.5,330.5C 165.329,323.679 165.829,316.679 166,309.5C 166.671,308.748 167.504,308.414 168.5,308.5C 170.017,308.489 171.184,307.823 172,306.5C 172.171,314.677 172.671,322.677 173.5,330.5C 180.5,331.833 187.5,331.833 194.5,330.5C 194.833,330.5 195.167,330.5 195.5,330.5C 196.19,315.648 197.024,300.648 198,285.5C 198.667,284.833 199.333,284.167 200,283.5C 199.845,299.532 200.679,315.199 202.5,330.5C 209.932,331.811 217.265,331.811 224.5,330.5C 225.664,301.336 225.83,272.003 225,242.5C 223.989,241.663 222.822,241.33 221.5,241.5C 220.351,241.209 219.684,240.376 219.5,239C 219.773,237.467 220.106,235.967 220.5,234.5C 222.559,231.389 224.392,228.056 226,224.5C 226.77,223.402 227.603,223.402 228.5,224.5C 229.822,224.67 230.989,224.337 232,223.5C 232.5,216.842 232.666,210.175 232.5,203.5C 231.127,203.343 229.793,203.51 228.5,204C 224.631,208.037 220.631,211.87 216.5,215.5C 215.549,216.919 215.216,218.585 215.5,220.5C 217.781,220.077 219.448,220.744 220.5,222.5C 219.062,225.716 217.895,229.049 217,232.5C 209.305,243.207 201.971,254.207 195,265.5C 188.684,270.649 182.85,276.316 177.5,282.5C 160.236,298.279 141.236,311.446 120.5,322C 115.117,323.739 109.784,325.572 104.5,327.5C 97.6002,322.941 91.2669,317.608 85.5,311.5C 83.2343,307.564 80.2343,304.231 76.5,301.5C 70.7085,294.032 65.7085,286.032 61.5,277.5C 56.5559,267.519 51.8892,257.352 47.5,247C 47.8333,246.5 48.1667,246 48.5,245.5C 53.4456,246.614 58.4456,246.781 63.5,246C 66.0681,244.269 68.0681,242.102 69.5,239.5C 70.3764,239.631 71.0431,239.298 71.5,238.5C 72.6454,234.206 74.8121,230.539 78,227.5C 78.4935,225.866 78.6602,224.199 78.5,222.5C 81.1135,217.743 83.2802,212.743 85,207.5C 88.2623,205.104 90.4289,202.104 91.5,198.5C 93.2676,196.492 94.9343,194.326 96.5,192C 104.454,192.363 112.454,192.53 120.5,192.5C 120.335,195.518 120.502,198.518 121,201.5C 122.699,202.406 124.533,202.739 126.5,202.5C 127.5,202.5 128.5,202.5 129.5,202.5C 129.918,203.222 130.584,203.722 131.5,204C 146.442,206.081 161.442,206.748 176.5,206C 178.342,204.654 179.342,202.821 179.5,200.5C 179.343,199.127 179.51,197.793 180,196.5C 181.983,192.875 183.816,189.208 185.5,185.5C 186.869,182.438 188.535,179.438 190.5,176.5C 192.287,175.684 193.954,174.684 195.5,173.5C 194.675,172.614 193.675,172.281 192.5,172.5C 193.275,167.516 193.942,162.516 194.5,157.5C 194.5,156.833 194.5,156.167 194.5,155.5C 195.222,155.082 195.722,154.416 196,153.5C 196.687,155.568 196.52,157.568 195.5,159.5C 199.261,160.735 202.927,161.402 206.5,161.5C 206.167,162.167 205.833,162.833 205.5,163.5C 205.846,164.696 206.346,164.696 207,163.5C 207.232,164.737 207.732,165.737 208.5,166.5C 208.611,167.117 208.944,167.617 209.5,168C 213.167,168.333 216.833,168.667 220.5,169C 219.167,170 219.167,171 220.5,172C 223.482,172.498 226.482,172.665 229.5,172.5C 229.336,175.187 229.503,177.854 230,180.5C 231.734,181.638 233.568,182.138 235.5,182C 235.167,181.667 234.833,181.333 234.5,181C 235.312,174.915 235.812,168.748 236,162.5C 238.019,159.288 240.853,157.622 244.5,157.5C 245.391,158.11 246.391,158.443 247.5,158.5C 249.495,160.64 251.995,161.973 255,162.5C 255.838,186.473 257.005,186.473 258.5,162.5C 261.88,161.077 265.214,159.743 268.5,158.5C 268.5,159.833 268.5,161.167 268.5,162.5C 269.5,162.5 270.5,162.5 271.5,162.5C 271.5,163.833 271.5,165.167 271.5,166.5C 264.833,166.833 264.833,167.167 271.5,167.5C 271.5,169.167 271.5,170.833 271.5,172.5C 272.5,172.5 273.5,172.5 274.5,172.5C 274.5,169.5 274.5,166.5 274.5,163.5C 278.5,162.833 278.5,162.167 274.5,161.5C 274.192,159.076 274.526,156.743 275.5,154.5C 277.412,156.156 279.412,156.489 281.5,155.5C 278.874,151.079 278.207,146.413 279.5,141.5C 280.477,138.713 280.81,135.713 280.5,132.5C 281.833,132.5 283.167,132.5 284.5,132.5C 284.5,136.833 284.5,141.167 284.5,145.5C 290.138,146.22 295.804,146.553 301.5,146.5C 301.5,160.5 301.5,174.5 301.5,188.5 Z"/></g>
<g><path style="opacity:1" fill="#041305" d="M 221.5,241.5 C 222.822,241.33 223.989,241.663 225,242.5C 225.83,272.003 225.664,301.336 224.5,330.5C 217.578,330.812 210.744,330.479 204,329.5C 203.5,312.17 203.333,294.837 203.5,277.5C 202.209,277.263 201.209,277.596 200.5,278.5C 199.173,279.8 197.84,281.133 196.5,282.5C 195.501,298.486 195.167,314.486 195.5,330.5C 195.167,330.5 194.833,330.5 194.5,330.5C 193.71,329.391 193.21,328.058 193,326.5C 192.831,313.993 192.331,301.66 191.5,289.5C 188.569,291.091 185.902,293.091 183.5,295.5C 183.586,294.504 183.252,293.671 182.5,293C 184.706,290.963 186.706,288.797 188.5,286.5C 188.833,285.5 189.5,284.833 190.5,284.5C 194.234,281.769 197.234,278.436 199.5,274.5C 202.761,268.739 206.928,263.739 212,259.5C 211.906,256.499 213.239,254.499 216,253.5C 218.121,249.593 219.955,245.593 221.5,241.5 Z"/></g>
<g><path style="opacity:1" fill="#116530" d="M 219.5,252.5 C 221.491,277.144 222.157,302.144 221.5,327.5C 216.5,327.5 211.5,327.5 206.5,327.5C 206.17,308.326 206.503,289.326 207.5,270.5C 207.5,289.167 207.5,307.833 207.5,326.5C 211.833,326.5 216.167,326.5 220.5,326.5C 220.5,303.5 220.5,280.5 220.5,257.5C 219.5,257.5 218.5,257.5 217.5,257.5C 217.893,255.716 218.559,254.05 219.5,252.5 Z"/></g>
<g><path style="opacity:1" fill="#118c40" d="M 200.5,278.5 C 202.486,295.468 203.153,312.801 202.5,330.5C 200.679,315.199 199.845,299.532 200,283.5C 199.333,284.167 198.667,284.833 198,285.5C 197.024,300.648 196.19,315.648 195.5,330.5C 195.167,314.486 195.501,298.486 196.5,282.5C 197.84,281.133 199.173,279.8 200.5,278.5 Z"/></g>
<g><path style="opacity:1" fill="#043e19" d="M 199.5,274.5 C 197.234,278.436 194.234,281.769 190.5,284.5C 192.766,280.564 195.766,277.231 199.5,274.5 Z"/></g>
<g><path style="opacity:1" fill="#106c34" d="M 198.5,266.5 C 188.792,279.875 177.125,291.208 163.5,300.5C 175.802,289.866 187.468,278.532 198.5,266.5 Z"/></g>
<g><path style="opacity:1" fill="#117938" d="M 175.5,275.5 C 175.489,277.017 174.823,278.184 173.5,279C 171.19,279.497 168.857,279.663 166.5,279.5C 166.5,276.5 166.5,273.5 166.5,270.5C 165.448,270.351 164.448,270.517 163.5,271C 161.571,273.438 159.238,275.272 156.5,276.5C 154.595,275.935 152.929,274.935 151.5,273.5C 149.605,275.486 147.605,275.819 145.5,274.5C 146.791,274.737 147.791,274.404 148.5,273.5C 151.173,270.494 153.84,267.494 156.5,264.5C 159.166,266.896 159,269.229 156,271.5C 155.219,272.944 155.386,274.277 156.5,275.5C 158.65,273.851 160.65,272.018 162.5,270C 164.134,269.506 165.801,269.34 167.5,269.5C 167.5,272.167 167.5,274.833 167.5,277.5C 170.327,277.416 172.994,276.75 175.5,275.5 Z"/></g>
<g><path style="opacity:1" fill="#0e913f" d="M 220.5,234.5 C 220.106,235.967 219.773,237.467 219.5,239C 219.684,240.376 220.351,241.209 221.5,241.5C 219.955,245.593 218.121,249.593 216,253.5C 213.239,254.499 211.906,256.499 212,259.5C 206.928,263.739 202.761,268.739 199.5,274.5C 195.766,277.231 192.766,280.564 190.5,284.5C 189.5,284.833 188.833,285.5 188.5,286.5C 175.326,298.353 161.326,309.019 146.5,318.5C 144.938,318.733 143.605,319.4 142.5,320.5C 142.719,319.325 142.386,318.325 141.5,317.5C 137.041,319.729 132.374,321.395 127.5,322.5C 139.738,315.603 151.738,308.27 163.5,300.5C 177.125,291.208 188.792,279.875 198.5,266.5C 205.893,256.734 212.56,246.4 218.5,235.5C 218.957,234.702 219.624,234.369 220.5,234.5 Z"/></g>
<g><path style="opacity:1" fill="#079d41" d="M 217.5,257.5 C 218.5,257.5 219.5,257.5 220.5,257.5C 220.5,280.5 220.5,303.5 220.5,326.5C 216.167,326.5 211.833,326.5 207.5,326.5C 207.5,307.833 207.5,289.167 207.5,270.5C 210.118,265.587 213.452,261.254 217.5,257.5 Z"/></g>
<g><path style="opacity:1" fill="#034019" d="M 150.5,265.5 C 149.272,268.075 147.605,270.408 145.5,272.5C 146.325,273.386 147.325,273.719 148.5,273.5C 147.791,274.404 146.791,274.737 145.5,274.5C 144.402,273.399 144.235,272.066 145,270.5C 146.704,268.627 148.537,266.96 150.5,265.5 Z"/></g>
<g><path style="opacity:1" fill="#0d5326" d="M 139.5,246.5 C 139.5,248.5 139.5,250.5 139.5,252.5C 142.482,252.037 145.482,251.704 148.5,251.5C 148.162,253.854 147.662,256.187 147,258.5C 144.873,260.114 143.373,262.114 142.5,264.5C 141.427,263.749 141.26,262.749 142,261.5C 145.054,259.634 146.554,256.967 146.5,253.5C 143.833,253.5 141.167,253.5 138.5,253.5C 138.198,250.941 138.532,248.607 139.5,246.5 Z"/></g>
<g><path style="opacity:1" fill="#0f863c" d="M 186.5,258.5 C 186.703,254.1 188.537,250.433 192,247.5C 194.37,242.761 196.703,238.094 199,233.5C 200.239,227.565 200.739,221.565 200.5,215.5C 195.463,215.413 190.463,215.746 185.5,216.5C 186.263,215.732 187.263,215.232 188.5,215C 193.155,214.501 197.821,214.334 202.5,214.5C 202.904,224.714 201.237,234.547 197.5,244C 197.645,244.772 197.978,245.439 198.5,246C 197.167,247 195.833,248 194.5,249C 195.784,250.297 195.617,251.464 194,252.5C 193.692,251.692 193.192,251.025 192.5,250.5C 189.677,252.642 187.677,255.309 186.5,258.5 Z"/></g>
<g><path style="opacity:1" fill="#126b34" d="M 226.5,219.5 C 228.256,220.552 228.923,222.219 228.5,224.5C 227.603,223.402 226.77,223.402 226,224.5C 224.392,228.056 222.559,231.389 220.5,234.5C 221.656,229.184 223.656,224.184 226.5,219.5 Z"/></g>
<g><path style="opacity:1" fill="#063413" d="M 228.5,224.5 C 228.923,222.219 228.256,220.552 226.5,219.5C 226.783,218.711 227.283,218.044 228,217.5C 228.98,219.059 229.813,220.726 230.5,222.5C 231.833,216.5 231.833,210.5 230.5,204.5C 227.182,207.317 224.015,210.317 221,213.5C 220.472,214.816 220.972,215.483 222.5,215.5C 221.265,217.957 219.265,219.29 216.5,219.5C 216.5,218.167 216.5,216.833 216.5,215.5C 220.631,211.87 224.631,208.037 228.5,204C 229.793,203.51 231.127,203.343 232.5,203.5C 232.666,210.175 232.5,216.842 232,223.5C 230.989,224.337 229.822,224.67 228.5,224.5 Z"/></g>
<g><path style="opacity:1" fill="#18753a" d="M 220.5,222.5 C 219.448,220.744 217.781,220.077 215.5,220.5C 215.216,218.585 215.549,216.919 216.5,215.5C 216.5,216.833 216.5,218.167 216.5,219.5C 219.265,219.29 221.265,217.957 222.5,215.5C 222.56,214.957 222.893,214.624 223.5,214.5C 224.294,216.856 223.961,219.189 222.5,221.5C 222.043,222.298 221.376,222.631 220.5,222.5 Z"/></g>
<g><path style="opacity:1" fill="#031405" d="M 186.5,258.5 C 184.105,264.948 180.439,270.614 175.5,275.5C 172.994,276.75 170.327,277.416 167.5,277.5C 167.5,274.833 167.5,272.167 167.5,269.5C 165.801,269.34 164.134,269.506 162.5,270C 160.65,272.018 158.65,273.851 156.5,275.5C 155.386,274.277 155.219,272.944 156,271.5C 159,269.229 159.166,266.896 156.5,264.5C 153.84,267.494 151.173,270.494 148.5,273.5C 147.325,273.719 146.325,273.386 145.5,272.5C 147.605,270.408 149.272,268.075 150.5,265.5C 151.929,264.766 152.929,263.599 153.5,262C 153.333,260.5 152.5,259.667 151,259.5C 148.888,260.608 147.054,262.108 145.5,264C 144.552,264.483 143.552,264.649 142.5,264.5C 143.373,262.114 144.873,260.114 147,258.5C 147.662,256.187 148.162,253.854 148.5,251.5C 145.482,251.704 142.482,252.037 139.5,252.5C 139.5,250.5 139.5,248.5 139.5,246.5C 143.756,237.187 151.089,232.02 161.5,231C 167.823,223.341 175.823,218.507 185.5,216.5C 190.463,215.746 195.463,215.413 200.5,215.5C 200.739,221.565 200.239,227.565 199,233.5C 196.703,238.094 194.37,242.761 192,247.5C 188.537,250.433 186.703,254.1 186.5,258.5 Z"/></g>
<g><path style="opacity:1" fill="#14823e" d="M 176.5,261.5 C 177.833,261.5 179.167,261.5 180.5,261.5C 179.288,266.704 176.288,270.371 171.5,272.5C 171.337,270.143 171.503,267.81 172,265.5C 173.992,264.672 175.492,263.339 176.5,261.5 Z"/></g>
<g><path style="opacity:1" fill="#0d5d2a" d="M 157.5,242.5 C 156.821,245.707 155.654,248.707 154,251.5C 153.333,252.833 153.333,254.167 154,255.5C 156.833,258.333 159.667,261.167 162.5,264C 163.793,264.49 165.127,264.657 166.5,264.5C 165.054,265.613 163.387,265.78 161.5,265C 158.333,261.833 155.167,258.667 152,255.5C 152.196,250.445 154.029,246.111 157.5,242.5 Z"/></g>
<g><path style="opacity:1" fill="#0a9841" d="M 195.5,229.5 C 194.143,237.547 190.643,244.547 185,250.5C 181.651,253.57 178.484,256.736 175.5,260C 172.352,261.424 169.352,262.924 166.5,264.5C 165.127,264.657 163.793,264.49 162.5,264C 159.667,261.167 156.833,258.333 154,255.5C 153.333,254.167 153.333,252.833 154,251.5C 155.654,248.707 156.821,245.707 157.5,242.5C 160.39,241.101 161.89,238.768 162,235.5C 165.155,231.497 168.988,228.497 173.5,226.5C 180.435,222.966 187.768,220.633 195.5,219.5C 195.5,222.833 195.5,226.167 195.5,229.5 Z"/></g>
<g><path style="opacity:1" fill="#001201" d="M 168.5,255.5 C 166.053,255.385 164.053,254.385 162.5,252.5C 162.281,251.325 162.614,250.325 163.5,249.5C 165.938,250.931 167.604,252.931 168.5,255.5 Z"/></g>
<g><path style="opacity:1" fill="#024317" d="M 168.5,255.5 C 167.604,252.931 165.938,250.931 163.5,249.5C 162.614,250.325 162.281,251.325 162.5,252.5C 161.566,251.432 161.232,250.099 161.5,248.5C 164.785,248.269 167.285,249.603 169,252.5C 169.74,253.749 169.573,254.749 168.5,255.5 Z"/></g>
<g><path style="opacity:1" fill="#08491f" d="M 184.5,235.5 C 187.295,244.95 183.961,248.617 174.5,246.5C 182.616,247.296 185.949,243.629 184.5,235.5 Z"/></g>
<g><path style="opacity:1" fill="#15803c" d="M 151.5,237.5 C 152.833,237.5 154.167,237.5 155.5,237.5C 153.973,241.048 151.973,244.381 149.5,247.5C 147.604,248.466 145.604,248.799 143.5,248.5C 143.608,246.217 144.441,244.217 146,242.5C 148.191,241.167 150.024,239.5 151.5,237.5 Z"/></g>
<g><path style="opacity:1" fill="#031505" d="M 184.5,235.5 C 185.949,243.629 182.616,247.296 174.5,246.5C 168.391,242.024 168.057,237.191 173.5,232C 176.167,231.333 178.833,231.333 181.5,232C 182.163,233.518 183.163,234.685 184.5,235.5 Z"/></g>
<g><path style="opacity:1" fill="#14833d" d="M 174.5,235.5 C 181.536,234.603 183.203,237.103 179.5,243C 173.785,243.401 172.119,240.901 174.5,235.5 Z"/></g>
<g><path style="opacity:1" fill="#0f5f2c" d="M 195.5,229.5 C 195.5,226.167 195.5,222.833 195.5,219.5C 187.768,220.633 180.435,222.966 173.5,226.5C 175.8,223.676 178.8,221.843 182.5,221C 186.963,219.025 191.629,218.192 196.5,218.5C 196.815,222.371 196.482,226.038 195.5,229.5 Z"/></g>
<g><path style="opacity:1" fill="#167a44" d="M 179.5,200.5 C 179.342,202.821 178.342,204.654 176.5,206C 161.442,206.748 146.442,206.081 131.5,204C 130.584,203.722 129.918,203.222 129.5,202.5C 133.466,203.162 137.466,203.495 141.5,203.5C 152.8,204.601 164.133,204.767 175.5,204C 176.384,202.28 177.717,201.114 179.5,200.5 Z"/></g>
<g><path style="opacity:1" fill="#a4e1bc" d="M 33.5,52.5 C 33.1679,99.3363 33.5012,146.003 34.5,192.5C 34.7615,204.398 36.4282,216.065 39.5,227.5C 39.5,227.833 39.5,228.167 39.5,228.5C 38.4415,227.4 37.6082,226.066 37,224.5C 34.7033,215.98 33.37,207.314 33,198.5C 32.1684,149.665 32.335,100.998 33.5,52.5 Z"/></g>
<g><path style="opacity:1" fill="#146634" d="M 302.5,142.5 C 302.833,142.5 303.167,142.5 303.5,142.5C 304.833,143.167 304.833,143.833 303.5,144.5C 302.833,144.5 302.5,144.833 302.5,145.5C 299.15,145.665 295.817,145.498 292.5,145C 292.043,144.586 291.709,144.086 291.5,143.5C 295.107,142.511 298.774,142.177 302.5,142.5 Z"/></g>
<g><path style="opacity:1" fill="#b6edcc" d="M 15.5,32.5 C 16.791,32.2627 17.791,32.596 18.5,33.5C 16.5044,85.4894 15.8377,137.823 16.5,190.5C 15.5011,138.003 15.1677,85.336 15.5,32.5 Z"/></g>
<g><path style="opacity:1" fill="#2f353c" d="M 197.5,127.5 C 197.5,131.5 197.5,135.5 197.5,139.5C 196.087,144.63 195.087,149.963 194.5,155.5C 194.5,156.167 194.5,156.833 194.5,157.5C 192.063,162.624 189.897,167.958 188,173.5C 186.846,177.447 186.013,181.447 185.5,185.5C 183.816,189.208 181.983,192.875 180,196.5C 179.51,197.793 179.343,199.127 179.5,200.5C 177.717,201.114 176.384,202.28 175.5,204C 164.133,204.767 152.8,204.601 141.5,203.5C 135.685,201.883 129.685,200.549 123.5,199.5C 123.693,195.993 123.027,192.66 121.5,189.5C 137.477,189.332 153.477,189.165 169.5,189C 172.345,185.944 174.345,182.444 175.5,178.5C 176.948,173.488 178.615,168.488 180.5,163.5C 180.5,163.167 180.5,162.833 180.5,162.5C 183.828,156.074 185.494,149.074 185.5,141.5C 187.768,129.945 190.101,118.279 192.5,106.5C 190.644,103.964 190.311,101.298 191.5,98.5C 193.179,100.104 195.179,100.771 197.5,100.5C 197.5,109.5 197.5,118.5 197.5,127.5 Z"/></g>
<g><path style="opacity:1" fill="#e6e5e4" d="M 179.5,185.5 C 177.53,190.115 175.53,194.782 173.5,199.5C 169.667,199.833 165.833,200.167 162,200.5C 150.128,199.903 138.295,198.903 126.5,197.5C 126.5,195.833 126.5,194.167 126.5,192.5C 141.674,193.001 156.674,193.001 171.5,192.5C 173.748,189.672 175.748,186.672 177.5,183.5C 179.203,182.34 179.869,183.007 179.5,185.5 Z"/></g>
<g><path style="opacity:1" fill="#686a71" d="M 171.5,192.5 C 156.674,193.001 141.674,193.001 126.5,192.5C 126.5,194.167 126.5,195.833 126.5,197.5C 125.539,195.735 125.205,193.735 125.5,191.5C 140.847,191.377 156.18,191.71 171.5,192.5 Z"/></g>
<g><path style="opacity:1" fill="#87d7a8" d="M 318.5,33.5 C 319.209,32.596 320.209,32.2627 321.5,32.5C 321.832,85.6693 321.499,138.669 320.5,191.5C 321.162,138.489 320.496,85.8228 318.5,33.5 Z"/></g>
<g><path style="opacity:1" fill="#45a96c" d="M 303.5,142.5 C 303.167,142.5 302.833,142.5 302.5,142.5C 302.5,113.5 302.5,84.5 302.5,55.5C 290.239,59.5741 277.573,62.2407 264.5,63.5C 277.568,60.2167 290.568,56.5501 303.5,52.5C 303.5,82.5 303.5,112.5 303.5,142.5 Z"/></g>
<g><path style="opacity:1" fill="#37a35f" d="M 163.5,51.5 C 161.68,53.4484 159.346,54.4484 156.5,54.5C 156.5,55.5 156.5,56.5 156.5,57.5C 150.417,57.5788 144.75,59.0788 139.5,62C 135.176,62.8695 130.842,63.7029 126.5,64.5C 110.672,65.8265 95.0051,65.8265 79.5,64.5C 89.3478,64.8271 99.0144,64.4938 108.5,63.5C 127.685,63.1154 146.018,59.1154 163.5,51.5 Z"/></g>
<g><path style="opacity:1" fill="#079e42" d="M 264.5,63.5 C 277.573,62.2407 290.239,59.5741 302.5,55.5C 302.5,84.5 302.5,113.5 302.5,142.5C 298.774,142.177 295.107,142.511 291.5,143.5C 291.709,144.086 292.043,144.586 292.5,145C 295.817,145.498 299.15,145.665 302.5,145.5C 302.829,160.01 302.496,174.343 301.5,188.5C 301.5,174.5 301.5,160.5 301.5,146.5C 295.804,146.553 290.138,146.22 284.5,145.5C 284.5,141.167 284.5,136.833 284.5,132.5C 283.167,132.5 281.833,132.5 280.5,132.5C 280.81,135.713 280.477,138.713 279.5,141.5C 279.5,138.167 279.5,134.833 279.5,131.5C 281.5,131.5 283.5,131.5 285.5,131.5C 285.177,135.226 285.511,138.893 286.5,142.5C 287.114,137.758 287.947,133.091 289,128.5C 291.081,127.667 293.248,127.667 295.5,128.5C 295.557,126.116 295.223,123.782 294.5,121.5C 295.551,119.471 296.885,117.637 298.5,116C 297.313,113.41 295.48,112.91 293,114.5C 291.915,118.447 290.081,121.947 287.5,125C 284.854,125.497 282.187,125.664 279.5,125.5C 279.666,121.154 279.499,116.821 279,112.5C 278.617,111.944 278.117,111.611 277.5,111.5C 276.886,109.717 275.72,108.384 274,107.5C 273.506,105.866 273.34,104.199 273.5,102.5C 272.167,102.5 270.833,102.5 269.5,102.5C 269.34,100.801 269.506,99.1341 270,97.5C 273.855,93.6449 277.688,89.8116 281.5,86C 281.15,84.7425 280.483,84.4092 279.5,85C 275.934,88.9047 272.1,92.4047 268,95.5C 267.502,98.8168 267.335,102.15 267.5,105.5C 264.097,105.149 260.763,104.482 257.5,103.5C 257.666,99.1539 257.499,94.8206 257,90.5C 255.833,89.3333 254.667,88.1667 253.5,87C 252.365,86.2506 251.365,86.4173 250.5,87.5C 252.149,88.6477 253.649,89.981 255,91.5C 255.499,95.1516 255.665,98.8183 255.5,102.5C 253.876,102.64 252.71,101.973 252,100.5C 250.905,101.693 250.072,103.027 249.5,104.5C 247.883,105.038 246.216,105.371 244.5,105.5C 244.719,104.325 244.386,103.325 243.5,102.5C 242.363,105.332 240.697,107.666 238.5,109.5C 233.476,110.313 231.476,113.313 232.5,118.5C 230.738,118.357 229.071,118.691 227.5,119.5C 226.504,113.202 226.17,106.868 226.5,100.5C 224.901,100.232 223.568,100.566 222.5,101.5C 221.861,102.097 221.528,102.93 221.5,104C 222.24,110.809 222.74,117.643 223,124.5C 226.057,125.451 229.223,125.784 232.5,125.5C 232.5,128.5 232.5,131.5 232.5,134.5C 227.125,134.828 221.792,134.495 216.5,133.5C 218.045,132.548 219.712,132.215 221.5,132.5C 221.5,131.5 221.5,130.5 221.5,129.5C 217.486,129.334 213.486,129.501 209.5,130C 209.043,130.414 208.709,130.914 208.5,131.5C 209.993,132.141 210.993,133.141 211.5,134.5C 211.5,135.833 211.5,137.167 211.5,138.5C 213.833,138.5 216.167,138.5 218.5,138.5C 218.532,146.386 219.198,146.386 220.5,138.5C 222.743,137.526 225.076,137.192 227.5,137.5C 227.5,138.833 227.5,140.167 227.5,141.5C 229.5,141.5 231.5,141.5 233.5,141.5C 234.061,144.462 235.061,147.295 236.5,150C 234.633,151.784 232.966,153.784 231.5,156C 231.833,156.5 232.167,157 232.5,157.5C 234.592,155.395 236.925,153.728 239.5,152.5C 239.271,154.433 238.438,156.1 237,157.5C 232.004,159.933 230.171,163.933 231.5,169.5C 219.5,170.167 219.5,170.833 231.5,171.5C 231.007,173.806 230.674,176.139 230.5,178.5C 231.833,178.5 233.167,178.5 234.5,178.5C 233.558,173.195 233.391,167.861 234,162.5C 235.833,160.667 237.667,158.833 239.5,157C 241.387,156.22 243.054,156.387 244.5,157.5C 240.853,157.622 238.019,159.288 236,162.5C 235.812,168.748 235.312,174.915 234.5,181C 234.833,181.333 235.167,181.667 235.5,182C 233.568,182.138 231.734,181.638 230,180.5C 229.503,177.854 229.336,175.187 229.5,172.5C 226.482,172.665 223.482,172.498 220.5,172C 219.167,171 219.167,170 220.5,169C 216.833,168.667 213.167,168.333 209.5,168C 208.944,167.617 208.611,167.117 208.5,166.5C 207.732,165.737 207.232,164.737 207,163.5C 206.346,164.696 205.846,164.696 205.5,163.5C 205.833,162.833 206.167,162.167 206.5,161.5C 202.927,161.402 199.261,160.735 195.5,159.5C 196.52,157.568 196.687,155.568 196,153.5C 195.722,154.416 195.222,155.082 194.5,155.5C 195.087,149.963 196.087,144.63 197.5,139.5C 199.059,136.132 199.892,132.465 200,128.5C 200.5,118.172 200.666,107.839 200.5,97.5C 198.167,97.5 195.833,97.5 193.5,97.5C 193.803,92.57 193.469,87.7367 192.5,83C 184.664,82.0054 176.997,80.8388 169.5,79.5C 165.322,78.237 160.989,77.0703 156.5,76C 148.939,75.6749 141.439,74.8416 134,73.5C 132.293,73.5085 130.793,73.8418 129.5,74.5C 128.504,74.4142 127.671,74.7476 127,75.5C 126.608,79.5276 126.108,83.5276 125.5,87.5C 116.527,86.7013 107.86,87.8679 99.5,91C 98.6195,91.7083 97.9528,92.5416 97.5,93.5C 95.2198,94.6401 92.8864,95.8068 90.5,97C 85.328,101.839 80.4946,107.006 76,112.5C 74.846,116.447 74.0127,120.447 73.5,124.5C 73.5,124.833 73.5,125.167 73.5,125.5C 72.3475,131.319 72.1808,137.319 73,143.5C 73.9425,146.374 75.1092,149.04 76.5,151.5C 77.6551,154.475 79.3218,157.142 81.5,159.5C 81.5,159.833 81.5,160.167 81.5,160.5C 82.1143,164.135 82.4476,167.802 82.5,171.5C 80.1806,170.833 77.8473,170.666 75.5,171C 74.9707,173.429 73.6374,175.262 71.5,176.5C 70.2528,178.323 69.5861,180.323 69.5,182.5C 67.4457,185.236 64.9457,187.569 62,189.5C 61.2612,192.546 60.4279,195.546 59.5,198.5C 57.8712,199.625 56.3712,200.959 55,202.5C 52.9142,207.763 49.9142,212.43 46,216.5C 44.4086,218.927 43.5752,221.593 43.5,224.5C 42.3634,225.789 41.0301,226.789 39.5,227.5C 36.4282,216.065 34.7615,204.398 34.5,192.5C 33.8383,145.821 34.505,99.488 36.5,53.5C 44.8323,56.9949 53.499,59.3282 62.5,60.5C 68.0044,62.1454 73.671,63.4787 79.5,64.5C 95.0051,65.8265 110.672,65.8265 126.5,64.5C 130.842,63.7029 135.176,62.8695 139.5,62C 144.75,59.0788 150.417,57.5788 156.5,57.5C 156.5,56.5 156.5,55.5 156.5,54.5C 159.346,54.4484 161.68,53.4484 163.5,51.5C 165.156,50.8535 166.823,50.1869 168.5,49.5C 184.485,57.5826 201.485,62.4159 219.5,64C 234.516,64.71 249.516,64.5433 264.5,63.5 Z"/></g>
<g><path style="opacity:1" fill="#158d47" d="M 180.5,163.5 C 178.615,168.488 176.948,173.488 175.5,178.5C 172.908,180.827 170.908,183.661 169.5,187C 149.494,187.57 129.494,187.403 109.5,186.5C 109.055,183.635 109.722,181.135 111.5,179C 116.684,178.826 121.684,178.326 126.5,177.5C 129.843,176.776 133.176,175.943 136.5,175C 139.243,172.962 142.243,171.462 145.5,170.5C 145.5,171.5 145.5,172.5 145.5,173.5C 141.931,173.951 138.931,175.451 136.5,178C 131.566,179.16 126.566,179.66 121.5,179.5C 121.5,180.5 121.5,181.5 121.5,182.5C 119.266,182.62 117.099,182.287 115,181.5C 113.72,181.613 112.887,182.28 112.5,183.5C 123.128,184.753 133.795,185.419 144.5,185.5C 149.915,185.471 155.082,184.805 160,183.5C 162.497,185.478 165.331,185.978 168.5,185C 171.855,179.102 174.688,172.936 177,166.5C 178.039,165.29 179.206,164.29 180.5,163.5 Z"/></g>
<g><path style="opacity:1" fill="#105430" d="M 239.5,152.5 C 242.308,154.323 244.975,156.323 247.5,158.5C 246.391,158.443 245.391,158.11 244.5,157.5C 243.054,156.387 241.387,156.22 239.5,157C 237.667,158.833 235.833,160.667 234,162.5C 233.391,167.861 233.558,173.195 234.5,178.5C 233.167,178.5 231.833,178.5 230.5,178.5C 230.674,176.139 231.007,173.806 231.5,171.5C 219.5,170.833 219.5,170.167 231.5,169.5C 230.171,163.933 232.004,159.933 237,157.5C 238.438,156.1 239.271,154.433 239.5,152.5 Z"/></g>
<g><path style="opacity:1" fill="#1e6441" d="M 91.5,164.5 C 97.0233,163.673 98.6899,165.673 96.5,170.5C 96.9899,168.052 96.1566,166.385 94,165.5C 89.8255,168.002 87.8255,171.668 88,176.5C 89.3561,177.38 90.8561,177.714 92.5,177.5C 89.351,179.229 87.0176,178.395 85.5,175C 86.9118,171.106 88.9118,167.606 91.5,164.5 Z"/></g>
<g><path style="opacity:1" fill="#10763c" d="M 242.5,165.5 C 243.5,165.5 244.5,165.5 245.5,165.5C 245.828,170.875 245.495,176.208 244.5,181.5C 243.914,181.291 243.414,180.957 243,180.5C 242.501,175.511 242.334,170.511 242.5,165.5 Z"/></g>
<g><path style="opacity:1" fill="#168644" d="M 194.5,157.5 C 193.942,162.516 193.275,167.516 192.5,172.5C 193.675,172.281 194.675,172.614 195.5,173.5C 193.954,174.684 192.287,175.684 190.5,176.5C 188.535,179.438 186.869,182.438 185.5,185.5C 186.013,181.447 186.846,177.447 188,173.5C 189.897,167.958 192.063,162.624 194.5,157.5 Z"/></g>
<g><path style="opacity:1" fill="#197240" d="M 81.5,160.5 C 83.3198,162.129 84.6531,164.129 85.5,166.5C 84.3489,168.325 83.6822,170.325 83.5,172.5C 80.8333,172.5 78.1667,172.5 75.5,172.5C 75.6495,173.552 75.4828,174.552 75,175.5C 72.6755,177.501 70.8421,179.834 69.5,182.5C 69.5861,180.323 70.2528,178.323 71.5,176.5C 73.6374,175.262 74.9707,173.429 75.5,171C 77.8473,170.666 80.1806,170.833 82.5,171.5C 82.4476,167.802 82.1143,164.135 81.5,160.5 Z"/></g>
<g><path style="opacity:1" fill="#106f3a" d="M 287.5,159.5 C 289.463,166.424 290.13,173.757 289.5,181.5C 288.5,181.5 287.5,181.5 286.5,181.5C 286.203,174.08 286.536,166.746 287.5,159.5 Z"/></g>
<g><path style="opacity:1" fill="#0e9943" d="M 96.5,170.5 C 94.412,172.336 93.0787,174.669 92.5,177.5C 90.8561,177.714 89.3561,177.38 88,176.5C 87.8255,171.668 89.8255,168.002 94,165.5C 96.1566,166.385 96.9899,168.052 96.5,170.5 Z"/></g>
<g><path style="opacity:1" fill="#0a5b2d" d="M 208.5,166.5 C 210.048,165.206 212.048,164.539 214.5,164.5C 216.5,164.833 218.5,165.167 220.5,165.5C 216.555,166.491 212.555,166.824 208.5,166.5 Z"/></g>
<g><path style="opacity:1" fill="#175f39" d="M 277.5,111.5 C 278.117,111.611 278.617,111.944 279,112.5C 279.499,116.821 279.666,121.154 279.5,125.5C 282.187,125.664 284.854,125.497 287.5,125C 290.081,121.947 291.915,118.447 293,114.5C 295.48,112.91 297.313,113.41 298.5,116C 296.885,117.637 295.551,119.471 294.5,121.5C 295.223,123.782 295.557,126.116 295.5,128.5C 293.248,127.667 291.081,127.667 289,128.5C 287.947,133.091 287.114,137.758 286.5,142.5C 285.511,138.893 285.177,135.226 285.5,131.5C 283.5,131.5 281.5,131.5 279.5,131.5C 279.5,134.833 279.5,138.167 279.5,141.5C 278.207,146.413 278.874,151.079 281.5,155.5C 279.412,156.489 277.412,156.156 275.5,154.5C 274.526,156.743 274.192,159.076 274.5,161.5C 278.5,162.167 278.5,162.833 274.5,163.5C 274.5,166.5 274.5,169.5 274.5,172.5C 273.5,172.5 272.5,172.5 271.5,172.5C 271.5,170.833 271.5,169.167 271.5,167.5C 264.833,167.167 264.833,166.833 271.5,166.5C 271.5,165.167 271.5,163.833 271.5,162.5C 270.5,162.5 269.5,162.5 268.5,162.5C 268.5,161.167 268.5,159.833 268.5,158.5C 265.214,159.743 261.88,161.077 258.5,162.5C 257.005,186.473 255.838,186.473 255,162.5C 251.995,161.973 249.495,160.64 247.5,158.5C 251.747,159.85 256.08,160.35 260.5,160C 263.215,158.092 266.215,156.759 269.5,156C 272.087,153.919 274.087,151.419 275.5,148.5C 277.22,146.342 278.053,143.675 278,140.5C 278.782,130.786 278.615,121.12 277.5,111.5 Z"/></g>
<g><path style="opacity:1" fill="#253136" d="M 275.5,148.5 C 274.087,151.419 272.087,153.919 269.5,156C 266.215,156.759 263.215,158.092 260.5,160C 256.08,160.35 251.747,159.85 247.5,158.5C 244.975,156.323 242.308,154.323 239.5,152.5C 237.562,150.806 237.229,148.806 238.5,146.5C 241.317,148.817 243.984,151.317 246.5,154C 248.441,155.903 250.774,156.736 253.5,156.5C 256.122,158.008 258.455,157.508 260.5,155C 262.134,154.506 263.801,154.34 265.5,154.5C 269.434,152.402 272.6,149.402 275,145.5C 275.483,146.448 275.649,147.448 275.5,148.5 Z"/></g>
<g><path style="opacity:1" fill="#34383f" d="M 131.5,91.5 C 133.927,91.523 136.26,92.023 138.5,93C 144.953,98.285 150.953,104.118 156.5,110.5C 157.808,115.868 159.308,121.201 161,126.5C 161.499,132.157 161.666,137.824 161.5,143.5C 159.997,147.341 158.664,151.341 157.5,155.5C 153.502,160.455 149.502,165.455 145.5,170.5C 142.243,171.462 139.243,172.962 136.5,175C 133.176,175.943 129.843,176.776 126.5,177.5C 120.618,177.232 114.785,177.566 109,178.5C 106.018,174.953 102.352,173.62 98,174.5C 98.3685,171.21 98.3685,167.877 98,164.5C 95.7265,163.189 93.5598,163.189 91.5,164.5C 87.9099,163.372 84.5766,161.705 81.5,159.5C 79.3218,157.142 77.6551,154.475 76.5,151.5C 76.9383,148.107 76.1049,145.107 74,142.5C 73.5006,136.843 73.3339,131.176 73.5,125.5C 73.5,125.167 73.5,124.833 73.5,124.5C 75.7183,121.281 76.885,117.614 77,113.5C 80.7529,110.167 83.9195,106.334 86.5,102C 90.2355,99.1467 93.9021,96.3133 97.5,93.5C 98.1667,93.5 98.8333,93.5 99.5,93.5C 108.651,91.1758 117.985,90.0091 127.5,90C 128.314,85.5728 129.814,81.4061 132,77.5C 132.262,81.2339 131.762,84.9006 130.5,88.5C 130.52,89.7261 130.853,90.7261 131.5,91.5 Z"/></g>
<g><path style="opacity:1" fill="#177e45" d="M 162.5,125.5 C 163.654,131.987 163.821,138.654 163,145.5C 162.173,149.468 160.339,152.801 157.5,155.5C 158.664,151.341 159.997,147.341 161.5,143.5C 162.49,137.69 162.823,131.69 162.5,125.5 Z"/></g>
<g><path style="opacity:1" fill="#175636" d="M 240.5,113.5 C 240.167,114.167 239.833,114.833 239.5,115.5C 238.167,124.833 238.167,134.167 239.5,143.5C 242.878,149.211 247.545,153.545 253.5,156.5C 250.774,156.736 248.441,155.903 246.5,154C 243.984,151.317 241.317,148.817 238.5,146.5C 237.229,148.806 237.562,150.806 239.5,152.5C 236.925,153.728 234.592,155.395 232.5,157.5C 232.167,157 231.833,156.5 231.5,156C 232.966,153.784 234.633,151.784 236.5,150C 235.061,147.295 234.061,144.462 233.5,141.5C 231.5,141.5 229.5,141.5 227.5,141.5C 227.5,140.167 227.5,138.833 227.5,137.5C 225.076,137.192 222.743,137.526 220.5,138.5C 219.198,146.386 218.532,146.386 218.5,138.5C 216.167,138.5 213.833,138.5 211.5,138.5C 211.5,137.167 211.5,135.833 211.5,134.5C 218.799,135.35 226.132,135.683 233.5,135.5C 233.249,139.331 234.416,142.664 237,145.5C 237.333,135.167 237.667,124.833 238,114.5C 238.671,113.748 239.504,113.414 240.5,113.5 Z"/></g>
<g><path style="opacity:1" fill="#19623c" d="M 73.5,125.5 C 73.3339,131.176 73.5006,136.843 74,142.5C 76.1049,145.107 76.9383,148.107 76.5,151.5C 75.1092,149.04 73.9425,146.374 73,143.5C 72.1808,137.319 72.3475,131.319 73.5,125.5 Z"/></g>
<g><path style="opacity:1" fill="#abafb2" d="M 179.5,185.5 C 179.869,183.007 179.203,182.34 177.5,183.5C 181.915,173.849 185.415,163.849 188,153.5C 190.825,137.272 192.825,120.939 194,104.5C 195.187,132.723 190.353,159.723 179.5,185.5 Z"/></g>
<g><path style="opacity:1" fill="#676e6c" d="M 157.5,140.5 C 157.768,142.099 157.434,143.432 156.5,144.5C 137.517,142.84 118.184,141.84 98.5,141.5C 118.155,140.5 137.822,140.167 157.5,140.5 Z"/></g>
<g><path style="opacity:1" fill="#195237" d="M 156.5,110.5 C 158.268,112.922 159.768,115.588 161,118.5C 161.977,120.74 162.477,123.073 162.5,125.5C 162.823,131.69 162.49,137.69 161.5,143.5C 161.666,137.824 161.499,132.157 161,126.5C 159.308,121.201 157.808,115.868 156.5,110.5 Z"/></g>
<g><path style="opacity:1" fill="#929597" d="M 157.5,128.5 C 158.461,130.265 158.795,132.265 158.5,134.5C 139.326,134.17 120.326,134.503 101.5,135.5C 100.957,135.44 100.624,135.107 100.5,134.5C 119.488,133.5 138.488,133.167 157.5,133.5C 157.5,131.833 157.5,130.167 157.5,128.5 Z"/></g>
<g><path style="opacity:1" fill="#575b5e" d="M 157.5,126.5 C 157.5,127.167 157.5,127.833 157.5,128.5C 139.144,128.826 120.81,128.826 102.5,128.5C 120.81,127.191 139.143,126.525 157.5,126.5 Z"/></g>
<g><path style="opacity:1" fill="#148041" d="M 222.5,101.5 C 224.352,108.947 225.019,116.613 224.5,124.5C 227.5,124.5 230.5,124.5 233.5,124.5C 233.5,127.833 233.5,131.167 233.5,134.5C 233.5,134.833 233.5,135.167 233.5,135.5C 226.132,135.683 218.799,135.35 211.5,134.5C 210.993,133.141 209.993,132.141 208.5,131.5C 208.709,130.914 209.043,130.414 209.5,130C 213.486,129.501 217.486,129.334 221.5,129.5C 221.5,130.5 221.5,131.5 221.5,132.5C 219.712,132.215 218.045,132.548 216.5,133.5C 221.792,134.495 227.125,134.828 232.5,134.5C 232.5,131.5 232.5,128.5 232.5,125.5C 229.223,125.784 226.057,125.451 223,124.5C 222.74,117.643 222.24,110.809 221.5,104C 221.528,102.93 221.861,102.097 222.5,101.5 Z"/></g>
<g><path style="opacity:1" fill="#e6e3e2" d="M 96.5,99.5 C 97.6935,99.9704 98.3601,100.97 98.5,102.5C 96.4755,114.931 93.9755,127.264 91,139.5C 89.4125,144.855 87.0791,149.855 84,154.5C 72.3762,132.545 76.5428,114.212 96.5,99.5 Z"/></g>
<g><path style="opacity:1" fill="#197d45" d="M 193.5,97.5 C 195.833,97.5 198.167,97.5 200.5,97.5C 200.666,107.839 200.5,118.172 200,128.5C 199.892,132.465 199.059,136.132 197.5,139.5C 197.5,135.5 197.5,131.5 197.5,127.5C 198.658,118.343 198.824,109.009 198,99.5C 196.378,98.9011 194.878,98.2344 193.5,97.5 Z"/></g>
<g><path style="opacity:1" fill="#606467" d="M 154.5,118.5 C 154.833,119.167 155.167,119.833 155.5,120.5C 138.811,120.876 122.144,120.876 105.5,120.5C 121.798,119.001 138.131,118.335 154.5,118.5 Z"/></g>
<g><path style="opacity:1" fill="#0e9644" d="M 263.5,109.5 C 267.121,110.876 270.621,112.542 274,114.5C 274.667,123.833 274.667,133.167 274,142.5C 272.142,147.191 269.309,151.191 265.5,154.5C 263.801,154.34 262.134,154.506 260.5,155C 258.455,157.508 256.122,158.008 253.5,156.5C 247.545,153.545 242.878,149.211 239.5,143.5C 239.338,141.473 239.505,139.473 240,137.5C 240.72,139.056 241.887,140.056 243.5,140.5C 244.5,141.833 245.5,143.167 246.5,144.5C 252.796,148.494 259.129,148.494 265.5,144.5C 267.167,143.5 268.5,142.167 269.5,140.5C 271.067,139.319 271.901,137.653 272,135.5C 273.814,128.77 271.98,123.436 266.5,119.5C 265.251,117.864 263.584,116.697 261.5,116C 257.642,115.19 253.976,115.357 250.5,116.5C 248.973,116.427 247.973,117.094 247.5,118.5C 246.833,118.5 246.5,118.833 246.5,119.5C 243.572,120.591 241.406,122.591 240,125.5C 239.502,122.183 239.335,118.85 239.5,115.5C 239.833,114.833 240.167,114.167 240.5,113.5C 244.069,111.917 247.735,110.417 251.5,109C 255.537,108.393 259.537,108.56 263.5,109.5 Z"/></g>
<g><path style="opacity:1" fill="#146239" d="M 265.5,144.5 C 259.129,148.494 252.796,148.494 246.5,144.5C 248.176,143.817 248.843,142.483 248.5,140.5C 253.638,140.63 258.638,140.296 263.5,139.5C 264.17,141.291 264.837,142.958 265.5,144.5 Z"/></g>
<g><path style="opacity:1" fill="#136237" d="M 238.5,109.5 C 237.685,110.837 236.518,111.837 235,112.5C 234.829,120.011 234.329,127.345 233.5,134.5C 233.5,131.167 233.5,127.833 233.5,124.5C 230.5,124.5 227.5,124.5 224.5,124.5C 225.019,116.613 224.352,108.947 222.5,101.5C 223.568,100.566 224.901,100.232 226.5,100.5C 226.17,106.868 226.504,113.202 227.5,119.5C 229.071,118.691 230.738,118.357 232.5,118.5C 231.476,113.313 233.476,110.313 238.5,109.5 Z"/></g>
<g><path style="opacity:1" fill="#188044" d="M 167.5,84.5 C 171.179,84.7244 174.846,85.0578 178.5,85.5C 181.777,85.2161 184.943,85.5495 188,86.5C 188.667,96.1667 188.667,105.833 188,115.5C 186.896,124.146 186.062,132.813 185.5,141.5C 185.494,149.074 183.828,156.074 180.5,162.5C 183.442,149.462 185.276,136.129 186,122.5C 186.667,111.5 186.667,100.5 186,89.5C 179.724,87.8844 173.558,86.2178 167.5,84.5 Z"/></g>
<g><path style="opacity:1" fill="#203b34" d="M 249.5,104.5 C 252.096,103.735 254.763,103.401 257.5,103.5C 260.763,104.482 264.097,105.149 267.5,105.5C 270.827,107.448 274.16,109.448 277.5,111.5C 278.615,121.12 278.782,130.786 278,140.5C 278.053,143.675 277.22,146.342 275.5,148.5C 275.649,147.448 275.483,146.448 275,145.5C 272.6,149.402 269.434,152.402 265.5,154.5C 269.309,151.191 272.142,147.191 274,142.5C 274.667,133.167 274.667,123.833 274,114.5C 270.621,112.542 267.121,110.876 263.5,109.5C 256.428,106.615 249.428,107.115 242.5,111C 241.619,111.708 240.953,112.542 240.5,113.5C 239.504,113.414 238.671,113.748 238,114.5C 237.667,124.833 237.333,135.167 237,145.5C 234.416,142.664 233.249,139.331 233.5,135.5C 233.5,135.167 233.5,134.833 233.5,134.5C 234.329,127.345 234.829,120.011 235,112.5C 236.518,111.837 237.685,110.837 238.5,109.5C 240.697,107.666 242.363,105.332 243.5,102.5C 244.386,103.325 244.719,104.325 244.5,105.5C 246.216,105.371 247.883,105.038 249.5,104.5 Z"/></g>
<g><path style="opacity:1" fill="#184833" d="M 269.5,140.5 C 268.5,142.167 267.167,143.5 265.5,144.5C 264.837,142.958 264.17,141.291 263.5,139.5C 258.638,140.296 253.638,140.63 248.5,140.5C 248.843,142.483 248.176,143.817 246.5,144.5C 245.5,143.167 244.5,141.833 243.5,140.5C 243.5,139.5 243.5,138.5 243.5,137.5C 251.576,138.091 259.409,138.091 267,137.5C 268.749,137.748 269.582,138.748 269.5,140.5 Z"/></g>
<g><path style="opacity:1" fill="#15713e" d="M 239.5,115.5 C 239.335,118.85 239.502,122.183 240,125.5C 241.406,122.591 243.572,120.591 246.5,119.5C 245.524,120.815 244.524,122.148 243.5,123.5C 245.743,124.474 248.076,124.808 250.5,124.5C 251.575,128.923 249.908,130.923 245.5,130.5C 243.68,130.351 242.18,129.684 241,128.5C 240.51,129.793 240.343,131.127 240.5,132.5C 250.855,132.832 261.188,132.499 271.5,131.5C 268.893,130.682 266.226,130.182 263.5,130C 262.594,128.301 262.261,126.467 262.5,124.5C 268.3,126.367 269.634,124.701 266.5,119.5C 271.98,123.436 273.814,128.77 272,135.5C 271.901,137.653 271.067,139.319 269.5,140.5C 269.582,138.748 268.749,137.748 267,137.5C 259.409,138.091 251.576,138.091 243.5,137.5C 243.5,138.5 243.5,139.5 243.5,140.5C 241.887,140.056 240.72,139.056 240,137.5C 239.505,139.473 239.338,141.473 239.5,143.5C 238.167,134.167 238.167,124.833 239.5,115.5 Z"/></g>
<g><path style="opacity:1" fill="#164e33" d="M 266.5,119.5 C 269.634,124.701 268.3,126.367 262.5,124.5C 262.261,126.467 262.594,128.301 263.5,130C 266.226,130.182 268.893,130.682 271.5,131.5C 261.188,132.499 250.855,132.832 240.5,132.5C 240.343,131.127 240.51,129.793 241,128.5C 242.18,129.684 243.68,130.351 245.5,130.5C 249.908,130.923 251.575,128.923 250.5,124.5C 248.076,124.808 245.743,124.474 243.5,123.5C 244.524,122.148 245.524,120.815 246.5,119.5C 246.5,118.833 246.833,118.5 247.5,118.5C 248.451,119.919 248.784,121.585 248.5,123.5C 249.978,123.238 251.311,123.571 252.5,124.5C 251.652,126.409 251.318,128.409 251.5,130.5C 254.833,130.5 258.167,130.5 261.5,130.5C 261.838,127.843 261.171,125.51 259.5,123.5C 261.167,122.833 262.833,122.167 264.5,121.5C 262.877,119.105 260.544,117.772 257.5,117.5C 256.033,117.723 254.533,118.056 253,118.5C 252.005,117.934 251.172,117.267 250.5,116.5C 253.976,115.357 257.642,115.19 261.5,116C 263.584,116.697 265.251,117.864 266.5,119.5 Z"/></g>
<g><path style="opacity:1" fill="#176a3e" d="M 250.5,116.5 C 251.172,117.267 252.005,117.934 253,118.5C 254.533,118.056 256.033,117.723 257.5,117.5C 260.544,117.772 262.877,119.105 264.5,121.5C 262.833,122.167 261.167,122.833 259.5,123.5C 261.171,125.51 261.838,127.843 261.5,130.5C 258.167,130.5 254.833,130.5 251.5,130.5C 251.318,128.409 251.652,126.409 252.5,124.5C 251.311,123.571 249.978,123.238 248.5,123.5C 248.784,121.585 248.451,119.919 247.5,118.5C 247.973,117.094 248.973,116.427 250.5,116.5 Z"/></g>
<g><path style="opacity:1" fill="#19673f" d="M 263.5,109.5 C 259.537,108.56 255.537,108.393 251.5,109C 247.735,110.417 244.069,111.917 240.5,113.5C 240.953,112.542 241.619,111.708 242.5,111C 249.428,107.115 256.428,106.615 263.5,109.5 Z"/></g>
<g><path style="opacity:1" fill="#186a3e" d="M 97.5,93.5 C 93.9021,96.3133 90.2355,99.1467 86.5,102C 83.9195,106.334 80.7529,110.167 77,113.5C 76.885,117.614 75.7183,121.281 73.5,124.5C 74.0127,120.447 74.846,116.447 76,112.5C 80.4946,107.006 85.328,101.839 90.5,97C 92.8864,95.8068 95.2198,94.6401 97.5,93.5 Z"/></g>
<g><path style="opacity:1" fill="#e4e3e2" d="M 154.5,118.5 C 138.131,118.335 121.798,119.001 105.5,120.5C 122.144,120.876 138.811,120.876 155.5,120.5C 156.458,122.302 157.125,124.302 157.5,126.5C 139.143,126.525 120.81,127.191 102.5,128.5C 120.81,128.826 139.144,128.826 157.5,128.5C 157.5,130.167 157.5,131.833 157.5,133.5C 138.488,133.167 119.488,133.5 100.5,134.5C 100.624,135.107 100.957,135.44 101.5,135.5C 120.167,135.5 138.833,135.5 157.5,135.5C 157.5,137.167 157.5,138.833 157.5,140.5C 137.822,140.167 118.155,140.5 98.5,141.5C 118.184,141.84 137.517,142.84 156.5,144.5C 149.862,163.625 136.362,173.291 116,173.5C 111.337,173.632 106.837,172.965 102.5,171.5C 103.602,164.771 100.769,161.104 94,160.5C 91.813,160.788 89.6463,161.122 87.5,161.5C 92.1505,149.382 96.3172,137.049 100,124.5C 101.358,114.738 103.191,105.071 105.5,95.5C 123.028,91.5905 137.861,96.2571 150,109.5C 152.038,112.243 153.538,115.243 154.5,118.5 Z"/></g>
<g><path style="opacity:1" fill="#606160" d="M 136.5,145.5 C 137.978,145.238 139.311,145.571 140.5,146.5C 139.833,146.833 139.167,147.167 138.5,147.5C 137.287,147.253 136.62,146.586 136.5,145.5 Z"/></g>
<g><path style="opacity:1" fill="#5a5d5c" d="M 105.5,114.5 C 108.898,114.18 112.232,114.513 115.5,115.5C 113.833,115.833 112.167,116.167 110.5,116.5C 108.36,116.444 106.694,115.777 105.5,114.5 Z"/></g>
<g><path style="opacity:1" fill="#0c6234" d="M 257.5,103.5 C 254.763,103.401 252.096,103.735 249.5,104.5C 250.072,103.027 250.905,101.693 252,100.5C 252.71,101.973 253.876,102.64 255.5,102.5C 255.665,98.8183 255.499,95.1516 255,91.5C 253.649,89.981 252.149,88.6477 250.5,87.5C 251.365,86.4173 252.365,86.2506 253.5,87C 254.667,88.1667 255.833,89.3333 257,90.5C 257.499,94.8206 257.666,99.1539 257.5,103.5 Z"/></g>
<g><path style="opacity:1" fill="#0c6f38" d="M 287.5,86.5 C 288.5,86.5 289.5,86.5 290.5,86.5C 290.829,92.2055 290.495,97.8722 289.5,103.5C 288.914,103.291 288.414,102.957 288,102.5C 287.501,97.1771 287.334,91.8437 287.5,86.5 Z"/></g>
<g><path style="opacity:1" fill="#0e6635" d="M 277.5,111.5 C 274.16,109.448 270.827,107.448 267.5,105.5C 267.335,102.15 267.502,98.8168 268,95.5C 272.1,92.4047 275.934,88.9047 279.5,85C 280.483,84.4092 281.15,84.7425 281.5,86C 277.688,89.8116 273.855,93.6449 270,97.5C 269.506,99.1341 269.34,100.801 269.5,102.5C 270.833,102.5 272.167,102.5 273.5,102.5C 273.34,104.199 273.506,105.866 274,107.5C 275.72,108.384 276.886,109.717 277.5,111.5 Z"/></g>
<g><path style="opacity:1" fill="#168746" d="M 129.5,74.5 C 128.595,79.4944 127.595,84.4944 126.5,89.5C 117.689,89.0274 109.022,89.8607 100.5,92C 99.944,92.3826 99.6107,92.8826 99.5,93.5C 98.8333,93.5 98.1667,93.5 97.5,93.5C 97.9528,92.5416 98.6195,91.7083 99.5,91C 107.86,87.8679 116.527,86.7013 125.5,87.5C 126.108,83.5276 126.608,79.5276 127,75.5C 127.671,74.7476 128.504,74.4142 129.5,74.5 Z"/></g>
<g><path style="opacity:1" fill="#223835" d="M 129.5,74.5 C 142.723,76.7216 156.056,78.3882 169.5,79.5C 176.997,80.8388 184.664,82.0054 192.5,83C 193.469,87.7367 193.803,92.57 193.5,97.5C 194.878,98.2344 196.378,98.9011 198,99.5C 198.824,109.009 198.658,118.343 197.5,127.5C 197.5,118.5 197.5,109.5 197.5,100.5C 195.179,100.771 193.179,100.104 191.5,98.5C 190.311,101.298 190.644,103.964 192.5,106.5C 190.101,118.279 187.768,129.945 185.5,141.5C 186.062,132.813 186.896,124.146 188,115.5C 188.667,105.833 188.667,96.1667 188,86.5C 184.943,85.5495 181.777,85.2161 178.5,85.5C 166.39,83.1997 154.057,81.533 141.5,80.5C 138.833,80.5 136.167,80.5 133.5,80.5C 132.537,84.1007 131.87,87.7674 131.5,91.5C 130.853,90.7261 130.52,89.7261 130.5,88.5C 131.762,84.9006 132.262,81.2339 132,77.5C 129.814,81.4061 128.314,85.5728 127.5,90C 117.985,90.0091 108.651,91.1758 99.5,93.5C 99.6107,92.8826 99.944,92.3826 100.5,92C 109.022,89.8607 117.689,89.0274 126.5,89.5C 127.595,84.4944 128.595,79.4944 129.5,74.5 Z"/></g>
<g><path style="opacity:1" fill="#059e41" d="M 141.5,80.5 C 149.937,82.4687 158.604,83.802 167.5,84.5C 173.558,86.2178 179.724,87.8844 186,89.5C 186.667,100.5 186.667,111.5 186,122.5C 185.276,136.129 183.442,149.462 180.5,162.5C 180.5,162.833 180.5,163.167 180.5,163.5C 179.206,164.29 178.039,165.29 177,166.5C 174.688,172.936 171.855,179.102 168.5,185C 165.331,185.978 162.497,185.478 160,183.5C 155.082,184.805 149.915,185.471 144.5,185.5C 133.795,185.419 123.128,184.753 112.5,183.5C 112.887,182.28 113.72,181.613 115,181.5C 117.099,182.287 119.266,182.62 121.5,182.5C 121.5,181.5 121.5,180.5 121.5,179.5C 126.566,179.66 131.566,179.16 136.5,178C 138.931,175.451 141.931,173.951 145.5,173.5C 145.5,172.5 145.5,171.5 145.5,170.5C 149.502,165.455 153.502,160.455 157.5,155.5C 160.339,152.801 162.173,149.468 163,145.5C 163.821,138.654 163.654,131.987 162.5,125.5C 162.477,123.073 161.977,120.74 161,118.5C 159.768,115.588 158.268,112.922 156.5,110.5C 150.953,104.118 144.953,98.285 138.5,93C 136.26,92.023 133.927,91.523 131.5,91.5C 131.87,87.7674 132.537,84.1007 133.5,80.5C 136.167,80.5 138.833,80.5 141.5,80.5 Z"/></g>
<g><path style="opacity:1" fill="#1a4935" d="M 141.5,80.5 C 154.057,81.533 166.39,83.1997 178.5,85.5C 174.846,85.0578 171.179,84.7244 167.5,84.5C 158.604,83.802 149.937,82.4687 141.5,80.5 Z"/></g>
<g><path style="opacity:1" fill="#168845" d="M 129.5,74.5 C 130.793,73.8418 132.293,73.5085 134,73.5C 141.439,74.8416 148.939,75.6749 156.5,76C 160.989,77.0703 165.322,78.237 169.5,79.5C 156.056,78.3882 142.723,76.7216 129.5,74.5 Z"/></g>
<g><path style="opacity:1" fill="#caf0d8" d="M 62.5,60.5 C 77.7798,62.2946 93.1131,63.2946 108.5,63.5C 99.0144,64.4938 89.3478,64.8271 79.5,64.5C 73.671,63.4787 68.0044,62.1454 62.5,60.5 Z"/></g>
<g><path style="opacity:1" fill="#d5f5e2" d="M 122.5,42.5 C 120.036,43.7432 117.37,44.7432 114.5,45.5C 99.5418,47.2604 84.5418,47.7604 69.5,47C 64.56,46.3171 59.8934,45.1504 55.5,43.5C 73.3176,46.0297 90.9843,46.0297 108.5,43.5C 113.193,43.4599 117.859,43.1266 122.5,42.5 Z"/></g>
<g><path style="opacity:1" fill="#baedcf" d="M 223.5,44.5 C 236.485,45.2696 249.485,45.6029 262.5,45.5C 257.511,46.166 252.344,46.4994 247,46.5C 238.944,46.6621 231.111,45.9954 223.5,44.5 Z"/></g>
<g><path style="opacity:1" fill="#319f58" d="M 285.5,41.5 C 278.2,43.0498 270.867,44.3832 263.5,45.5C 263.167,45.5 262.833,45.5 262.5,45.5C 249.485,45.6029 236.485,45.2696 223.5,44.5C 219.575,44.5701 215.909,43.9034 212.5,42.5C 225.164,42.8332 237.831,43.1665 250.5,43.5C 262.183,42.9378 273.85,42.2711 285.5,41.5 Z"/></g>
<g><path style="opacity:1" fill="#289d53" d="M 28.5,36.5 C 42.8454,38.5128 57.1787,40.6795 71.5,43C 83.8288,43.4999 96.1622,43.6665 108.5,43.5C 90.9843,46.0297 73.3176,46.0297 55.5,43.5C 46.1507,42.037 37.1507,39.7037 28.5,36.5 Z"/></g>
<g><path style="opacity:1" fill="#cef1dc" d="M 310.5,36.5 C 308.622,37.2076 306.955,38.3743 305.5,40C 291.743,43.8679 277.743,45.7012 263.5,45.5C 270.867,44.3832 278.2,43.0498 285.5,41.5C 294.057,40.6075 302.39,38.9409 310.5,36.5 Z"/></g>
<g><path style="opacity:1" fill="#defbea" d="M 318.5,33.5 C 320.496,85.8228 321.162,138.489 320.5,191.5C 319.771,202.127 318.104,212.46 315.5,222.5C 316.761,212.868 317.927,203.201 319,193.5C 319.5,140.501 319.667,87.501 319.5,34.5C 316.402,34.7556 313.402,35.4222 310.5,36.5C 312.617,34.3455 315.284,33.3455 318.5,33.5 Z"/></g>
<g><path style="opacity:1" fill="#05290e" d="M 219.5,252.5 C 220.209,251.596 221.209,251.263 222.5,251.5C 222.831,277.005 222.498,302.339 221.5,327.5C 222.157,302.144 221.491,277.144 219.5,252.5 Z"/></g>
<g><path style="opacity:1" fill="#002b0b" d="M 200.5,278.5 C 201.209,277.596 202.209,277.263 203.5,277.5C 203.333,294.837 203.5,312.17 204,329.5C 210.744,330.479 217.578,330.812 224.5,330.5C 217.265,331.811 209.932,331.811 202.5,330.5C 203.153,312.801 202.486,295.468 200.5,278.5 Z"/></g>
<g><path style="opacity:1" fill="#a5e0bc" d="M 76.5,301.5 C 80.2343,304.231 83.2343,307.564 85.5,311.5C 81.7657,308.769 78.7657,305.436 76.5,301.5 Z"/></g>
<g><path style="opacity:1" fill="#a8e3be" d="M 257.5,304.5 C 254.23,309.44 250.23,313.773 245.5,317.5C 248.77,312.56 252.77,308.227 257.5,304.5 Z"/></g>
<g><path style="opacity:0.325" fill="#abe3c2" d="M 320.5,258.5 C 308.832,290.46 290.832,318.126 266.5,341.5C 277.191,328.967 287.358,315.967 297,302.5C 304.742,289.683 311.409,276.35 317,262.5C 317.949,260.907 319.115,259.574 320.5,258.5 Z"/></g>
<g><path style="opacity:1" fill="#031605" d="M 188.5,286.5 C 186.706,288.797 184.706,290.963 182.5,293C 183.252,293.671 183.586,294.504 183.5,295.5C 181.203,297.294 179.037,299.294 177,301.5C 176.5,310.16 176.334,318.827 176.5,327.5C 181.5,327.5 186.5,327.5 191.5,327.5C 191.5,314.833 191.5,302.167 191.5,289.5C 192.331,301.66 192.831,313.993 193,326.5C 193.21,328.058 193.71,329.391 194.5,330.5C 187.5,331.833 180.5,331.833 173.5,330.5C 173.5,322.167 173.5,313.833 173.5,305.5C 171.067,305.273 169.401,306.273 168.5,308.5C 167.504,308.414 166.671,308.748 166,309.5C 165.829,316.679 165.329,323.679 164.5,330.5C 157.5,330.5 150.5,330.5 143.5,330.5C 142.769,325.927 143.769,321.927 146.5,318.5C 161.326,309.019 175.326,298.353 188.5,286.5 Z"/></g>
<g><path style="opacity:1" fill="#196333" d="M 158.5,315.5 C 159.209,314.596 160.209,314.263 161.5,314.5C 161.5,318.833 161.5,323.167 161.5,327.5C 156.5,327.5 151.5,327.5 146.5,327.5C 146.216,325.585 146.549,323.919 147.5,322.5C 147.5,323.833 147.5,325.167 147.5,326.5C 151.833,326.5 156.167,326.5 160.5,326.5C 161.08,322.351 160.414,318.684 158.5,315.5 Z"/></g>
<g><path style="opacity:1" fill="#119041" d="M 158.5,315.5 C 160.414,318.684 161.08,322.351 160.5,326.5C 156.167,326.5 151.833,326.5 147.5,326.5C 147.5,325.167 147.5,323.833 147.5,322.5C 150.894,319.779 154.561,317.446 158.5,315.5 Z"/></g>
<g><path style="opacity:1" fill="#0c411b" d="M 173.5,330.5 C 172.671,322.677 172.171,314.677 172,306.5C 171.184,307.823 170.017,308.489 168.5,308.5C 169.401,306.273 171.067,305.273 173.5,305.5C 173.5,313.833 173.5,322.167 173.5,330.5 Z"/></g>
<g><path style="opacity:1" fill="#136b35" d="M 191.5,289.5 C 191.5,302.167 191.5,314.833 191.5,327.5C 186.5,327.5 181.5,327.5 176.5,327.5C 176.334,318.827 176.5,310.16 177,301.5C 179.037,299.294 181.203,297.294 183.5,295.5C 185.902,293.091 188.569,291.091 191.5,289.5 Z"/></g>
<g><path style="opacity:1" fill="#089d42" d="M 189.5,291.5 C 190.495,302.988 190.828,314.655 190.5,326.5C 186.167,326.5 181.833,326.5 177.5,326.5C 177.334,318.493 177.5,310.493 178,302.5C 181.812,298.702 185.645,295.035 189.5,291.5 Z"/></g>
<g><path style="opacity:0.239" fill="#c1edd2" d="M 11.5,244.5 C 12.1174,244.611 12.6174,244.944 13,245.5C 16.0775,254.644 19.4108,263.644 23,272.5C 28.3003,282.147 33.6336,291.813 39,301.5C 64.9379,342.005 100.105,371.005 144.5,388.5C 129.872,384.52 116.205,378.353 103.5,370C 57.7087,339.358 27.042,297.525 11.5,244.5 Z"/></g>
<g><path style="opacity:1" fill="#003813" d="M 146.5,318.5 C 143.769,321.927 142.769,325.927 143.5,330.5C 150.5,330.5 157.5,330.5 164.5,330.5C 157.352,331.492 150.019,331.825 142.5,331.5C 142.5,327.833 142.5,324.167 142.5,320.5C 143.605,319.4 144.938,318.733 146.5,318.5 Z"/></g>
<g><path style="opacity:1" fill="#69bc89" d="M 265.5,321.5 C 260.276,328.724 253.942,335.058 246.5,340.5C 252.425,333.908 258.758,327.575 265.5,321.5 Z"/></g>
<g><path style="opacity:0.318" fill="#a1dfb8" d="M 266.5,341.5 C 245.717,363.228 221.05,378.895 192.5,388.5C 206.717,381.723 220.717,374.39 234.5,366.5C 245.315,358.124 255.982,349.791 266.5,341.5 Z"/></g>
<g><path style="opacity:1" fill="#64ba83" d="M 195.5,372.5 C 195.389,373.117 195.056,373.617 194.5,374C 188.523,375.574 182.523,377.241 176.5,379C 169.433,380.193 162.767,379.36 156.5,376.5C 162.717,378.268 169.05,378.768 175.5,378C 182.087,375.85 188.754,374.016 195.5,372.5 Z"/></g>
<g><path style="opacity:0.443" fill="#9adab1" d="M 144.5,388.5 C 152.23,390.272 160.063,391.606 168,392.5C 176.136,390.924 184.303,389.59 192.5,388.5C 182.725,392.953 172.392,394.786 161.5,394C 155.56,392.607 149.894,390.774 144.5,388.5 Z"/></g>
</svg>
