<?xml version="1.0" encoding="UTF-8"?>
<!DOCTYPE svg PUBLIC "-//W3C//DTD SVG 1.1//EN" "http://www.w3.org/Graphics/SVG/1.1/DTD/svg11.dtd">
<svg xmlns="http://www.w3.org/2000/svg" version="1.1" width="1920px" height="1080px" style="shape-rendering:geometricPrecision; text-rendering:geometricPrecision; image-rendering:optimizeQuality; fill-rule:evenodd; clip-rule:evenodd" xmlns:xlink="http://www.w3.org/1999/xlink">
<g><path style="opacity:1" fill="#0c9f43" d="M 298.5,361.5 C 300.527,361.662 302.527,361.495 304.5,361C 311.103,358.19 317.77,355.69 324.5,353.5C 327.545,353.342 330.379,354.009 333,355.5C 333.5,415.499 333.667,475.499 333.5,535.5C 333.283,539.705 332.617,543.705 331.5,547.5C 329.539,551.053 328.206,555.053 327.5,559.5C 326.534,557.604 326.201,555.604 326.5,553.5C 324.023,553.949 322.023,553.283 320.5,551.5C 321.3,544.216 321.8,536.883 322,529.5C 322.832,475.998 322.665,422.665 321.5,369.5C 320.209,369.263 319.209,369.596 318.5,370.5C 315.284,370.345 312.617,371.345 310.5,373.5C 302.39,375.941 294.057,377.608 285.5,378.5C 273.85,379.271 262.183,379.938 250.5,380.5C 237.831,380.166 225.164,379.833 212.5,379.5C 204.44,377.981 196.44,376.148 188.5,374C 181.664,371.088 174.83,368.254 168,365.5C 153.469,372.065 138.302,376.732 122.5,379.5C 117.859,380.127 113.193,380.46 108.5,380.5C 96.1622,380.667 83.8288,380.5 71.5,380C 57.1787,377.68 42.8454,375.513 28.5,373.5C 25.3012,372.101 21.9679,371.101 18.5,370.5C 17.791,369.596 16.791,369.263 15.5,369.5C 14.8333,423.335 14.1667,477.335 13.5,531.5C 11.8333,531.5 10.1667,531.5 8.5,531.5C 7.52242,531.977 6.68909,532.643 6,533.5C 4.91559,530.166 4.08226,526.832 3.5,523.5C 3.33334,467.499 3.50001,411.499 4,355.5C 6.15293,353.556 8.65293,353.056 11.5,354C 20.093,358.728 29.093,362.395 38.5,365C 37.8333,365.333 37.1667,365.667 36.5,366C 44.1447,366.887 51.8114,367.387 59.5,367.5C 87.9428,370.495 115.943,368.328 143.5,361C 148.99,358.573 154.323,356.073 159.5,353.5C 162.754,352.521 166.087,351.854 169.5,351.5C 211.303,370.464 254.303,373.797 298.5,361.5 Z"/></g>
<g><path style="opacity:0.553" fill="#b6e8c8" d="M 334.5,354.5 C 332.676,352.863 330.509,351.863 328,351.5C 326.319,351.608 325.152,352.275 324.5,353.5C 317.77,355.69 311.103,358.19 304.5,361C 302.527,361.495 300.527,361.662 298.5,361.5C 306.855,358.318 315.188,354.818 323.5,351C 326.5,350.333 329.5,350.333 332.5,351C 333.823,351.816 334.489,352.983 334.5,354.5 Z"/></g>
<g><path style="opacity:0.598" fill="#b4e9c9" d="M 159.5,353.5 C 154.323,356.073 148.99,358.573 143.5,361C 115.943,368.328 87.9428,370.495 59.5,367.5C 50.4244,364.851 41.091,362.684 31.5,361C 26.7809,358.24 21.7809,356.24 16.5,355C 13.6092,351.664 9.9425,350.664 5.5,352C 4.66667,352.833 3.83333,353.667 3,354.5C 2.50001,414.499 2.33334,474.499 2.5,534.5C 1.81542,477.491 1.14875,420.324 0.5,363C -0.326337,352.489 4.34033,348.489 14.5,351C 26.1178,357.317 38.4511,361.651 51.5,364C 88.5648,370.631 124.565,367.131 159.5,353.5 Z"/></g>
<g><path style="opacity:0.196" fill="#c3efd5" d="M 298.5,361.5 C 254.303,373.797 211.303,370.464 169.5,351.5C 166.087,351.854 162.754,352.521 159.5,353.5C 160.058,352.21 161.058,351.377 162.5,351C 164.649,350.421 166.815,349.921 169,349.5C 177.726,352.523 186.392,355.857 195,359.5C 220.057,366.592 245.557,368.758 271.5,366C 280.538,364.595 289.538,363.095 298.5,361.5 Z"/></g>
<g><path style="opacity:1" fill="#f8fdfa" d="M 212.5,379.5 C 215.909,380.903 219.575,381.57 223.5,381.5C 231.111,382.995 238.944,383.662 247,383.5C 252.344,383.499 257.511,383.166 262.5,382.5C 262.833,382.5 263.167,382.5 263.5,382.5C 277.743,382.701 291.743,380.868 305.5,377C 306.955,375.374 308.622,374.208 310.5,373.5C 313.402,372.422 316.402,371.756 319.5,371.5C 319.667,424.501 319.5,477.501 319,530.5C 317.927,540.201 316.761,549.868 315.5,559.5C 307.253,597.073 290.587,630.073 265.5,658.5C 258.758,664.575 252.425,670.908 246.5,677.5C 238.063,683.425 229.729,689.591 221.5,696C 212.646,700.259 203.98,704.759 195.5,709.5C 188.754,711.016 182.087,712.85 175.5,715C 169.05,715.768 162.717,715.268 156.5,713.5C 131.802,706.651 109.802,694.818 90.5,678C 46.6661,637.167 21.9994,587 16.5,527.5C 15.8377,474.823 16.5044,422.489 18.5,370.5C 21.9679,371.101 25.3012,372.101 28.5,373.5C 37.1507,376.704 46.1507,379.037 55.5,380.5C 59.8934,382.15 64.56,383.317 69.5,384C 84.5418,384.76 99.5418,384.26 114.5,382.5C 117.37,381.743 120.036,380.743 122.5,379.5C 138.302,376.732 153.469,372.065 168,365.5C 174.83,368.254 181.664,371.088 188.5,374C 196.44,376.148 204.44,377.981 212.5,379.5 Z"/></g>
<g><path style="opacity:1" fill="#24984f" d="M 59.5,367.5 C 51.8114,367.387 44.1447,366.887 36.5,366C 37.1667,365.667 37.8333,365.333 38.5,365C 29.093,362.395 20.093,358.728 11.5,354C 8.65293,353.056 6.15293,353.556 4,355.5C 3.50001,411.499 3.33334,467.499 3.5,523.5C 3.84126,533.579 4.84126,543.579 6.5,553.5C 5.39953,551.723 4.56619,549.723 4,547.5C 3.82382,543.312 3.32382,539.312 2.5,535.5C 2.5,535.167 2.5,534.833 2.5,534.5C 2.33334,474.499 2.50001,414.499 3,354.5C 3.83333,353.667 4.66667,352.833 5.5,352C 9.9425,350.664 13.6092,351.664 16.5,355C 21.7809,356.24 26.7809,358.24 31.5,361C 41.091,362.684 50.4244,364.851 59.5,367.5 Z"/></g>
<g><path style="opacity:0.584" fill="#d0f7e2" d="M 334.5,354.5 C 335.665,415.332 335.832,476.332 335,537.5C 333.127,557.404 328.294,576.404 320.5,594.5C 322.624,584.628 325.457,574.961 329,565.5C 330.161,559.536 330.994,553.536 331.5,547.5C 332.617,543.705 333.283,539.705 333.5,535.5C 334.499,475.336 334.832,415.002 334.5,354.5 Z"/></g>
<g><path style="opacity:1" fill="#45a76c" d="M 334.5,354.5 C 334.832,415.002 334.499,475.336 333.5,535.5C 333.667,475.499 333.5,415.499 333,355.5C 330.379,354.009 327.545,353.342 324.5,353.5C 325.152,352.275 326.319,351.608 328,351.5C 330.509,351.863 332.676,352.863 334.5,354.5 Z"/></g>
<g><path style="opacity:0.931" fill="#fefffe" d="M 473.5,445.5 C 508.67,440.539 536.503,452.206 557,480.5C 573.963,510.838 573.296,540.838 555,570.5C 543.086,586.255 527.919,597.589 509.5,604.5C 522.468,609.913 535.801,614.413 549.5,618C 569.044,622.642 588.711,626.642 608.5,630C 615.833,630.667 623.167,630.667 630.5,630C 634.547,628.56 638.38,626.726 642,624.5C 644.154,625.32 645.654,626.82 646.5,629C 639.229,639.28 629.896,646.946 618.5,652C 607.409,652.837 596.409,652.171 585.5,650C 548.046,641.185 512.379,627.852 478.5,610C 416.618,592.733 394.451,553.233 412,491.5C 425.117,466.352 445.617,451.019 473.5,445.5 Z M 481.5,455.5 C 507.978,457.79 525.145,471.79 533,497.5C 542.617,527.406 538.617,555.406 521,581.5C 499.103,601.768 477.436,601.435 456,580.5C 436.885,553.822 431.552,524.489 440,492.5C 446.46,471.716 460.293,459.383 481.5,455.5 Z"/></g>
<g><path style="opacity:0.911" fill="#fefffe" d="M 1814.5,445.5 C 1817.12,445.232 1819.62,445.565 1822,446.5C 1822.83,489.071 1822.66,531.571 1821.5,574C 1822.19,578.161 1823.02,582.327 1824,586.5C 1827.95,588.532 1832.12,590.032 1836.5,591C 1837.42,593.041 1837.76,595.208 1837.5,597.5C 1827.28,599.93 1817.11,602.597 1807,605.5C 1805.29,605.561 1803.96,604.894 1803,603.5C 1802.71,600.257 1801.38,597.59 1799,595.5C 1782.5,607.312 1765.33,608.479 1747.5,599C 1729.25,582.431 1724.75,562.597 1734,539.5C 1747.48,513.269 1768.64,503.935 1797.5,511.5C 1797.06,496.167 1796.56,480.834 1796,465.5C 1795.53,464.069 1794.7,462.903 1793.5,462C 1790.01,460.209 1786.34,458.876 1782.5,458C 1780.99,455.084 1781.32,452.418 1783.5,450C 1793.98,448.492 1804.31,446.992 1814.5,445.5 Z M 1770.5,519.5 C 1778.68,518.184 1786.01,520.018 1792.5,525C 1794.04,526.579 1795.21,528.413 1796,530.5C 1797.57,546.794 1797.91,563.127 1797,579.5C 1795.76,586.408 1791.6,590.574 1784.5,592C 1775.51,593.089 1768.34,589.922 1763,582.5C 1753.89,567.362 1751.89,551.362 1757,534.5C 1759.69,527.709 1764.19,522.709 1770.5,519.5 Z"/></g>
<g><path style="opacity:0.911" fill="#fefffe" d="M 1334.5,447.5 C 1352.58,447.913 1370.58,448.08 1388.5,448C 1389.33,448.833 1390.17,449.667 1391,450.5C 1405.48,486.78 1420.48,522.78 1436,558.5C 1452.44,522.53 1468.1,486.197 1483,449.5C 1484.74,448.106 1486.74,447.439 1489,447.5C 1503.82,447.904 1518.65,448.071 1533.5,448C 1535.73,450.553 1536.06,453.386 1534.5,456.5C 1529.5,457.333 1524.5,458.167 1519.5,459C 1518.81,460.067 1518.31,461.234 1518,462.5C 1517.83,482.833 1517.67,503.167 1517.5,523.5C 1517.36,545.54 1517.86,567.54 1519,589.5C 1519.37,590.416 1519.87,591.25 1520.5,592C 1525.77,593.106 1531.1,593.773 1536.5,594C 1538.04,597.24 1537.7,600.24 1535.5,603C 1513.12,603.822 1490.79,603.656 1468.5,602.5C 1467.22,599.628 1467.22,596.795 1468.5,594C 1474.56,593.805 1480.56,593.139 1486.5,592C 1488.07,590.174 1488.91,588.007 1489,585.5C 1489.83,545.829 1489.67,506.162 1488.5,466.5C 1468.89,510.194 1449.39,553.86 1430,597.5C 1427.93,599.648 1425.59,599.982 1423,598.5C 1404.19,553.717 1385.19,509.051 1366,464.5C 1365.33,501.167 1365.33,537.833 1366,574.5C 1367,579.167 1368,583.833 1369,588.5C 1369.83,589.5 1370.67,590.5 1371.5,591.5C 1376.71,593.088 1382.04,593.754 1387.5,593.5C 1387.78,596.777 1387.45,599.943 1386.5,603C 1367.59,603.825 1348.76,603.659 1330,602.5C 1329.22,599.571 1329.39,596.737 1330.5,594C 1335.56,593.752 1340.56,593.085 1345.5,592C 1348.23,589.374 1350.06,586.207 1351,582.5C 1352.88,559.209 1354.21,535.876 1355,512.5C 1355.92,495.788 1355.59,479.121 1354,462.5C 1353.53,461.069 1352.7,459.903 1351.5,459C 1345.55,457.928 1339.55,457.428 1333.5,457.5C 1333.25,454.061 1333.59,450.728 1334.5,447.5 Z"/></g>
<g><path style="opacity:0.906" fill="#fefffe" d="M 1567.5,461.5 C 1583.01,460.509 1588.85,467.509 1585,482.5C 1575.21,492.208 1566.21,491.542 1558,480.5C 1555.9,471.367 1559.07,465.034 1567.5,461.5 Z"/></g>
<g><path style="opacity:0.92" fill="#fefffe" d="M 954.5,486.5 C 956.167,486.5 957.833,486.5 959.5,486.5C 959.907,494.447 959.907,502.447 959.5,510.5C 969.416,510.181 979.25,510.514 989,511.5C 989.444,516.162 988.277,520.329 985.5,524C 976.589,524.181 967.755,524.681 959,525.5C 958.063,545.21 958.396,564.877 960,584.5C 961.105,587.937 963.272,590.437 966.5,592C 972.633,592.103 978.633,591.436 984.5,590C 987.7,594.529 986.7,597.862 981.5,600C 971.759,605.087 961.425,606.753 950.5,605C 944.201,603.037 939.368,599.203 936,593.5C 934.521,570.591 934.021,547.591 934.5,524.5C 930.154,524.666 925.821,524.499 921.5,524C 919.582,522.23 919.082,520.063 920,517.5C 934.16,510.176 945.66,499.842 954.5,486.5 Z"/></g>
<g><path style="opacity:0.914" fill="#fefffe" d="M 743.5,509.5 C 752.821,508.627 761.821,509.793 770.5,513C 774.194,515.687 776.694,519.187 778,523.5C 778.865,544.494 779.531,565.494 780,586.5C 780.263,589.264 781.763,590.931 784.5,591.5C 787.678,590.656 790.345,588.989 792.5,586.5C 798.13,588.564 798.963,591.898 795,596.5C 787.335,605.483 777.835,607.983 766.5,604C 762.689,601.222 759.689,597.722 757.5,593.5C 745.817,604.671 732.151,608.171 716.5,604C 707.264,594.15 706.098,583.317 713,571.5C 716.581,567.248 720.748,563.748 725.5,561C 734.986,556.756 744.32,552.256 753.5,547.5C 755.029,545.293 755.695,542.793 755.5,540C 755.68,521.907 747.346,516.573 730.5,524C 730,524.5 729.5,525 729,525.5C 728.667,530.5 728.333,535.5 728,540.5C 722.613,548.885 715.946,550.218 708,544.5C 706.198,535.268 709.031,527.768 716.5,522C 724.845,516.157 733.845,511.99 743.5,509.5 Z M 753.5,556.5 C 754.117,556.611 754.617,556.944 755,557.5C 755.917,566.909 755.584,576.242 754,585.5C 750.442,590.529 745.609,592.696 739.5,592C 732.848,587.37 731.015,581.203 734,573.5C 735.765,569.136 738.599,565.636 742.5,563C 746.56,561.311 750.227,559.144 753.5,556.5 Z"/></g>
<g><path style="opacity:0.907" fill="#fefffe" d="M 831.5,509.5 C 833.722,509.178 835.556,509.845 837,511.5C 837.787,515.179 838.621,518.846 839.5,522.5C 854.636,507.84 871.303,505.673 889.5,516C 894.308,519.789 897.475,524.622 899,530.5C 899.333,550.167 899.667,569.833 900,589.5C 900.309,590.766 900.809,591.933 901.5,593C 905.563,593.038 909.397,593.872 913,595.5C 913.957,598.379 913.457,600.879 911.5,603C 895.926,603.824 880.426,603.657 865,602.5C 863.349,600.246 863.182,597.912 864.5,595.5C 866.972,594.104 869.638,593.27 872.5,593C 873.863,591.055 874.697,588.888 875,586.5C 875.667,569.5 875.667,552.5 875,535.5C 870.376,524.281 862.21,520.781 850.5,525C 843.793,527.884 840.126,533.051 839.5,540.5C 840.826,556.673 840.826,572.84 839.5,589C 839.903,590.473 840.57,591.806 841.5,593C 844.168,593.567 846.834,594.067 849.5,594.5C 849.777,597.448 849.444,600.281 848.5,603C 834.167,603.667 819.833,603.667 805.5,603C 803.679,600.544 803.012,597.711 803.5,594.5C 806.813,593.955 810.146,593.455 813.5,593C 814,592.5 814.5,592 815,591.5C 815.667,574.5 815.667,557.5 815,540.5C 814.529,538.754 813.862,537.087 813,535.5C 809.115,532.661 805.615,529.494 802.5,526C 802.759,524.739 803.426,523.739 804.5,523C 813.771,518.762 822.771,514.262 831.5,509.5 Z"/></g>
<g><path style="opacity:0.913" fill="#fefffe" d="M 1138.5,509.5 C 1140.29,509.215 1141.95,509.548 1143.5,510.5C 1144.22,514.893 1145.22,519.226 1146.5,523.5C 1157.79,511.572 1171.45,507.405 1187.5,511C 1194.76,513.872 1200.26,518.705 1204,525.5C 1217.21,509.322 1233.37,505.489 1252.5,514C 1257.67,518.186 1261.51,523.353 1264,529.5C 1265.48,549.702 1265.98,569.868 1265.5,590C 1265.75,591.326 1266.42,592.326 1267.5,593C 1270.85,593.455 1274.19,593.955 1277.5,594.5C 1277.78,597.448 1277.44,600.281 1276.5,603C 1261.59,603.823 1246.76,603.657 1232,602.5C 1230.35,600.246 1230.18,597.912 1231.5,595.5C 1234.24,594.188 1237.07,593.188 1240,592.5C 1241.53,574.529 1241.87,556.529 1241,538.5C 1238.98,526.591 1232.15,521.758 1220.5,524C 1213.39,525.957 1208.89,530.457 1207,537.5C 1206.33,555.833 1206.33,574.167 1207,592.5C 1210.43,593.396 1213.93,594.062 1217.5,594.5C 1217.78,597.448 1217.44,600.281 1216.5,603C 1201.83,603.667 1187.17,603.667 1172.5,603C 1170.68,600.544 1170.01,597.711 1170.5,594.5C 1173.49,594.002 1176.49,593.502 1179.5,593C 1181,591.509 1181.84,589.676 1182,587.5C 1182.88,569.469 1182.55,551.469 1181,533.5C 1179.03,526.507 1174.37,523.174 1167,523.5C 1157.33,523.819 1151,528.486 1148,537.5C 1147.33,555.5 1147.33,573.5 1148,591.5C 1150.91,593.124 1154.08,594.29 1157.5,595C 1159.01,597.916 1158.68,600.582 1156.5,603C 1141.5,603.667 1126.5,603.667 1111.5,603C 1110.56,600.281 1110.22,597.448 1110.5,594.5C 1114.4,594.035 1118.23,593.368 1122,592.5C 1123.12,583.738 1123.62,574.905 1123.5,566C 1123.6,556.452 1123.1,546.952 1122,537.5C 1119.52,533.087 1115.85,530.087 1111,528.5C 1110.33,526.833 1110.33,525.167 1111,523.5C 1120.15,518.676 1129.32,514.009 1138.5,509.5 Z"/></g>
<g><path style="opacity:0.909" fill="#fefffe" d="M 1581.5,509.5 C 1587.16,508.499 1589.49,510.832 1588.5,516.5C 1587.05,541.847 1587.22,567.18 1589,592.5C 1593.2,593.105 1597.36,593.938 1601.5,595C 1603.01,597.916 1602.68,600.582 1600.5,603C 1583.5,603.667 1566.5,603.667 1549.5,603C 1546.89,600.205 1546.89,597.371 1549.5,594.5C 1553.45,593.732 1557.45,593.232 1561.5,593C 1562.29,591.915 1562.96,590.748 1563.5,589.5C 1563.56,571.899 1563.4,554.232 1563,536.5C 1562.65,534.152 1561.49,532.319 1559.5,531C 1556.14,529.882 1552.98,528.382 1550,526.5C 1549.33,525.167 1549.33,523.833 1550,522.5C 1560.51,518.056 1571.01,513.723 1581.5,509.5 Z"/></g>
<g><path style="opacity:0.909" fill="#fefffe" d="M 1638.5,509.5 C 1640.47,509.261 1642.3,509.594 1644,510.5C 1644.73,514.642 1645.73,518.642 1647,522.5C 1660.86,508.603 1676.69,505.77 1694.5,514C 1699.48,517.97 1703.31,522.803 1706,528.5C 1707,537.636 1707.5,546.802 1707.5,556C 1707.06,567.174 1706.9,578.341 1707,589.5C 1707.31,590.766 1707.81,591.933 1708.5,593C 1712.7,593.074 1716.7,593.907 1720.5,595.5C 1721.82,597.912 1721.65,600.246 1720,602.5C 1704.24,603.657 1688.41,603.824 1672.5,603C 1671.56,600.281 1671.22,597.448 1671.5,594.5C 1674.49,594.002 1677.49,593.502 1680.5,593C 1681.19,591.933 1681.69,590.766 1682,589.5C 1682.67,571.167 1682.67,552.833 1682,534.5C 1678.01,524.929 1670.85,521.429 1660.5,524C 1653.63,525.536 1649.46,529.702 1648,536.5C 1647.33,555.167 1647.33,573.833 1648,592.5C 1650.86,593.173 1653.69,594.007 1656.5,595C 1658.01,597.916 1657.68,600.582 1655.5,603C 1641.17,603.667 1626.83,603.667 1612.5,603C 1610.32,600.582 1609.99,597.916 1611.5,595C 1614.38,593.873 1617.38,593.206 1620.5,593C 1621.43,592.612 1622.09,591.945 1622.5,591C 1623.93,573.159 1623.77,555.326 1622,537.5C 1618.96,533.804 1615.3,530.804 1611,528.5C 1610.33,526.833 1610.33,525.167 1611,523.5C 1620.43,519.202 1629.6,514.535 1638.5,509.5 Z"/></g>
<g><path style="opacity:0.899" fill="#fefffe" d="M 1872.5,509.5 C 1883.76,508.212 1894.42,510.045 1904.5,515C 1905.33,515.833 1906.17,516.667 1907,517.5C 1909.37,523.712 1910.2,530.045 1909.5,536.5C 1907.67,537.929 1905.67,538.429 1903.5,538C 1898.13,530.959 1891.79,524.959 1884.5,520C 1876.35,518.003 1870.18,520.503 1866,527.5C 1864.99,531.744 1865.82,535.577 1868.5,539C 1879.7,542.881 1890.7,547.214 1901.5,552C 1915.23,563.857 1917.06,577.357 1907,592.5C 1895.65,604.318 1881.82,608.484 1865.5,605C 1860.48,604.327 1855.81,602.66 1851.5,600C 1848.21,591.21 1846.88,582.21 1847.5,573C 1849.53,572.319 1851.53,571.986 1853.5,572C 1857.62,577.077 1861.12,582.577 1864,588.5C 1873.51,598.487 1883.18,598.82 1893,589.5C 1895.99,582.757 1894.49,577.257 1888.5,573C 1878.34,569.391 1868.34,565.391 1858.5,561C 1846.79,550.819 1844.29,538.653 1851,524.5C 1856.74,517.385 1863.91,512.385 1872.5,509.5 Z"/></g>
<g><path style="opacity:0.924" fill="#fefffe" d="M 589.5,510.5 C 601.081,510.179 612.581,510.512 624,511.5C 624.781,512.729 625.281,514.062 625.5,515.5C 624.356,535.809 624.19,556.142 625,576.5C 627.912,591.368 636.412,595.868 650.5,590C 653.578,587.677 656.078,584.843 658,581.5C 658.667,562.167 658.667,542.833 658,523.5C 656.992,521.741 655.492,520.574 653.5,520C 646.703,520.865 644.203,518.032 646,511.5C 658.091,510.346 670.258,510.179 682.5,511C 683.804,511.804 684.471,512.971 684.5,514.5C 682.152,538.475 681.985,562.475 684,586.5C 684.374,587.416 684.874,588.25 685.5,589C 689.167,589.333 692.833,589.667 696.5,590C 698.396,591.808 698.896,593.975 698,596.5C 687.726,600.194 677.226,603.194 666.5,605.5C 665.167,605.167 663.833,604.833 662.5,604.5C 661.985,600.356 660.985,596.356 659.5,592.5C 645.854,606.408 630.188,609.241 612.5,601C 607.026,595.892 603.193,589.725 601,582.5C 600.667,565.167 600.333,547.833 600,530.5C 600.095,522.761 596.261,518.761 588.5,518.5C 587.121,515.533 587.454,512.866 589.5,510.5 Z"/></g>
<g><path style="opacity:0.917" fill="#fefffe" d="M 993.5,510.5 C 1005.08,510.179 1016.58,510.512 1028,511.5C 1028.96,513.199 1029.46,515.033 1029.5,517C 1028.38,536.484 1028.21,555.984 1029,575.5C 1031.33,591.086 1039.83,595.919 1054.5,590C 1058.08,588.084 1060.58,585.251 1062,581.5C 1062.67,561.833 1062.67,542.167 1062,522.5C 1058.49,520.274 1054.66,518.941 1050.5,518.5C 1049.17,516.167 1049.17,513.833 1050.5,511.5C 1062.83,510.167 1075.17,510.167 1087.5,511.5C 1087.41,536.109 1087.57,560.776 1088,585.5C 1088.47,586.931 1089.3,588.097 1090.5,589C 1094.17,589.333 1097.83,589.667 1101.5,590C 1102.59,592.064 1102.76,594.231 1102,596.5C 1091.88,600.115 1081.54,603.115 1071,605.5C 1068.97,605.646 1067.3,604.98 1066,603.5C 1065.67,600.167 1065.33,596.833 1065,593.5C 1064.59,593.043 1064.09,592.709 1063.5,592.5C 1052.94,603.965 1039.94,608.132 1024.5,605C 1015.02,601.236 1008.85,594.403 1006,584.5C 1004.97,564.514 1003.97,544.514 1003,524.5C 1000.67,520.583 997.174,518.583 992.5,518.5C 991.121,515.533 991.454,512.866 993.5,510.5 Z"/></g>
<g><path style="opacity:0.639" fill="#b9ebcd" d="M 2.5,535.5 C 3.32382,539.312 3.82382,543.312 4,547.5C 4.56619,549.723 5.39953,551.723 6.5,553.5C 7.43299,561.804 9.09966,569.97 11.5,578C 11.472,579.07 11.1386,579.903 10.5,580.5C 5.78648,565.926 3.11981,550.926 2.5,535.5 Z"/></g>
<g><path style="opacity:0.999" fill="#179f47" d="M 15.5,369.5 C 15.1677,422.336 15.5011,475.003 16.5,527.5C 21.9994,587 46.6661,637.167 90.5,678C 109.802,694.818 131.802,706.651 156.5,713.5C 162.767,716.36 169.433,717.193 176.5,716C 182.523,714.241 188.523,712.574 194.5,711C 195.056,710.617 195.389,710.117 195.5,709.5C 203.98,704.759 212.646,700.259 221.5,696C 229.729,689.591 238.063,683.425 246.5,677.5C 253.942,672.058 260.276,665.724 265.5,658.5C 290.587,630.073 307.253,597.073 315.5,559.5C 318.104,549.46 319.771,539.127 320.5,528.5C 321.499,475.669 321.832,422.669 321.5,369.5C 322.665,422.665 322.832,475.998 322,529.5C 321.8,536.883 321.3,544.216 320.5,551.5C 322.023,553.283 324.023,553.949 326.5,553.5C 326.201,555.604 326.534,557.604 327.5,559.5C 328.206,555.053 329.539,551.053 331.5,547.5C 330.994,553.536 330.161,559.536 329,565.5C 325.457,574.961 322.624,584.628 320.5,594.5C 320.5,594.833 320.5,595.167 320.5,595.5C 319.115,596.574 317.949,597.907 317,599.5C 311.409,613.35 304.742,626.683 297,639.5C 287.358,652.967 277.191,665.967 266.5,678.5C 255.982,686.791 245.315,695.124 234.5,703.5C 220.717,711.39 206.717,718.723 192.5,725.5C 184.303,726.59 176.136,727.924 168,729.5C 160.063,728.606 152.23,727.272 144.5,725.5C 100.105,708.005 64.9379,679.005 39,638.5C 33.6336,628.813 28.3003,619.147 23,609.5C 19.4108,600.644 16.0775,591.644 13,582.5C 12.6174,581.944 12.1174,581.611 11.5,581.5C 10.8333,581.5 10.5,581.167 10.5,580.5C 11.1386,579.903 11.472,579.07 11.5,578C 9.09966,569.97 7.43299,561.804 6.5,553.5C 4.84126,543.579 3.84126,533.579 3.5,523.5C 4.08226,526.832 4.91559,530.166 6,533.5C 6.68909,532.643 7.52242,531.977 8.5,531.5C 10.1667,531.5 11.8333,531.5 13.5,531.5C 14.1667,477.335 14.8333,423.335 15.5,369.5 Z"/></g>
<g><path style="opacity:1" fill="#259250" d="M 42.5,573.5 C 45.614,576.245 48.614,579.078 51.5,582C 54.8333,582.667 58.1667,582.667 61.5,582C 64.0217,579.91 66.6884,578.076 69.5,576.5C 68.0681,579.102 66.0681,581.269 63.5,583C 58.4456,583.781 53.4456,583.614 48.5,582.5C 48.1667,583 47.8333,583.5 47.5,584C 51.8892,594.352 56.5559,604.519 61.5,614.5C 52.7447,601.987 46.4113,588.321 42.5,573.5 Z"/></g>
<g><path style="opacity:1" fill="#041606" d="M 226.5,556.5 C 223.656,561.184 221.656,566.184 220.5,571.5C 219.624,571.369 218.957,571.702 218.5,572.5C 212.56,583.4 205.893,593.734 198.5,603.5C 187.468,615.532 175.802,626.866 163.5,637.5C 151.738,645.27 139.738,652.603 127.5,659.5C 120.357,662.74 113.024,665.407 105.5,667.5C 104.596,666.791 104.263,665.791 104.5,664.5C 109.784,662.572 115.117,660.739 120.5,659C 141.236,648.446 160.236,635.279 177.5,619.5C 182.85,613.316 188.684,607.649 195,602.5C 201.971,591.207 209.305,580.207 217,569.5C 217.895,566.049 219.062,562.716 220.5,559.5C 221.376,559.631 222.043,559.298 222.5,558.5C 223.961,556.189 224.294,553.856 223.5,551.5C 222.893,551.624 222.56,551.957 222.5,552.5C 220.972,552.483 220.472,551.816 221,550.5C 224.015,547.317 227.182,544.317 230.5,541.5C 231.833,547.5 231.833,553.5 230.5,559.5C 229.813,557.726 228.98,556.059 228,554.5C 227.283,555.044 226.783,555.711 226.5,556.5 Z"/></g>
<g><path style="opacity:1" fill="#2d754f" d="M 43.5,561.5 C 42.6561,565.099 42.3227,568.766 42.5,572.5C 41.6515,570.112 40.6515,567.779 39.5,565.5C 39.5,565.167 39.5,564.833 39.5,564.5C 41.0301,563.789 42.3634,562.789 43.5,561.5 Z"/></g>
<g><path style="opacity:1" fill="#187e44" d="M 78.5,559.5 C 78.6602,561.199 78.4935,562.866 78,564.5C 74.8121,567.539 72.6454,571.206 71.5,575.5C 71.0431,576.298 70.3764,576.631 69.5,576.5C 71.1956,570.107 74.1956,564.44 78.5,559.5 Z"/></g>
<g><path style="opacity:1" fill="#243735" d="M 81.5,497.5 C 81.5,497.167 81.5,496.833 81.5,496.5C 84.5766,498.705 87.9099,500.372 91.5,501.5C 93.5598,500.189 95.7265,500.189 98,501.5C 98.3685,504.877 98.3685,508.21 98,511.5C 102.352,510.62 106.018,511.953 109,515.5C 114.785,514.566 120.618,514.232 126.5,514.5C 121.684,515.326 116.684,515.826 111.5,516C 109.722,518.135 109.055,520.635 109.5,523.5C 129.494,524.403 149.494,524.57 169.5,524C 170.908,520.661 172.908,517.827 175.5,515.5C 174.345,519.444 172.345,522.944 169.5,526C 153.477,526.165 137.477,526.332 121.5,526.5C 123.027,529.66 123.693,532.993 123.5,536.5C 129.685,537.549 135.685,538.883 141.5,540.5C 137.466,540.495 133.466,540.162 129.5,539.5C 128.5,539.5 127.5,539.5 126.5,539.5C 125.122,538.766 123.622,538.099 122,537.5C 121.502,534.518 121.335,531.518 121.5,528.5C 115.167,528.5 108.833,528.5 102.5,528.5C 103.81,523.924 104.81,519.257 105.5,514.5C 103.723,514.214 102.056,513.547 100.5,512.5C 98.9707,512.529 97.804,513.196 97,514.5C 97,517.833 97,521.167 97,524.5C 94.0714,527.69 92.2381,531.357 91.5,535.5C 90.4289,539.104 88.2623,542.104 85,544.5C 83.2802,549.743 81.1135,554.743 78.5,559.5C 74.1956,564.44 71.1956,570.107 69.5,576.5C 66.6884,578.076 64.0217,579.91 61.5,582C 58.1667,582.667 54.8333,582.667 51.5,582C 48.614,579.078 45.614,576.245 42.5,573.5C 42.5,573.167 42.5,572.833 42.5,572.5C 42.3227,568.766 42.6561,565.099 43.5,561.5C 49.2536,553.082 54.5869,544.416 59.5,535.5C 63.318,530.544 66.6513,525.211 69.5,519.5C 70.8421,516.834 72.6755,514.501 75,512.5C 75.4828,511.552 75.6495,510.552 75.5,509.5C 78.1667,509.5 80.8333,509.5 83.5,509.5C 83.6822,507.325 84.3489,505.325 85.5,503.5C 84.6531,501.129 83.3198,499.129 81.5,497.5 Z"/></g>
<g><path style="opacity:1" fill="#1a7343" d="M 51.5,556.5 C 51.3568,559.097 50.5234,561.431 49,563.5C 48.502,566.482 48.3354,569.482 48.5,572.5C 45.3047,566.566 46.3047,561.233 51.5,556.5 Z"/></g>
<g><path style="opacity:1" fill="#18693d" d="M 77.5,549.5 C 77.3414,553.674 75.6747,557.008 72.5,559.5C 73.6378,555.891 75.3044,552.558 77.5,549.5 Z"/></g>
<g><path style="opacity:1" fill="#197844" d="M 59.5,535.5 C 54.5869,544.416 49.2536,553.082 43.5,561.5C 43.5752,558.593 44.4086,555.927 46,553.5C 49.9142,549.43 52.9142,544.763 55,539.5C 56.3712,537.959 57.8712,536.625 59.5,535.5 Z"/></g>
<g><path style="opacity:1" fill="#175839" d="M 70.5,526.5 C 68.4888,530.03 66.6554,533.697 65,537.5C 63.9609,538.71 62.7942,539.71 61.5,540.5C 63.5058,535.145 66.5058,530.479 70.5,526.5 Z"/></g>
<g><path style="opacity:1" fill="#4daf6f" d="M 303.5,481.5 C 303.667,499.503 303.5,517.503 303,535.5C 302.468,543.825 300.968,551.825 298.5,559.5C 299.5,548.167 300.5,536.833 301.5,525.5C 302.496,511.343 302.829,497.01 302.5,482.5C 302.5,481.833 302.833,481.5 303.5,481.5 Z"/></g>
<g><path style="opacity:1" fill="#1c4b38" d="M 91.5,521.5 C 92.6491,521.791 93.3158,522.624 93.5,524C 90.7992,529.905 87.4659,535.405 83.5,540.5C 85.4461,535.274 87.9461,530.274 91,525.5C 91.49,524.207 91.6567,522.873 91.5,521.5 Z"/></g>
<g><path style="opacity:1" fill="#167a41" d="M 69.5,519.5 C 66.6513,525.211 63.318,530.544 59.5,535.5C 60.4279,532.546 61.2612,529.546 62,526.5C 64.9457,524.569 67.4457,522.236 69.5,519.5 Z"/></g>
<g><path style="opacity:1" fill="#158a45" d="M 126.5,539.5 C 124.533,539.739 122.699,539.406 121,538.5C 120.502,535.518 120.335,532.518 120.5,529.5C 112.454,529.53 104.454,529.363 96.5,529C 94.9343,531.326 93.2676,533.492 91.5,535.5C 92.2381,531.357 94.0714,527.69 97,524.5C 97,521.167 97,517.833 97,514.5C 97.804,513.196 98.9707,512.529 100.5,512.5C 102.056,513.547 103.723,514.214 105.5,514.5C 104.81,519.257 103.81,523.924 102.5,528.5C 108.833,528.5 115.167,528.5 121.5,528.5C 121.335,531.518 121.502,534.518 122,537.5C 123.622,538.099 125.122,538.766 126.5,539.5 Z"/></g>
<g><path style="opacity:1" fill="#0a9b42" d="M 91.5,521.5 C 91.6567,522.873 91.49,524.207 91,525.5C 87.9461,530.274 85.4461,535.274 83.5,540.5C 81.5,543.5 79.5,546.5 77.5,549.5C 75.3044,552.558 73.6378,555.891 72.5,559.5C 72.1062,563.391 70.2729,566.391 67,568.5C 65.6869,576.245 61.1869,579.079 53.5,577C 51.3395,576.004 49.6728,574.504 48.5,572.5C 48.3354,569.482 48.502,566.482 49,563.5C 50.5234,561.431 51.3568,559.097 51.5,556.5C 55.7501,551.766 59.0834,546.433 61.5,540.5C 62.7942,539.71 63.9609,538.71 65,537.5C 66.6554,533.697 68.4888,530.03 70.5,526.5C 72.038,523.101 73.8713,519.767 76,516.5C 76.7387,515.426 77.7387,514.759 79,514.5C 82.8373,517.523 87.004,519.856 91.5,521.5 Z"/></g>
<g><path style="opacity:1" fill="#1f934b" d="M 33.5,389.5 C 34.791,389.263 35.791,389.596 36.5,390.5C 34.505,436.488 33.8383,482.821 34.5,529.5C 33.5012,483.003 33.1679,436.336 33.5,389.5 Z"/></g>
<g><path style="opacity:1" fill="#079e41" d="M 301.5,525.5 C 300.5,536.833 299.5,548.167 298.5,559.5C 293.249,581.772 284.415,602.438 272,621.5C 267.311,628.343 262.477,635.01 257.5,641.5C 252.77,645.227 248.77,649.56 245.5,654.5C 234.571,663.917 222.904,672.417 210.5,680C 198.444,686.242 185.778,690.908 172.5,694C 167.833,694.667 163.167,694.667 158.5,694C 146.435,689.797 134.768,684.797 123.5,679C 117.546,674.837 111.546,671.004 105.5,667.5C 113.024,665.407 120.357,662.74 127.5,659.5C 132.374,658.395 137.041,656.729 141.5,654.5C 142.386,655.325 142.719,656.325 142.5,657.5C 142.5,661.167 142.5,664.833 142.5,668.5C 150.019,668.825 157.352,668.492 164.5,667.5C 165.329,660.679 165.829,653.679 166,646.5C 166.671,645.748 167.504,645.414 168.5,645.5C 170.017,645.489 171.184,644.823 172,643.5C 172.171,651.677 172.671,659.677 173.5,667.5C 180.5,668.833 187.5,668.833 194.5,667.5C 194.833,667.5 195.167,667.5 195.5,667.5C 196.19,652.648 197.024,637.648 198,622.5C 198.667,621.833 199.333,621.167 200,620.5C 199.845,636.532 200.679,652.199 202.5,667.5C 209.932,668.811 217.265,668.811 224.5,667.5C 225.664,638.336 225.83,609.003 225,579.5C 223.989,578.663 222.822,578.33 221.5,578.5C 220.351,578.209 219.684,577.376 219.5,576C 219.773,574.467 220.106,572.967 220.5,571.5C 222.559,568.389 224.392,565.056 226,561.5C 226.77,560.402 227.603,560.402 228.5,561.5C 229.822,561.67 230.989,561.337 232,560.5C 232.5,553.842 232.666,547.175 232.5,540.5C 231.127,540.343 229.793,540.51 228.5,541C 224.631,545.037 220.631,548.87 216.5,552.5C 215.549,553.919 215.216,555.585 215.5,557.5C 217.781,557.077 219.448,557.744 220.5,559.5C 219.062,562.716 217.895,566.049 217,569.5C 209.305,580.207 201.971,591.207 195,602.5C 188.684,607.649 182.85,613.316 177.5,619.5C 160.236,635.279 141.236,648.446 120.5,659C 115.117,660.739 109.784,662.572 104.5,664.5C 97.6002,659.941 91.2669,654.608 85.5,648.5C 83.2343,644.564 80.2343,641.231 76.5,638.5C 70.7085,631.032 65.7085,623.032 61.5,614.5C 56.5559,604.519 51.8892,594.352 47.5,584C 47.8333,583.5 48.1667,583 48.5,582.5C 53.4456,583.614 58.4456,583.781 63.5,583C 66.0681,581.269 68.0681,579.102 69.5,576.5C 70.3764,576.631 71.0431,576.298 71.5,575.5C 72.6454,571.206 74.8121,567.539 78,564.5C 78.4935,562.866 78.6602,561.199 78.5,559.5C 81.1135,554.743 83.2802,549.743 85,544.5C 88.2623,542.104 90.4289,539.104 91.5,535.5C 93.2676,533.492 94.9343,531.326 96.5,529C 104.454,529.363 112.454,529.53 120.5,529.5C 120.335,532.518 120.502,535.518 121,538.5C 122.699,539.406 124.533,539.739 126.5,539.5C 127.5,539.5 128.5,539.5 129.5,539.5C 129.918,540.222 130.584,540.722 131.5,541C 146.442,543.081 161.442,543.748 176.5,543C 178.342,541.654 179.342,539.821 179.5,537.5C 179.343,536.127 179.51,534.793 180,533.5C 181.983,529.875 183.816,526.208 185.5,522.5C 186.869,519.438 188.535,516.438 190.5,513.5C 192.287,512.684 193.954,511.684 195.5,510.5C 194.675,509.614 193.675,509.281 192.5,509.5C 193.275,504.516 193.942,499.516 194.5,494.5C 194.5,493.833 194.5,493.167 194.5,492.5C 195.222,492.082 195.722,491.416 196,490.5C 196.687,492.568 196.52,494.568 195.5,496.5C 199.261,497.735 202.927,498.402 206.5,498.5C 206.167,499.167 205.833,499.833 205.5,500.5C 205.846,501.696 206.346,501.696 207,500.5C 207.232,501.737 207.732,502.737 208.5,503.5C 208.611,504.117 208.944,504.617 209.5,505C 213.167,505.333 216.833,505.667 220.5,506C 219.167,507 219.167,508 220.5,509C 223.482,509.498 226.482,509.665 229.5,509.5C 229.336,512.187 229.503,514.854 230,517.5C 231.734,518.638 233.568,519.138 235.5,519C 235.167,518.667 234.833,518.333 234.5,518C 235.312,511.915 235.812,505.748 236,499.5C 238.019,496.288 240.853,494.622 244.5,494.5C 245.391,495.11 246.391,495.443 247.5,495.5C 249.495,497.64 251.995,498.973 255,499.5C 255.838,523.473 257.005,523.473 258.5,499.5C 261.88,498.077 265.214,496.743 268.5,495.5C 268.5,496.833 268.5,498.167 268.5,499.5C 269.5,499.5 270.5,499.5 271.5,499.5C 271.5,500.833 271.5,502.167 271.5,503.5C 264.833,503.833 264.833,504.167 271.5,504.5C 271.5,506.167 271.5,507.833 271.5,509.5C 272.5,509.5 273.5,509.5 274.5,509.5C 274.5,506.5 274.5,503.5 274.5,500.5C 278.5,499.833 278.5,499.167 274.5,498.5C 274.192,496.076 274.526,493.743 275.5,491.5C 277.412,493.156 279.412,493.489 281.5,492.5C 278.874,488.079 278.207,483.413 279.5,478.5C 280.477,475.713 280.81,472.713 280.5,469.5C 281.833,469.5 283.167,469.5 284.5,469.5C 284.5,473.833 284.5,478.167 284.5,482.5C 290.138,483.22 295.804,483.553 301.5,483.5C 301.5,497.5 301.5,511.5 301.5,525.5 Z"/></g>
<g><path style="opacity:1" fill="#041305" d="M 221.5,578.5 C 222.822,578.33 223.989,578.663 225,579.5C 225.83,609.003 225.664,638.336 224.5,667.5C 217.578,667.812 210.744,667.479 204,666.5C 203.5,649.17 203.333,631.837 203.5,614.5C 202.209,614.263 201.209,614.596 200.5,615.5C 199.173,616.8 197.84,618.133 196.5,619.5C 195.501,635.486 195.167,651.486 195.5,667.5C 195.167,667.5 194.833,667.5 194.5,667.5C 193.71,666.391 193.21,665.058 193,663.5C 192.831,650.993 192.331,638.66 191.5,626.5C 188.569,628.091 185.902,630.091 183.5,632.5C 183.586,631.504 183.252,630.671 182.5,630C 184.706,627.963 186.706,625.797 188.5,623.5C 188.833,622.5 189.5,621.833 190.5,621.5C 194.234,618.769 197.234,615.436 199.5,611.5C 202.761,605.739 206.928,600.739 212,596.5C 211.906,593.499 213.239,591.499 216,590.5C 218.121,586.593 219.955,582.593 221.5,578.5 Z"/></g>
<g><path style="opacity:1" fill="#116530" d="M 219.5,589.5 C 221.491,614.144 222.157,639.144 221.5,664.5C 216.5,664.5 211.5,664.5 206.5,664.5C 206.17,645.326 206.503,626.326 207.5,607.5C 207.5,626.167 207.5,644.833 207.5,663.5C 211.833,663.5 216.167,663.5 220.5,663.5C 220.5,640.5 220.5,617.5 220.5,594.5C 219.5,594.5 218.5,594.5 217.5,594.5C 217.893,592.716 218.559,591.05 219.5,589.5 Z"/></g>
<g><path style="opacity:1" fill="#118c40" d="M 200.5,615.5 C 202.486,632.468 203.153,649.801 202.5,667.5C 200.679,652.199 199.845,636.532 200,620.5C 199.333,621.167 198.667,621.833 198,622.5C 197.024,637.648 196.19,652.648 195.5,667.5C 195.167,651.486 195.501,635.486 196.5,619.5C 197.84,618.133 199.173,616.8 200.5,615.5 Z"/></g>
<g><path style="opacity:1" fill="#043e19" d="M 199.5,611.5 C 197.234,615.436 194.234,618.769 190.5,621.5C 192.766,617.564 195.766,614.231 199.5,611.5 Z"/></g>
<g><path style="opacity:1" fill="#106c34" d="M 198.5,603.5 C 188.792,616.875 177.125,628.208 163.5,637.5C 175.802,626.866 187.468,615.532 198.5,603.5 Z"/></g>
<g><path style="opacity:1" fill="#117938" d="M 175.5,612.5 C 175.489,614.017 174.823,615.184 173.5,616C 171.19,616.497 168.857,616.663 166.5,616.5C 166.5,613.5 166.5,610.5 166.5,607.5C 165.448,607.351 164.448,607.517 163.5,608C 161.571,610.438 159.238,612.272 156.5,613.5C 154.595,612.935 152.929,611.935 151.5,610.5C 149.605,612.486 147.605,612.819 145.5,611.5C 146.791,611.737 147.791,611.404 148.5,610.5C 151.173,607.494 153.84,604.494 156.5,601.5C 159.166,603.896 159,606.229 156,608.5C 155.219,609.944 155.386,611.277 156.5,612.5C 158.65,610.851 160.65,609.018 162.5,607C 164.134,606.506 165.801,606.34 167.5,606.5C 167.5,609.167 167.5,611.833 167.5,614.5C 170.327,614.416 172.994,613.75 175.5,612.5 Z"/></g>
<g><path style="opacity:1" fill="#0e913f" d="M 220.5,571.5 C 220.106,572.967 219.773,574.467 219.5,576C 219.684,577.376 220.351,578.209 221.5,578.5C 219.955,582.593 218.121,586.593 216,590.5C 213.239,591.499 211.906,593.499 212,596.5C 206.928,600.739 202.761,605.739 199.5,611.5C 195.766,614.231 192.766,617.564 190.5,621.5C 189.5,621.833 188.833,622.5 188.5,623.5C 175.326,635.353 161.326,646.019 146.5,655.5C 144.938,655.733 143.605,656.4 142.5,657.5C 142.719,656.325 142.386,655.325 141.5,654.5C 137.041,656.729 132.374,658.395 127.5,659.5C 139.738,652.603 151.738,645.27 163.5,637.5C 177.125,628.208 188.792,616.875 198.5,603.5C 205.893,593.734 212.56,583.4 218.5,572.5C 218.957,571.702 219.624,571.369 220.5,571.5 Z"/></g>
<g><path style="opacity:1" fill="#079d41" d="M 217.5,594.5 C 218.5,594.5 219.5,594.5 220.5,594.5C 220.5,617.5 220.5,640.5 220.5,663.5C 216.167,663.5 211.833,663.5 207.5,663.5C 207.5,644.833 207.5,626.167 207.5,607.5C 210.118,602.587 213.452,598.254 217.5,594.5 Z"/></g>
<g><path style="opacity:1" fill="#034019" d="M 150.5,602.5 C 149.272,605.075 147.605,607.408 145.5,609.5C 146.325,610.386 147.325,610.719 148.5,610.5C 147.791,611.404 146.791,611.737 145.5,611.5C 144.402,610.399 144.235,609.066 145,607.5C 146.704,605.627 148.537,603.96 150.5,602.5 Z"/></g>
<g><path style="opacity:1" fill="#0d5326" d="M 139.5,583.5 C 139.5,585.5 139.5,587.5 139.5,589.5C 142.482,589.037 145.482,588.704 148.5,588.5C 148.162,590.854 147.662,593.187 147,595.5C 144.873,597.114 143.373,599.114 142.5,601.5C 141.427,600.749 141.26,599.749 142,598.5C 145.054,596.634 146.554,593.967 146.5,590.5C 143.833,590.5 141.167,590.5 138.5,590.5C 138.198,587.941 138.532,585.607 139.5,583.5 Z"/></g>
<g><path style="opacity:1" fill="#0f863c" d="M 186.5,595.5 C 186.703,591.1 188.537,587.433 192,584.5C 194.37,579.761 196.703,575.094 199,570.5C 200.239,564.565 200.739,558.565 200.5,552.5C 195.463,552.413 190.463,552.746 185.5,553.5C 186.263,552.732 187.263,552.232 188.5,552C 193.155,551.501 197.821,551.334 202.5,551.5C 202.904,561.714 201.237,571.547 197.5,581C 197.645,581.772 197.978,582.439 198.5,583C 197.167,584 195.833,585 194.5,586C 195.784,587.297 195.617,588.464 194,589.5C 193.692,588.692 193.192,588.025 192.5,587.5C 189.677,589.642 187.677,592.309 186.5,595.5 Z"/></g>
<g><path style="opacity:1" fill="#126b34" d="M 226.5,556.5 C 228.256,557.552 228.923,559.219 228.5,561.5C 227.603,560.402 226.77,560.402 226,561.5C 224.392,565.056 222.559,568.389 220.5,571.5C 221.656,566.184 223.656,561.184 226.5,556.5 Z"/></g>
<g><path style="opacity:1" fill="#063413" d="M 228.5,561.5 C 228.923,559.219 228.256,557.552 226.5,556.5C 226.783,555.711 227.283,555.044 228,554.5C 228.98,556.059 229.813,557.726 230.5,559.5C 231.833,553.5 231.833,547.5 230.5,541.5C 227.182,544.317 224.015,547.317 221,550.5C 220.472,551.816 220.972,552.483 222.5,552.5C 221.265,554.957 219.265,556.29 216.5,556.5C 216.5,555.167 216.5,553.833 216.5,552.5C 220.631,548.87 224.631,545.037 228.5,541C 229.793,540.51 231.127,540.343 232.5,540.5C 232.666,547.175 232.5,553.842 232,560.5C 230.989,561.337 229.822,561.67 228.5,561.5 Z"/></g>
<g><path style="opacity:1" fill="#18753a" d="M 220.5,559.5 C 219.448,557.744 217.781,557.077 215.5,557.5C 215.216,555.585 215.549,553.919 216.5,552.5C 216.5,553.833 216.5,555.167 216.5,556.5C 219.265,556.29 221.265,554.957 222.5,552.5C 222.56,551.957 222.893,551.624 223.5,551.5C 224.294,553.856 223.961,556.189 222.5,558.5C 222.043,559.298 221.376,559.631 220.5,559.5 Z"/></g>
<g><path style="opacity:1" fill="#031405" d="M 186.5,595.5 C 184.105,601.948 180.439,607.614 175.5,612.5C 172.994,613.75 170.327,614.416 167.5,614.5C 167.5,611.833 167.5,609.167 167.5,606.5C 165.801,606.34 164.134,606.506 162.5,607C 160.65,609.018 158.65,610.851 156.5,612.5C 155.386,611.277 155.219,609.944 156,608.5C 159,606.229 159.166,603.896 156.5,601.5C 153.84,604.494 151.173,607.494 148.5,610.5C 147.325,610.719 146.325,610.386 145.5,609.5C 147.605,607.408 149.272,605.075 150.5,602.5C 151.929,601.766 152.929,600.599 153.5,599C 153.333,597.5 152.5,596.667 151,596.5C 148.888,597.608 147.054,599.108 145.5,601C 144.552,601.483 143.552,601.649 142.5,601.5C 143.373,599.114 144.873,597.114 147,595.5C 147.662,593.187 148.162,590.854 148.5,588.5C 145.482,588.704 142.482,589.037 139.5,589.5C 139.5,587.5 139.5,585.5 139.5,583.5C 143.756,574.187 151.089,569.02 161.5,568C 167.823,560.341 175.823,555.507 185.5,553.5C 190.463,552.746 195.463,552.413 200.5,552.5C 200.739,558.565 200.239,564.565 199,570.5C 196.703,575.094 194.37,579.761 192,584.5C 188.537,587.433 186.703,591.1 186.5,595.5 Z"/></g>
<g><path style="opacity:1" fill="#14823e" d="M 176.5,598.5 C 177.833,598.5 179.167,598.5 180.5,598.5C 179.288,603.704 176.288,607.371 171.5,609.5C 171.337,607.143 171.503,604.81 172,602.5C 173.992,601.672 175.492,600.339 176.5,598.5 Z"/></g>
<g><path style="opacity:1" fill="#0d5d2a" d="M 157.5,579.5 C 156.821,582.707 155.654,585.707 154,588.5C 153.333,589.833 153.333,591.167 154,592.5C 156.833,595.333 159.667,598.167 162.5,601C 163.793,601.49 165.127,601.657 166.5,601.5C 165.054,602.613 163.387,602.78 161.5,602C 158.333,598.833 155.167,595.667 152,592.5C 152.196,587.445 154.029,583.111 157.5,579.5 Z"/></g>
<g><path style="opacity:1" fill="#0a9841" d="M 195.5,566.5 C 194.143,574.547 190.643,581.547 185,587.5C 181.651,590.57 178.484,593.736 175.5,597C 172.352,598.424 169.352,599.924 166.5,601.5C 165.127,601.657 163.793,601.49 162.5,601C 159.667,598.167 156.833,595.333 154,592.5C 153.333,591.167 153.333,589.833 154,588.5C 155.654,585.707 156.821,582.707 157.5,579.5C 160.39,578.101 161.89,575.768 162,572.5C 165.155,568.497 168.988,565.497 173.5,563.5C 180.435,559.966 187.768,557.633 195.5,556.5C 195.5,559.833 195.5,563.167 195.5,566.5 Z"/></g>
<g><path style="opacity:1" fill="#001201" d="M 168.5,592.5 C 166.053,592.385 164.053,591.385 162.5,589.5C 162.281,588.325 162.614,587.325 163.5,586.5C 165.938,587.931 167.604,589.931 168.5,592.5 Z"/></g>
<g><path style="opacity:1" fill="#024317" d="M 168.5,592.5 C 167.604,589.931 165.938,587.931 163.5,586.5C 162.614,587.325 162.281,588.325 162.5,589.5C 161.566,588.432 161.232,587.099 161.5,585.5C 164.785,585.269 167.285,586.603 169,589.5C 169.74,590.749 169.573,591.749 168.5,592.5 Z"/></g>
<g><path style="opacity:1" fill="#08491f" d="M 184.5,572.5 C 187.295,581.95 183.961,585.617 174.5,583.5C 182.616,584.296 185.949,580.629 184.5,572.5 Z"/></g>
<g><path style="opacity:1" fill="#15803c" d="M 151.5,574.5 C 152.833,574.5 154.167,574.5 155.5,574.5C 153.973,578.048 151.973,581.381 149.5,584.5C 147.604,585.466 145.604,585.799 143.5,585.5C 143.608,583.217 144.441,581.217 146,579.5C 148.191,578.167 150.024,576.5 151.5,574.5 Z"/></g>
<g><path style="opacity:1" fill="#031505" d="M 184.5,572.5 C 185.949,580.629 182.616,584.296 174.5,583.5C 168.391,579.024 168.057,574.191 173.5,569C 176.167,568.333 178.833,568.333 181.5,569C 182.163,570.518 183.163,571.685 184.5,572.5 Z"/></g>
<g><path style="opacity:1" fill="#14833d" d="M 174.5,572.5 C 181.536,571.603 183.203,574.103 179.5,580C 173.785,580.401 172.119,577.901 174.5,572.5 Z"/></g>
<g><path style="opacity:1" fill="#0f5f2c" d="M 195.5,566.5 C 195.5,563.167 195.5,559.833 195.5,556.5C 187.768,557.633 180.435,559.966 173.5,563.5C 175.8,560.676 178.8,558.843 182.5,558C 186.963,556.025 191.629,555.192 196.5,555.5C 196.815,559.371 196.482,563.038 195.5,566.5 Z"/></g>
<g><path style="opacity:1" fill="#167a44" d="M 179.5,537.5 C 179.342,539.821 178.342,541.654 176.5,543C 161.442,543.748 146.442,543.081 131.5,541C 130.584,540.722 129.918,540.222 129.5,539.5C 133.466,540.162 137.466,540.495 141.5,540.5C 152.8,541.601 164.133,541.767 175.5,541C 176.384,539.28 177.717,538.114 179.5,537.5 Z"/></g>
<g><path style="opacity:1" fill="#a4e1bc" d="M 33.5,389.5 C 33.1679,436.336 33.5012,483.003 34.5,529.5C 34.7615,541.398 36.4282,553.065 39.5,564.5C 39.5,564.833 39.5,565.167 39.5,565.5C 38.4415,564.4 37.6082,563.066 37,561.5C 34.7033,552.98 33.37,544.314 33,535.5C 32.1684,486.665 32.335,437.998 33.5,389.5 Z"/></g>
<g><path style="opacity:1" fill="#146634" d="M 302.5,479.5 C 302.833,479.5 303.167,479.5 303.5,479.5C 304.833,480.167 304.833,480.833 303.5,481.5C 302.833,481.5 302.5,481.833 302.5,482.5C 299.15,482.665 295.817,482.498 292.5,482C 292.043,481.586 291.709,481.086 291.5,480.5C 295.107,479.511 298.774,479.177 302.5,479.5 Z"/></g>
<g><path style="opacity:1" fill="#b6edcc" d="M 15.5,369.5 C 16.791,369.263 17.791,369.596 18.5,370.5C 16.5044,422.489 15.8377,474.823 16.5,527.5C 15.5011,475.003 15.1677,422.336 15.5,369.5 Z"/></g>
<g><path style="opacity:1" fill="#2f353c" d="M 197.5,464.5 C 197.5,468.5 197.5,472.5 197.5,476.5C 196.087,481.63 195.087,486.963 194.5,492.5C 194.5,493.167 194.5,493.833 194.5,494.5C 192.063,499.624 189.897,504.958 188,510.5C 186.846,514.447 186.013,518.447 185.5,522.5C 183.816,526.208 181.983,529.875 180,533.5C 179.51,534.793 179.343,536.127 179.5,537.5C 177.717,538.114 176.384,539.28 175.5,541C 164.133,541.767 152.8,541.601 141.5,540.5C 135.685,538.883 129.685,537.549 123.5,536.5C 123.693,532.993 123.027,529.66 121.5,526.5C 137.477,526.332 153.477,526.165 169.5,526C 172.345,522.944 174.345,519.444 175.5,515.5C 176.948,510.488 178.615,505.488 180.5,500.5C 180.5,500.167 180.5,499.833 180.5,499.5C 183.828,493.074 185.494,486.074 185.5,478.5C 187.768,466.945 190.101,455.279 192.5,443.5C 190.644,440.964 190.311,438.298 191.5,435.5C 193.179,437.104 195.179,437.771 197.5,437.5C 197.5,446.5 197.5,455.5 197.5,464.5 Z"/></g>
<g><path style="opacity:1" fill="#e6e5e4" d="M 179.5,522.5 C 177.53,527.115 175.53,531.782 173.5,536.5C 169.667,536.833 165.833,537.167 162,537.5C 150.128,536.903 138.295,535.903 126.5,534.5C 126.5,532.833 126.5,531.167 126.5,529.5C 141.674,530.001 156.674,530.001 171.5,529.5C 173.748,526.672 175.748,523.672 177.5,520.5C 179.203,519.34 179.869,520.007 179.5,522.5 Z"/></g>
<g><path style="opacity:1" fill="#686a71" d="M 171.5,529.5 C 156.674,530.001 141.674,530.001 126.5,529.5C 126.5,531.167 126.5,532.833 126.5,534.5C 125.539,532.735 125.205,530.735 125.5,528.5C 140.847,528.377 156.18,528.71 171.5,529.5 Z"/></g>
<g><path style="opacity:1" fill="#87d7a8" d="M 318.5,370.5 C 319.209,369.596 320.209,369.263 321.5,369.5C 321.832,422.669 321.499,475.669 320.5,528.5C 321.162,475.489 320.496,422.823 318.5,370.5 Z"/></g>
<g><path style="opacity:1" fill="#45a96c" d="M 303.5,479.5 C 303.167,479.5 302.833,479.5 302.5,479.5C 302.5,450.5 302.5,421.5 302.5,392.5C 290.239,396.574 277.573,399.241 264.5,400.5C 277.568,397.217 290.568,393.55 303.5,389.5C 303.5,419.5 303.5,449.5 303.5,479.5 Z"/></g>
<g><path style="opacity:1" fill="#37a35f" d="M 163.5,388.5 C 161.68,390.448 159.346,391.448 156.5,391.5C 156.5,392.5 156.5,393.5 156.5,394.5C 150.417,394.579 144.75,396.079 139.5,399C 135.176,399.87 130.842,400.703 126.5,401.5C 110.672,402.827 95.0051,402.827 79.5,401.5C 89.3478,401.827 99.0144,401.494 108.5,400.5C 127.685,400.115 146.018,396.115 163.5,388.5 Z"/></g>
<g><path style="opacity:1" fill="#079e42" d="M 264.5,400.5 C 277.573,399.241 290.239,396.574 302.5,392.5C 302.5,421.5 302.5,450.5 302.5,479.5C 298.774,479.177 295.107,479.511 291.5,480.5C 291.709,481.086 292.043,481.586 292.5,482C 295.817,482.498 299.15,482.665 302.5,482.5C 302.829,497.01 302.496,511.343 301.5,525.5C 301.5,511.5 301.5,497.5 301.5,483.5C 295.804,483.553 290.138,483.22 284.5,482.5C 284.5,478.167 284.5,473.833 284.5,469.5C 283.167,469.5 281.833,469.5 280.5,469.5C 280.81,472.713 280.477,475.713 279.5,478.5C 279.5,475.167 279.5,471.833 279.5,468.5C 281.5,468.5 283.5,468.5 285.5,468.5C 285.177,472.226 285.511,475.893 286.5,479.5C 287.114,474.758 287.947,470.091 289,465.5C 291.081,464.667 293.248,464.667 295.5,465.5C 295.557,463.116 295.223,460.782 294.5,458.5C 295.551,456.471 296.885,454.637 298.5,453C 297.313,450.41 295.48,449.91 293,451.5C 291.915,455.447 290.081,458.947 287.5,462C 284.854,462.497 282.187,462.664 279.5,462.5C 279.666,458.154 279.499,453.821 279,449.5C 278.617,448.944 278.117,448.611 277.5,448.5C 276.886,446.717 275.72,445.384 274,444.5C 273.506,442.866 273.34,441.199 273.5,439.5C 272.167,439.5 270.833,439.5 269.5,439.5C 269.34,437.801 269.506,436.134 270,434.5C 273.855,430.645 277.688,426.812 281.5,423C 281.15,421.743 280.483,421.409 279.5,422C 275.934,425.905 272.1,429.405 268,432.5C 267.502,435.817 267.335,439.15 267.5,442.5C 264.097,442.149 260.763,441.482 257.5,440.5C 257.666,436.154 257.499,431.821 257,427.5C 255.833,426.333 254.667,425.167 253.5,424C 252.365,423.251 251.365,423.417 250.5,424.5C 252.149,425.648 253.649,426.981 255,428.5C 255.499,432.152 255.665,435.818 255.5,439.5C 253.876,439.64 252.71,438.973 252,437.5C 250.905,438.693 250.072,440.027 249.5,441.5C 247.883,442.038 246.216,442.371 244.5,442.5C 244.719,441.325 244.386,440.325 243.5,439.5C 242.363,442.332 240.697,444.666 238.5,446.5C 233.476,447.313 231.476,450.313 232.5,455.5C 230.738,455.357 229.071,455.691 227.5,456.5C 226.504,450.202 226.17,443.868 226.5,437.5C 224.901,437.232 223.568,437.566 222.5,438.5C 221.861,439.097 221.528,439.93 221.5,441C 222.24,447.809 222.74,454.643 223,461.5C 226.057,462.451 229.223,462.784 232.5,462.5C 232.5,465.5 232.5,468.5 232.5,471.5C 227.125,471.828 221.792,471.495 216.5,470.5C 218.045,469.548 219.712,469.215 221.5,469.5C 221.5,468.5 221.5,467.5 221.5,466.5C 217.486,466.334 213.486,466.501 209.5,467C 209.043,467.414 208.709,467.914 208.5,468.5C 209.993,469.141 210.993,470.141 211.5,471.5C 211.5,472.833 211.5,474.167 211.5,475.5C 213.833,475.5 216.167,475.5 218.5,475.5C 218.532,483.386 219.198,483.386 220.5,475.5C 222.743,474.526 225.076,474.192 227.5,474.5C 227.5,475.833 227.5,477.167 227.5,478.5C 229.5,478.5 231.5,478.5 233.5,478.5C 234.061,481.462 235.061,484.295 236.5,487C 234.633,488.784 232.966,490.784 231.5,493C 231.833,493.5 232.167,494 232.5,494.5C 234.592,492.395 236.925,490.728 239.5,489.5C 239.271,491.433 238.438,493.1 237,494.5C 232.004,496.933 230.171,500.933 231.5,506.5C 219.5,507.167 219.5,507.833 231.5,508.5C 231.007,510.806 230.674,513.139 230.5,515.5C 231.833,515.5 233.167,515.5 234.5,515.5C 233.558,510.195 233.391,504.861 234,499.5C 235.833,497.667 237.667,495.833 239.5,494C 241.387,493.22 243.054,493.387 244.5,494.5C 240.853,494.622 238.019,496.288 236,499.5C 235.812,505.748 235.312,511.915 234.5,518C 234.833,518.333 235.167,518.667 235.5,519C 233.568,519.138 231.734,518.638 230,517.5C 229.503,514.854 229.336,512.187 229.5,509.5C 226.482,509.665 223.482,509.498 220.5,509C 219.167,508 219.167,507 220.5,506C 216.833,505.667 213.167,505.333 209.5,505C 208.944,504.617 208.611,504.117 208.5,503.5C 207.732,502.737 207.232,501.737 207,500.5C 206.346,501.696 205.846,501.696 205.5,500.5C 205.833,499.833 206.167,499.167 206.5,498.5C 202.927,498.402 199.261,497.735 195.5,496.5C 196.52,494.568 196.687,492.568 196,490.5C 195.722,491.416 195.222,492.082 194.5,492.5C 195.087,486.963 196.087,481.63 197.5,476.5C 199.059,473.132 199.892,469.465 200,465.5C 200.5,455.172 200.666,444.839 200.5,434.5C 198.167,434.5 195.833,434.5 193.5,434.5C 193.803,429.57 193.469,424.737 192.5,420C 184.664,419.005 176.997,417.839 169.5,416.5C 165.322,415.237 160.989,414.07 156.5,413C 148.939,412.675 141.439,411.842 134,410.5C 132.293,410.508 130.793,410.842 129.5,411.5C 128.504,411.414 127.671,411.748 127,412.5C 126.608,416.528 126.108,420.528 125.5,424.5C 116.527,423.701 107.86,424.868 99.5,428C 98.6195,428.708 97.9528,429.542 97.5,430.5C 95.2198,431.64 92.8864,432.807 90.5,434C 85.328,438.839 80.4946,444.006 76,449.5C 74.846,453.447 74.0127,457.447 73.5,461.5C 73.5,461.833 73.5,462.167 73.5,462.5C 72.3475,468.319 72.1808,474.319 73,480.5C 73.9425,483.374 75.1092,486.04 76.5,488.5C 77.6551,491.475 79.3218,494.142 81.5,496.5C 81.5,496.833 81.5,497.167 81.5,497.5C 82.1143,501.135 82.4476,504.802 82.5,508.5C 80.1806,507.833 77.8473,507.666 75.5,508C 74.9707,510.429 73.6374,512.262 71.5,513.5C 70.2528,515.323 69.5861,517.323 69.5,519.5C 67.4457,522.236 64.9457,524.569 62,526.5C 61.2612,529.546 60.4279,532.546 59.5,535.5C 57.8712,536.625 56.3712,537.959 55,539.5C 52.9142,544.763 49.9142,549.43 46,553.5C 44.4086,555.927 43.5752,558.593 43.5,561.5C 42.3634,562.789 41.0301,563.789 39.5,564.5C 36.4282,553.065 34.7615,541.398 34.5,529.5C 33.8383,482.821 34.505,436.488 36.5,390.5C 44.8323,393.995 53.499,396.328 62.5,397.5C 68.0044,399.145 73.671,400.479 79.5,401.5C 95.0051,402.827 110.672,402.827 126.5,401.5C 130.842,400.703 135.176,399.87 139.5,399C 144.75,396.079 150.417,394.579 156.5,394.5C 156.5,393.5 156.5,392.5 156.5,391.5C 159.346,391.448 161.68,390.448 163.5,388.5C 165.156,387.854 166.823,387.187 168.5,386.5C 184.485,394.583 201.485,399.416 219.5,401C 234.516,401.71 249.516,401.543 264.5,400.5 Z"/></g>
<g><path style="opacity:1" fill="#158d47" d="M 180.5,500.5 C 178.615,505.488 176.948,510.488 175.5,515.5C 172.908,517.827 170.908,520.661 169.5,524C 149.494,524.57 129.494,524.403 109.5,523.5C 109.055,520.635 109.722,518.135 111.5,516C 116.684,515.826 121.684,515.326 126.5,514.5C 129.843,513.776 133.176,512.943 136.5,512C 139.243,509.962 142.243,508.462 145.5,507.5C 145.5,508.5 145.5,509.5 145.5,510.5C 141.931,510.951 138.931,512.451 136.5,515C 131.566,516.16 126.566,516.66 121.5,516.5C 121.5,517.5 121.5,518.5 121.5,519.5C 119.266,519.62 117.099,519.287 115,518.5C 113.72,518.613 112.887,519.28 112.5,520.5C 123.128,521.753 133.795,522.419 144.5,522.5C 149.915,522.471 155.082,521.805 160,520.5C 162.497,522.478 165.331,522.978 168.5,522C 171.855,516.102 174.688,509.936 177,503.5C 178.039,502.29 179.206,501.29 180.5,500.5 Z"/></g>
<g><path style="opacity:1" fill="#105430" d="M 239.5,489.5 C 242.308,491.323 244.975,493.323 247.5,495.5C 246.391,495.443 245.391,495.11 244.5,494.5C 243.054,493.387 241.387,493.22 239.5,494C 237.667,495.833 235.833,497.667 234,499.5C 233.391,504.861 233.558,510.195 234.5,515.5C 233.167,515.5 231.833,515.5 230.5,515.5C 230.674,513.139 231.007,510.806 231.5,508.5C 219.5,507.833 219.5,507.167 231.5,506.5C 230.171,500.933 232.004,496.933 237,494.5C 238.438,493.1 239.271,491.433 239.5,489.5 Z"/></g>
<g><path style="opacity:1" fill="#1e6441" d="M 91.5,501.5 C 97.0233,500.673 98.6899,502.673 96.5,507.5C 96.9899,505.052 96.1566,503.385 94,502.5C 89.8255,505.002 87.8255,508.668 88,513.5C 89.3561,514.38 90.8561,514.714 92.5,514.5C 89.351,516.229 87.0176,515.395 85.5,512C 86.9118,508.106 88.9118,504.606 91.5,501.5 Z"/></g>
<g><path style="opacity:1" fill="#10763c" d="M 242.5,502.5 C 243.5,502.5 244.5,502.5 245.5,502.5C 245.828,507.875 245.495,513.208 244.5,518.5C 243.914,518.291 243.414,517.957 243,517.5C 242.501,512.511 242.334,507.511 242.5,502.5 Z"/></g>
<g><path style="opacity:1" fill="#168644" d="M 194.5,494.5 C 193.942,499.516 193.275,504.516 192.5,509.5C 193.675,509.281 194.675,509.614 195.5,510.5C 193.954,511.684 192.287,512.684 190.5,513.5C 188.535,516.438 186.869,519.438 185.5,522.5C 186.013,518.447 186.846,514.447 188,510.5C 189.897,504.958 192.063,499.624 194.5,494.5 Z"/></g>
<g><path style="opacity:1" fill="#197240" d="M 81.5,497.5 C 83.3198,499.129 84.6531,501.129 85.5,503.5C 84.3489,505.325 83.6822,507.325 83.5,509.5C 80.8333,509.5 78.1667,509.5 75.5,509.5C 75.6495,510.552 75.4828,511.552 75,512.5C 72.6755,514.501 70.8421,516.834 69.5,519.5C 69.5861,517.323 70.2528,515.323 71.5,513.5C 73.6374,512.262 74.9707,510.429 75.5,508C 77.8473,507.666 80.1806,507.833 82.5,508.5C 82.4476,504.802 82.1143,501.135 81.5,497.5 Z"/></g>
<g><path style="opacity:1" fill="#106f3a" d="M 287.5,496.5 C 289.463,503.424 290.13,510.757 289.5,518.5C 288.5,518.5 287.5,518.5 286.5,518.5C 286.203,511.08 286.536,503.746 287.5,496.5 Z"/></g>
<g><path style="opacity:1" fill="#0e9943" d="M 96.5,507.5 C 94.412,509.336 93.0787,511.669 92.5,514.5C 90.8561,514.714 89.3561,514.38 88,513.5C 87.8255,508.668 89.8255,505.002 94,502.5C 96.1566,503.385 96.9899,505.052 96.5,507.5 Z"/></g>
<g><path style="opacity:1" fill="#0a5b2d" d="M 208.5,503.5 C 210.048,502.206 212.048,501.539 214.5,501.5C 216.5,501.833 218.5,502.167 220.5,502.5C 216.555,503.491 212.555,503.824 208.5,503.5 Z"/></g>
<g><path style="opacity:1" fill="#175f39" d="M 277.5,448.5 C 278.117,448.611 278.617,448.944 279,449.5C 279.499,453.821 279.666,458.154 279.5,462.5C 282.187,462.664 284.854,462.497 287.5,462C 290.081,458.947 291.915,455.447 293,451.5C 295.48,449.91 297.313,450.41 298.5,453C 296.885,454.637 295.551,456.471 294.5,458.5C 295.223,460.782 295.557,463.116 295.5,465.5C 293.248,464.667 291.081,464.667 289,465.5C 287.947,470.091 287.114,474.758 286.5,479.5C 285.511,475.893 285.177,472.226 285.5,468.5C 283.5,468.5 281.5,468.5 279.5,468.5C 279.5,471.833 279.5,475.167 279.5,478.5C 278.207,483.413 278.874,488.079 281.5,492.5C 279.412,493.489 277.412,493.156 275.5,491.5C 274.526,493.743 274.192,496.076 274.5,498.5C 278.5,499.167 278.5,499.833 274.5,500.5C 274.5,503.5 274.5,506.5 274.5,509.5C 273.5,509.5 272.5,509.5 271.5,509.5C 271.5,507.833 271.5,506.167 271.5,504.5C 264.833,504.167 264.833,503.833 271.5,503.5C 271.5,502.167 271.5,500.833 271.5,499.5C 270.5,499.5 269.5,499.5 268.5,499.5C 268.5,498.167 268.5,496.833 268.5,495.5C 265.214,496.743 261.88,498.077 258.5,499.5C 257.005,523.473 255.838,523.473 255,499.5C 251.995,498.973 249.495,497.64 247.5,495.5C 251.747,496.85 256.08,497.35 260.5,497C 263.215,495.092 266.215,493.759 269.5,493C 272.087,490.919 274.087,488.419 275.5,485.5C 277.22,483.342 278.053,480.675 278,477.5C 278.782,467.786 278.615,458.12 277.5,448.5 Z"/></g>
<g><path style="opacity:1" fill="#253136" d="M 275.5,485.5 C 274.087,488.419 272.087,490.919 269.5,493C 266.215,493.759 263.215,495.092 260.5,497C 256.08,497.35 251.747,496.85 247.5,495.5C 244.975,493.323 242.308,491.323 239.5,489.5C 237.562,487.806 237.229,485.806 238.5,483.5C 241.317,485.817 243.984,488.317 246.5,491C 248.441,492.903 250.774,493.736 253.5,493.5C 256.122,495.008 258.455,494.508 260.5,492C 262.134,491.506 263.801,491.34 265.5,491.5C 269.434,489.402 272.6,486.402 275,482.5C 275.483,483.448 275.649,484.448 275.5,485.5 Z"/></g>
<g><path style="opacity:1" fill="#34383f" d="M 131.5,428.5 C 133.927,428.523 136.26,429.023 138.5,430C 144.953,435.285 150.953,441.118 156.5,447.5C 157.808,452.868 159.308,458.201 161,463.5C 161.499,469.157 161.666,474.824 161.5,480.5C 159.997,484.341 158.664,488.341 157.5,492.5C 153.502,497.455 149.502,502.455 145.5,507.5C 142.243,508.462 139.243,509.962 136.5,512C 133.176,512.943 129.843,513.776 126.5,514.5C 120.618,514.232 114.785,514.566 109,515.5C 106.018,511.953 102.352,510.62 98,511.5C 98.3685,508.21 98.3685,504.877 98,501.5C 95.7265,500.189 93.5598,500.189 91.5,501.5C 87.9099,500.372 84.5766,498.705 81.5,496.5C 79.3218,494.142 77.6551,491.475 76.5,488.5C 76.9383,485.107 76.1049,482.107 74,479.5C 73.5006,473.843 73.3339,468.176 73.5,462.5C 73.5,462.167 73.5,461.833 73.5,461.5C 75.7183,458.281 76.885,454.614 77,450.5C 80.7529,447.167 83.9195,443.334 86.5,439C 90.2355,436.147 93.9021,433.313 97.5,430.5C 98.1667,430.5 98.8333,430.5 99.5,430.5C 108.651,428.176 117.985,427.009 127.5,427C 128.314,422.573 129.814,418.406 132,414.5C 132.262,418.234 131.762,421.901 130.5,425.5C 130.52,426.726 130.853,427.726 131.5,428.5 Z"/></g>
<g><path style="opacity:1" fill="#177e45" d="M 162.5,462.5 C 163.654,468.987 163.821,475.654 163,482.5C 162.173,486.468 160.339,489.801 157.5,492.5C 158.664,488.341 159.997,484.341 161.5,480.5C 162.49,474.69 162.823,468.69 162.5,462.5 Z"/></g>
<g><path style="opacity:1" fill="#175636" d="M 240.5,450.5 C 240.167,451.167 239.833,451.833 239.5,452.5C 238.167,461.833 238.167,471.167 239.5,480.5C 242.878,486.211 247.545,490.545 253.5,493.5C 250.774,493.736 248.441,492.903 246.5,491C 243.984,488.317 241.317,485.817 238.5,483.5C 237.229,485.806 237.562,487.806 239.5,489.5C 236.925,490.728 234.592,492.395 232.5,494.5C 232.167,494 231.833,493.5 231.5,493C 232.966,490.784 234.633,488.784 236.5,487C 235.061,484.295 234.061,481.462 233.5,478.5C 231.5,478.5 229.5,478.5 227.5,478.5C 227.5,477.167 227.5,475.833 227.5,474.5C 225.076,474.192 222.743,474.526 220.5,475.5C 219.198,483.386 218.532,483.386 218.5,475.5C 216.167,475.5 213.833,475.5 211.5,475.5C 211.5,474.167 211.5,472.833 211.5,471.5C 218.799,472.35 226.132,472.683 233.5,472.5C 233.249,476.331 234.416,479.664 237,482.5C 237.333,472.167 237.667,461.833 238,451.5C 238.671,450.748 239.504,450.414 240.5,450.5 Z"/></g>
<g><path style="opacity:1" fill="#19623c" d="M 73.5,462.5 C 73.3339,468.176 73.5006,473.843 74,479.5C 76.1049,482.107 76.9383,485.107 76.5,488.5C 75.1092,486.04 73.9425,483.374 73,480.5C 72.1808,474.319 72.3475,468.319 73.5,462.5 Z"/></g>
<g><path style="opacity:1" fill="#abafb2" d="M 179.5,522.5 C 179.869,520.007 179.203,519.34 177.5,520.5C 181.915,510.849 185.415,500.849 188,490.5C 190.825,474.272 192.825,457.939 194,441.5C 195.187,469.723 190.353,496.723 179.5,522.5 Z"/></g>
<g><path style="opacity:1" fill="#676e6c" d="M 157.5,477.5 C 157.768,479.099 157.434,480.432 156.5,481.5C 137.517,479.84 118.184,478.84 98.5,478.5C 118.155,477.5 137.822,477.167 157.5,477.5 Z"/></g>
<g><path style="opacity:1" fill="#195237" d="M 156.5,447.5 C 158.268,449.922 159.768,452.588 161,455.5C 161.977,457.74 162.477,460.073 162.5,462.5C 162.823,468.69 162.49,474.69 161.5,480.5C 161.666,474.824 161.499,469.157 161,463.5C 159.308,458.201 157.808,452.868 156.5,447.5 Z"/></g>
<g><path style="opacity:1" fill="#929597" d="M 157.5,465.5 C 158.461,467.265 158.795,469.265 158.5,471.5C 139.326,471.17 120.326,471.503 101.5,472.5C 100.957,472.44 100.624,472.107 100.5,471.5C 119.488,470.5 138.488,470.167 157.5,470.5C 157.5,468.833 157.5,467.167 157.5,465.5 Z"/></g>
<g><path style="opacity:1" fill="#575b5e" d="M 157.5,463.5 C 157.5,464.167 157.5,464.833 157.5,465.5C 139.144,465.826 120.81,465.826 102.5,465.5C 120.81,464.191 139.143,463.525 157.5,463.5 Z"/></g>
<g><path style="opacity:1" fill="#148041" d="M 222.5,438.5 C 224.352,445.947 225.019,453.613 224.5,461.5C 227.5,461.5 230.5,461.5 233.5,461.5C 233.5,464.833 233.5,468.167 233.5,471.5C 233.5,471.833 233.5,472.167 233.5,472.5C 226.132,472.683 218.799,472.35 211.5,471.5C 210.993,470.141 209.993,469.141 208.5,468.5C 208.709,467.914 209.043,467.414 209.5,467C 213.486,466.501 217.486,466.334 221.5,466.5C 221.5,467.5 221.5,468.5 221.5,469.5C 219.712,469.215 218.045,469.548 216.5,470.5C 221.792,471.495 227.125,471.828 232.5,471.5C 232.5,468.5 232.5,465.5 232.5,462.5C 229.223,462.784 226.057,462.451 223,461.5C 222.74,454.643 222.24,447.809 221.5,441C 221.528,439.93 221.861,439.097 222.5,438.5 Z"/></g>
<g><path style="opacity:1" fill="#e6e3e2" d="M 96.5,436.5 C 97.6935,436.97 98.3601,437.97 98.5,439.5C 96.4755,451.931 93.9755,464.264 91,476.5C 89.4125,481.855 87.0791,486.855 84,491.5C 72.3762,469.545 76.5428,451.212 96.5,436.5 Z"/></g>
<g><path style="opacity:1" fill="#197d45" d="M 193.5,434.5 C 195.833,434.5 198.167,434.5 200.5,434.5C 200.666,444.839 200.5,455.172 200,465.5C 199.892,469.465 199.059,473.132 197.5,476.5C 197.5,472.5 197.5,468.5 197.5,464.5C 198.658,455.343 198.824,446.009 198,436.5C 196.378,435.901 194.878,435.234 193.5,434.5 Z"/></g>
<g><path style="opacity:1" fill="#606467" d="M 154.5,455.5 C 154.833,456.167 155.167,456.833 155.5,457.5C 138.811,457.876 122.144,457.876 105.5,457.5C 121.798,456.001 138.131,455.335 154.5,455.5 Z"/></g>
<g><path style="opacity:1" fill="#0e9644" d="M 263.5,446.5 C 267.121,447.876 270.621,449.542 274,451.5C 274.667,460.833 274.667,470.167 274,479.5C 272.142,484.191 269.309,488.191 265.5,491.5C 263.801,491.34 262.134,491.506 260.5,492C 258.455,494.508 256.122,495.008 253.5,493.5C 247.545,490.545 242.878,486.211 239.5,480.5C 239.338,478.473 239.505,476.473 240,474.5C 240.72,476.056 241.887,477.056 243.5,477.5C 244.5,478.833 245.5,480.167 246.5,481.5C 252.796,485.494 259.129,485.494 265.5,481.5C 267.167,480.5 268.5,479.167 269.5,477.5C 271.067,476.319 271.901,474.653 272,472.5C 273.814,465.77 271.98,460.436 266.5,456.5C 265.251,454.864 263.584,453.697 261.5,453C 257.642,452.19 253.976,452.357 250.5,453.5C 248.973,453.427 247.973,454.094 247.5,455.5C 246.833,455.5 246.5,455.833 246.5,456.5C 243.572,457.591 241.406,459.591 240,462.5C 239.502,459.183 239.335,455.85 239.5,452.5C 239.833,451.833 240.167,451.167 240.5,450.5C 244.069,448.917 247.735,447.417 251.5,446C 255.537,445.393 259.537,445.56 263.5,446.5 Z"/></g>
<g><path style="opacity:1" fill="#146239" d="M 265.5,481.5 C 259.129,485.494 252.796,485.494 246.5,481.5C 248.176,480.817 248.843,479.483 248.5,477.5C 253.638,477.63 258.638,477.296 263.5,476.5C 264.17,478.291 264.837,479.958 265.5,481.5 Z"/></g>
<g><path style="opacity:1" fill="#136237" d="M 238.5,446.5 C 237.685,447.837 236.518,448.837 235,449.5C 234.829,457.011 234.329,464.345 233.5,471.5C 233.5,468.167 233.5,464.833 233.5,461.5C 230.5,461.5 227.5,461.5 224.5,461.5C 225.019,453.613 224.352,445.947 222.5,438.5C 223.568,437.566 224.901,437.232 226.5,437.5C 226.17,443.868 226.504,450.202 227.5,456.5C 229.071,455.691 230.738,455.357 232.5,455.5C 231.476,450.313 233.476,447.313 238.5,446.5 Z"/></g>
<g><path style="opacity:1" fill="#188044" d="M 167.5,421.5 C 171.179,421.724 174.846,422.058 178.5,422.5C 181.777,422.216 184.943,422.549 188,423.5C 188.667,433.167 188.667,442.833 188,452.5C 186.896,461.146 186.062,469.813 185.5,478.5C 185.494,486.074 183.828,493.074 180.5,499.5C 183.442,486.462 185.276,473.129 186,459.5C 186.667,448.5 186.667,437.5 186,426.5C 179.724,424.884 173.558,423.218 167.5,421.5 Z"/></g>
<g><path style="opacity:1" fill="#203b34" d="M 249.5,441.5 C 252.096,440.735 254.763,440.401 257.5,440.5C 260.763,441.482 264.097,442.149 267.5,442.5C 270.827,444.448 274.16,446.448 277.5,448.5C 278.615,458.12 278.782,467.786 278,477.5C 278.053,480.675 277.22,483.342 275.5,485.5C 275.649,484.448 275.483,483.448 275,482.5C 272.6,486.402 269.434,489.402 265.5,491.5C 269.309,488.191 272.142,484.191 274,479.5C 274.667,470.167 274.667,460.833 274,451.5C 270.621,449.542 267.121,447.876 263.5,446.5C 256.428,443.615 249.428,444.115 242.5,448C 241.619,448.708 240.953,449.542 240.5,450.5C 239.504,450.414 238.671,450.748 238,451.5C 237.667,461.833 237.333,472.167 237,482.5C 234.416,479.664 233.249,476.331 233.5,472.5C 233.5,472.167 233.5,471.833 233.5,471.5C 234.329,464.345 234.829,457.011 235,449.5C 236.518,448.837 237.685,447.837 238.5,446.5C 240.697,444.666 242.363,442.332 243.5,439.5C 244.386,440.325 244.719,441.325 244.5,442.5C 246.216,442.371 247.883,442.038 249.5,441.5 Z"/></g>
<g><path style="opacity:1" fill="#184833" d="M 269.5,477.5 C 268.5,479.167 267.167,480.5 265.5,481.5C 264.837,479.958 264.17,478.291 263.5,476.5C 258.638,477.296 253.638,477.63 248.5,477.5C 248.843,479.483 248.176,480.817 246.5,481.5C 245.5,480.167 244.5,478.833 243.5,477.5C 243.5,476.5 243.5,475.5 243.5,474.5C 251.576,475.091 259.409,475.091 267,474.5C 268.749,474.748 269.582,475.748 269.5,477.5 Z"/></g>
<g><path style="opacity:1" fill="#15713e" d="M 239.5,452.5 C 239.335,455.85 239.502,459.183 240,462.5C 241.406,459.591 243.572,457.591 246.5,456.5C 245.524,457.815 244.524,459.148 243.5,460.5C 245.743,461.474 248.076,461.808 250.5,461.5C 251.575,465.923 249.908,467.923 245.5,467.5C 243.68,467.351 242.18,466.684 241,465.5C 240.51,466.793 240.343,468.127 240.5,469.5C 250.855,469.832 261.188,469.499 271.5,468.5C 268.893,467.682 266.226,467.182 263.5,467C 262.594,465.301 262.261,463.467 262.5,461.5C 268.3,463.367 269.634,461.701 266.5,456.5C 271.98,460.436 273.814,465.77 272,472.5C 271.901,474.653 271.067,476.319 269.5,477.5C 269.582,475.748 268.749,474.748 267,474.5C 259.409,475.091 251.576,475.091 243.5,474.5C 243.5,475.5 243.5,476.5 243.5,477.5C 241.887,477.056 240.72,476.056 240,474.5C 239.505,476.473 239.338,478.473 239.5,480.5C 238.167,471.167 238.167,461.833 239.5,452.5 Z"/></g>
<g><path style="opacity:1" fill="#164e33" d="M 266.5,456.5 C 269.634,461.701 268.3,463.367 262.5,461.5C 262.261,463.467 262.594,465.301 263.5,467C 266.226,467.182 268.893,467.682 271.5,468.5C 261.188,469.499 250.855,469.832 240.5,469.5C 240.343,468.127 240.51,466.793 241,465.5C 242.18,466.684 243.68,467.351 245.5,467.5C 249.908,467.923 251.575,465.923 250.5,461.5C 248.076,461.808 245.743,461.474 243.5,460.5C 244.524,459.148 245.524,457.815 246.5,456.5C 246.5,455.833 246.833,455.5 247.5,455.5C 248.451,456.919 248.784,458.585 248.5,460.5C 249.978,460.238 251.311,460.571 252.5,461.5C 251.652,463.409 251.318,465.409 251.5,467.5C 254.833,467.5 258.167,467.5 261.5,467.5C 261.838,464.843 261.171,462.51 259.5,460.5C 261.167,459.833 262.833,459.167 264.5,458.5C 262.877,456.105 260.544,454.772 257.5,454.5C 256.033,454.723 254.533,455.056 253,455.5C 252.005,454.934 251.172,454.267 250.5,453.5C 253.976,452.357 257.642,452.19 261.5,453C 263.584,453.697 265.251,454.864 266.5,456.5 Z"/></g>
<g><path style="opacity:1" fill="#176a3e" d="M 250.5,453.5 C 251.172,454.267 252.005,454.934 253,455.5C 254.533,455.056 256.033,454.723 257.5,454.5C 260.544,454.772 262.877,456.105 264.5,458.5C 262.833,459.167 261.167,459.833 259.5,460.5C 261.171,462.51 261.838,464.843 261.5,467.5C 258.167,467.5 254.833,467.5 251.5,467.5C 251.318,465.409 251.652,463.409 252.5,461.5C 251.311,460.571 249.978,460.238 248.5,460.5C 248.784,458.585 248.451,456.919 247.5,455.5C 247.973,454.094 248.973,453.427 250.5,453.5 Z"/></g>
<g><path style="opacity:1" fill="#19673f" d="M 263.5,446.5 C 259.537,445.56 255.537,445.393 251.5,446C 247.735,447.417 244.069,448.917 240.5,450.5C 240.953,449.542 241.619,448.708 242.5,448C 249.428,444.115 256.428,443.615 263.5,446.5 Z"/></g>
<g><path style="opacity:1" fill="#186a3e" d="M 97.5,430.5 C 93.9021,433.313 90.2355,436.147 86.5,439C 83.9195,443.334 80.7529,447.167 77,450.5C 76.885,454.614 75.7183,458.281 73.5,461.5C 74.0127,457.447 74.846,453.447 76,449.5C 80.4946,444.006 85.328,438.839 90.5,434C 92.8864,432.807 95.2198,431.64 97.5,430.5 Z"/></g>
<g><path style="opacity:1" fill="#e4e3e2" d="M 154.5,455.5 C 138.131,455.335 121.798,456.001 105.5,457.5C 122.144,457.876 138.811,457.876 155.5,457.5C 156.458,459.302 157.125,461.302 157.5,463.5C 139.143,463.525 120.81,464.191 102.5,465.5C 120.81,465.826 139.144,465.826 157.5,465.5C 157.5,467.167 157.5,468.833 157.5,470.5C 138.488,470.167 119.488,470.5 100.5,471.5C 100.624,472.107 100.957,472.44 101.5,472.5C 120.167,472.5 138.833,472.5 157.5,472.5C 157.5,474.167 157.5,475.833 157.5,477.5C 137.822,477.167 118.155,477.5 98.5,478.5C 118.184,478.84 137.517,479.84 156.5,481.5C 149.862,500.625 136.362,510.291 116,510.5C 111.337,510.632 106.837,509.965 102.5,508.5C 103.602,501.771 100.769,498.104 94,497.5C 91.813,497.788 89.6463,498.122 87.5,498.5C 92.1505,486.382 96.3172,474.049 100,461.5C 101.358,451.738 103.191,442.071 105.5,432.5C 123.028,428.59 137.861,433.257 150,446.5C 152.038,449.243 153.538,452.243 154.5,455.5 Z"/></g>
<g><path style="opacity:1" fill="#606160" d="M 136.5,482.5 C 137.978,482.238 139.311,482.571 140.5,483.5C 139.833,483.833 139.167,484.167 138.5,484.5C 137.287,484.253 136.62,483.586 136.5,482.5 Z"/></g>
<g><path style="opacity:1" fill="#5a5d5c" d="M 105.5,451.5 C 108.898,451.18 112.232,451.513 115.5,452.5C 113.833,452.833 112.167,453.167 110.5,453.5C 108.36,453.444 106.694,452.777 105.5,451.5 Z"/></g>
<g><path style="opacity:1" fill="#0c6234" d="M 257.5,440.5 C 254.763,440.401 252.096,440.735 249.5,441.5C 250.072,440.027 250.905,438.693 252,437.5C 252.71,438.973 253.876,439.64 255.5,439.5C 255.665,435.818 255.499,432.152 255,428.5C 253.649,426.981 252.149,425.648 250.5,424.5C 251.365,423.417 252.365,423.251 253.5,424C 254.667,425.167 255.833,426.333 257,427.5C 257.499,431.821 257.666,436.154 257.5,440.5 Z"/></g>
<g><path style="opacity:1" fill="#0c6f38" d="M 287.5,423.5 C 288.5,423.5 289.5,423.5 290.5,423.5C 290.829,429.206 290.495,434.872 289.5,440.5C 288.914,440.291 288.414,439.957 288,439.5C 287.501,434.177 287.334,428.844 287.5,423.5 Z"/></g>
<g><path style="opacity:1" fill="#0e6635" d="M 277.5,448.5 C 274.16,446.448 270.827,444.448 267.5,442.5C 267.335,439.15 267.502,435.817 268,432.5C 272.1,429.405 275.934,425.905 279.5,422C 280.483,421.409 281.15,421.743 281.5,423C 277.688,426.812 273.855,430.645 270,434.5C 269.506,436.134 269.34,437.801 269.5,439.5C 270.833,439.5 272.167,439.5 273.5,439.5C 273.34,441.199 273.506,442.866 274,444.5C 275.72,445.384 276.886,446.717 277.5,448.5 Z"/></g>
<g><path style="opacity:1" fill="#168746" d="M 129.5,411.5 C 128.595,416.494 127.595,421.494 126.5,426.5C 117.689,426.027 109.022,426.861 100.5,429C 99.944,429.383 99.6107,429.883 99.5,430.5C 98.8333,430.5 98.1667,430.5 97.5,430.5C 97.9528,429.542 98.6195,428.708 99.5,428C 107.86,424.868 116.527,423.701 125.5,424.5C 126.108,420.528 126.608,416.528 127,412.5C 127.671,411.748 128.504,411.414 129.5,411.5 Z"/></g>
<g><path style="opacity:1" fill="#223835" d="M 129.5,411.5 C 142.723,413.722 156.056,415.388 169.5,416.5C 176.997,417.839 184.664,419.005 192.5,420C 193.469,424.737 193.803,429.57 193.5,434.5C 194.878,435.234 196.378,435.901 198,436.5C 198.824,446.009 198.658,455.343 197.5,464.5C 197.5,455.5 197.5,446.5 197.5,437.5C 195.179,437.771 193.179,437.104 191.5,435.5C 190.311,438.298 190.644,440.964 192.5,443.5C 190.101,455.279 187.768,466.945 185.5,478.5C 186.062,469.813 186.896,461.146 188,452.5C 188.667,442.833 188.667,433.167 188,423.5C 184.943,422.549 181.777,422.216 178.5,422.5C 166.39,420.2 154.057,418.533 141.5,417.5C 138.833,417.5 136.167,417.5 133.5,417.5C 132.537,421.101 131.87,424.767 131.5,428.5C 130.853,427.726 130.52,426.726 130.5,425.5C 131.762,421.901 132.262,418.234 132,414.5C 129.814,418.406 128.314,422.573 127.5,427C 117.985,427.009 108.651,428.176 99.5,430.5C 99.6107,429.883 99.944,429.383 100.5,429C 109.022,426.861 117.689,426.027 126.5,426.5C 127.595,421.494 128.595,416.494 129.5,411.5 Z"/></g>
<g><path style="opacity:1" fill="#059e41" d="M 141.5,417.5 C 149.937,419.469 158.604,420.802 167.5,421.5C 173.558,423.218 179.724,424.884 186,426.5C 186.667,437.5 186.667,448.5 186,459.5C 185.276,473.129 183.442,486.462 180.5,499.5C 180.5,499.833 180.5,500.167 180.5,500.5C 179.206,501.29 178.039,502.29 177,503.5C 174.688,509.936 171.855,516.102 168.5,522C 165.331,522.978 162.497,522.478 160,520.5C 155.082,521.805 149.915,522.471 144.5,522.5C 133.795,522.419 123.128,521.753 112.5,520.5C 112.887,519.28 113.72,518.613 115,518.5C 117.099,519.287 119.266,519.62 121.5,519.5C 121.5,518.5 121.5,517.5 121.5,516.5C 126.566,516.66 131.566,516.16 136.5,515C 138.931,512.451 141.931,510.951 145.5,510.5C 145.5,509.5 145.5,508.5 145.5,507.5C 149.502,502.455 153.502,497.455 157.5,492.5C 160.339,489.801 162.173,486.468 163,482.5C 163.821,475.654 163.654,468.987 162.5,462.5C 162.477,460.073 161.977,457.74 161,455.5C 159.768,452.588 158.268,449.922 156.5,447.5C 150.953,441.118 144.953,435.285 138.5,430C 136.26,429.023 133.927,428.523 131.5,428.5C 131.87,424.767 132.537,421.101 133.5,417.5C 136.167,417.5 138.833,417.5 141.5,417.5 Z"/></g>
<g><path style="opacity:1" fill="#1a4935" d="M 141.5,417.5 C 154.057,418.533 166.39,420.2 178.5,422.5C 174.846,422.058 171.179,421.724 167.5,421.5C 158.604,420.802 149.937,419.469 141.5,417.5 Z"/></g>
<g><path style="opacity:1" fill="#168845" d="M 129.5,411.5 C 130.793,410.842 132.293,410.508 134,410.5C 141.439,411.842 148.939,412.675 156.5,413C 160.989,414.07 165.322,415.237 169.5,416.5C 156.056,415.388 142.723,413.722 129.5,411.5 Z"/></g>
<g><path style="opacity:1" fill="#caf0d8" d="M 62.5,397.5 C 77.7798,399.295 93.1131,400.295 108.5,400.5C 99.0144,401.494 89.3478,401.827 79.5,401.5C 73.671,400.479 68.0044,399.145 62.5,397.5 Z"/></g>
<g><path style="opacity:1" fill="#d5f5e2" d="M 122.5,379.5 C 120.036,380.743 117.37,381.743 114.5,382.5C 99.5418,384.26 84.5418,384.76 69.5,384C 64.56,383.317 59.8934,382.15 55.5,380.5C 73.3176,383.03 90.9843,383.03 108.5,380.5C 113.193,380.46 117.859,380.127 122.5,379.5 Z"/></g>
<g><path style="opacity:1" fill="#baedcf" d="M 223.5,381.5 C 236.485,382.27 249.485,382.603 262.5,382.5C 257.511,383.166 252.344,383.499 247,383.5C 238.944,383.662 231.111,382.995 223.5,381.5 Z"/></g>
<g><path style="opacity:1" fill="#319f58" d="M 285.5,378.5 C 278.2,380.05 270.867,381.383 263.5,382.5C 263.167,382.5 262.833,382.5 262.5,382.5C 249.485,382.603 236.485,382.27 223.5,381.5C 219.575,381.57 215.909,380.903 212.5,379.5C 225.164,379.833 237.831,380.166 250.5,380.5C 262.183,379.938 273.85,379.271 285.5,378.5 Z"/></g>
<g><path style="opacity:1" fill="#289d53" d="M 28.5,373.5 C 42.8454,375.513 57.1787,377.68 71.5,380C 83.8288,380.5 96.1622,380.667 108.5,380.5C 90.9843,383.03 73.3176,383.03 55.5,380.5C 46.1507,379.037 37.1507,376.704 28.5,373.5 Z"/></g>
<g><path style="opacity:1" fill="#cef1dc" d="M 310.5,373.5 C 308.622,374.208 306.955,375.374 305.5,377C 291.743,380.868 277.743,382.701 263.5,382.5C 270.867,381.383 278.2,380.05 285.5,378.5C 294.057,377.608 302.39,375.941 310.5,373.5 Z"/></g>
<g><path style="opacity:1" fill="#defbea" d="M 318.5,370.5 C 320.496,422.823 321.162,475.489 320.5,528.5C 319.771,539.127 318.104,549.46 315.5,559.5C 316.761,549.868 317.927,540.201 319,530.5C 319.5,477.501 319.667,424.501 319.5,371.5C 316.402,371.756 313.402,372.422 310.5,373.5C 312.617,371.345 315.284,370.345 318.5,370.5 Z"/></g>
<g><path style="opacity:1" fill="#05290e" d="M 219.5,589.5 C 220.209,588.596 221.209,588.263 222.5,588.5C 222.831,614.005 222.498,639.339 221.5,664.5C 222.157,639.144 221.491,614.144 219.5,589.5 Z"/></g>
<g><path style="opacity:1" fill="#002b0b" d="M 200.5,615.5 C 201.209,614.596 202.209,614.263 203.5,614.5C 203.333,631.837 203.5,649.17 204,666.5C 210.744,667.479 217.578,667.812 224.5,667.5C 217.265,668.811 209.932,668.811 202.5,667.5C 203.153,649.801 202.486,632.468 200.5,615.5 Z"/></g>
<g><path style="opacity:1" fill="#a5e0bc" d="M 76.5,638.5 C 80.2343,641.231 83.2343,644.564 85.5,648.5C 81.7657,645.769 78.7657,642.436 76.5,638.5 Z"/></g>
<g><path style="opacity:1" fill="#a8e3be" d="M 257.5,641.5 C 254.23,646.44 250.23,650.773 245.5,654.5C 248.77,649.56 252.77,645.227 257.5,641.5 Z"/></g>
<g><path style="opacity:0.325" fill="#abe3c2" d="M 320.5,595.5 C 308.832,627.46 290.832,655.126 266.5,678.5C 277.191,665.967 287.358,652.967 297,639.5C 304.742,626.683 311.409,613.35 317,599.5C 317.949,597.907 319.115,596.574 320.5,595.5 Z"/></g>
<g><path style="opacity:1" fill="#031605" d="M 188.5,623.5 C 186.706,625.797 184.706,627.963 182.5,630C 183.252,630.671 183.586,631.504 183.5,632.5C 181.203,634.294 179.037,636.294 177,638.5C 176.5,647.16 176.334,655.827 176.5,664.5C 181.5,664.5 186.5,664.5 191.5,664.5C 191.5,651.833 191.5,639.167 191.5,626.5C 192.331,638.66 192.831,650.993 193,663.5C 193.21,665.058 193.71,666.391 194.5,667.5C 187.5,668.833 180.5,668.833 173.5,667.5C 173.5,659.167 173.5,650.833 173.5,642.5C 171.067,642.273 169.401,643.273 168.5,645.5C 167.504,645.414 166.671,645.748 166,646.5C 165.829,653.679 165.329,660.679 164.5,667.5C 157.5,667.5 150.5,667.5 143.5,667.5C 142.769,662.927 143.769,658.927 146.5,655.5C 161.326,646.019 175.326,635.353 188.5,623.5 Z"/></g>
<g><path style="opacity:1" fill="#196333" d="M 158.5,652.5 C 159.209,651.596 160.209,651.263 161.5,651.5C 161.5,655.833 161.5,660.167 161.5,664.5C 156.5,664.5 151.5,664.5 146.5,664.5C 146.216,662.585 146.549,660.919 147.5,659.5C 147.5,660.833 147.5,662.167 147.5,663.5C 151.833,663.5 156.167,663.5 160.5,663.5C 161.08,659.351 160.414,655.684 158.5,652.5 Z"/></g>
<g><path style="opacity:1" fill="#119041" d="M 158.5,652.5 C 160.414,655.684 161.08,659.351 160.5,663.5C 156.167,663.5 151.833,663.5 147.5,663.5C 147.5,662.167 147.5,660.833 147.5,659.5C 150.894,656.779 154.561,654.446 158.5,652.5 Z"/></g>
<g><path style="opacity:1" fill="#0c411b" d="M 173.5,667.5 C 172.671,659.677 172.171,651.677 172,643.5C 171.184,644.823 170.017,645.489 168.5,645.5C 169.401,643.273 171.067,642.273 173.5,642.5C 173.5,650.833 173.5,659.167 173.5,667.5 Z"/></g>
<g><path style="opacity:1" fill="#136b35" d="M 191.5,626.5 C 191.5,639.167 191.5,651.833 191.5,664.5C 186.5,664.5 181.5,664.5 176.5,664.5C 176.334,655.827 176.5,647.16 177,638.5C 179.037,636.294 181.203,634.294 183.5,632.5C 185.902,630.091 188.569,628.091 191.5,626.5 Z"/></g>
<g><path style="opacity:1" fill="#089d42" d="M 189.5,628.5 C 190.495,639.988 190.828,651.655 190.5,663.5C 186.167,663.5 181.833,663.5 177.5,663.5C 177.334,655.493 177.5,647.493 178,639.5C 181.812,635.702 185.645,632.035 189.5,628.5 Z"/></g>
<g><path style="opacity:0.239" fill="#c1edd2" d="M 11.5,581.5 C 12.1174,581.611 12.6174,581.944 13,582.5C 16.0775,591.644 19.4108,600.644 23,609.5C 28.3003,619.147 33.6336,628.813 39,638.5C 64.9379,679.005 100.105,708.005 144.5,725.5C 129.872,721.52 116.205,715.353 103.5,707C 57.7087,676.358 27.042,634.525 11.5,581.5 Z"/></g>
<g><path style="opacity:1" fill="#003813" d="M 146.5,655.5 C 143.769,658.927 142.769,662.927 143.5,667.5C 150.5,667.5 157.5,667.5 164.5,667.5C 157.352,668.492 150.019,668.825 142.5,668.5C 142.5,664.833 142.5,661.167 142.5,657.5C 143.605,656.4 144.938,655.733 146.5,655.5 Z"/></g>
<g><path style="opacity:1" fill="#69bc89" d="M 265.5,658.5 C 260.276,665.724 253.942,672.058 246.5,677.5C 252.425,670.908 258.758,664.575 265.5,658.5 Z"/></g>
<g><path style="opacity:0.318" fill="#a1dfb8" d="M 266.5,678.5 C 245.717,700.228 221.05,715.895 192.5,725.5C 206.717,718.723 220.717,711.39 234.5,703.5C 245.315,695.124 255.982,686.791 266.5,678.5 Z"/></g>
<g><path style="opacity:1" fill="#64ba83" d="M 195.5,709.5 C 195.389,710.117 195.056,710.617 194.5,711C 188.523,712.574 182.523,714.241 176.5,716C 169.433,717.193 162.767,716.36 156.5,713.5C 162.717,715.268 169.05,715.768 175.5,715C 182.087,712.85 188.754,711.016 195.5,709.5 Z"/></g>
<g><path style="opacity:0.443" fill="#9adab1" d="M 144.5,725.5 C 152.23,727.272 160.063,728.606 168,729.5C 176.136,727.924 184.303,726.59 192.5,725.5C 182.725,729.953 172.392,731.786 161.5,731C 155.56,729.607 149.894,727.774 144.5,725.5 Z"/></g>
</svg>
