<?xml version="1.0" encoding="UTF-8"?>
<!DOCTYPE svg PUBLIC "-//W3C//DTD SVG 1.1//EN" "http://www.w3.org/Graphics/SVG/1.1/DTD/svg11.dtd">
<svg xmlns="http://www.w3.org/2000/svg" version="1.1" width="654px" height="127px" style="shape-rendering:geometricPrecision; text-rendering:geometricPrecision; image-rendering:optimizeQuality; fill-rule:evenodd; clip-rule:evenodd" xmlns:xlink="http://www.w3.org/1999/xlink">
<g><path style="opacity:0.994" fill="#56b573" d="M 59.5,-0.5 C 59.8333,-0.5 60.1667,-0.5 60.5,-0.5C 62.7026,1.10016 65.036,2.43349 67.5,3.5C 64.843,3.17034 62.1764,2.837 59.5,2.5C 55.824,3.17128 52.1573,3.83795 48.5,4.5C 52.2508,3.02711 55.9175,1.36045 59.5,-0.5 Z"/></g>
<g><path style="opacity:1" fill="#26a54f" d="M 15.5,3.5 C 17.1016,5.07394 19.1016,5.74061 21.5,5.5C 30.533,5.71587 39.533,5.38254 48.5,4.5C 52.1573,3.83795 55.824,3.17128 59.5,2.5C 62.1764,2.837 64.843,3.17034 67.5,3.5C 77.3975,5.4595 87.3975,5.9595 97.5,5C 103.126,3.17754 108.792,1.67754 114.5,0.5C 114.667,22.5025 114.5,44.5025 114,66.5C 113.802,68.3817 113.302,70.0484 112.5,71.5C 111.5,71.5 110.5,71.5 109.5,71.5C 109.5,68.8333 109.5,66.1667 109.5,63.5C 109.5,62.1667 109.5,60.8333 109.5,59.5C 110.497,42.0079 110.83,24.3412 110.5,6.5C 109.209,6.26269 108.209,6.59603 107.5,7.5C 91.2695,12.0604 75.2695,11.3937 59.5,5.5C 43.6825,11.2892 27.6825,11.9559 11.5,7.5C 10.791,6.59603 9.79105,6.26269 8.5,6.5C 8.16995,24.3412 8.50328,42.0079 9.5,59.5C 9.72442,63.1788 10.0578,66.8455 10.5,70.5C 10.2865,72.1439 10.6198,73.6439 11.5,75C 10.0993,75.4101 8.76597,75.9101 7.5,76.5C 6.60913,73.2219 5.7758,69.8886 5,66.5C 4.50004,44.5025 4.33337,22.5025 4.5,0.5C 8.41677,0.627554 12.0834,1.62755 15.5,3.5 Z"/></g>
<g><path style="opacity:0.996" fill="#88cca0" d="M 15.5,3.5 C 17.7857,3.59495 19.7857,4.26162 21.5,5.5C 19.1016,5.74061 17.1016,5.07394 15.5,3.5 Z"/></g>
<g><path style="opacity:1" fill="#f2faf5" d="M 107.5,7.5 C 109.486,24.4678 110.153,41.8011 109.5,59.5C 109.5,60.8333 109.5,62.1667 109.5,63.5C 105.99,83.8625 95.9898,100.362 79.5,113C 73.0549,116.807 66.2216,119.64 59,121.5C 41.3216,116.827 27.9883,106.494 19,90.5C 15.6545,83.937 12.8211,77.2703 10.5,70.5C 10.0578,66.8455 9.72442,63.1788 9.5,59.5C 8.84728,41.8011 9.51395,24.4678 11.5,7.5C 27.6825,11.9559 43.6825,11.2892 59.5,5.5C 75.2695,11.3937 91.2695,12.0604 107.5,7.5 Z"/></g>
<g><path style="opacity:1" fill="#5ebd84" d="M 101.5,14.5 C 102.209,13.596 103.209,13.2627 104.5,13.5C 104.83,29.6754 104.496,45.6754 103.5,61.5C 104.151,45.4643 103.484,29.7977 101.5,14.5 Z"/></g>
<g><path style="opacity:1" fill="#7ccd9c" d="M 11.5,7.5 C 9.51395,24.4678 8.84728,41.8011 9.5,59.5C 8.50328,42.0079 8.16995,24.3412 8.5,6.5C 9.79105,6.26269 10.791,6.59603 11.5,7.5 Z"/></g>
<g><path style="opacity:1" fill="#76c998" d="M 107.5,7.5 C 108.209,6.59603 109.209,6.26269 110.5,6.5C 110.83,24.3412 110.497,42.0079 109.5,59.5C 110.153,41.8011 109.486,24.4678 107.5,7.5 Z"/></g>
<g><path style="opacity:1" fill="#0b9d42" d="M 101.5,14.5 C 103.484,29.7977 104.151,45.4643 103.5,61.5C 102.043,74.0745 97.5433,85.4078 90,95.5C 86.5903,99.4158 82.757,102.749 78.5,105.5C 78.5,95.5 78.5,85.5 78.5,75.5C 77.8902,74.609 77.5569,73.609 77.5,72.5C 78.7274,70.6801 79.7274,68.6801 80.5,66.5C 80.1667,65.5 79.8333,64.5 79.5,63.5C 77.8333,64.5 76.5,65.8333 75.5,67.5C 76.1667,67.8333 76.8333,68.1667 77.5,68.5C 69.0755,85.9335 55.7421,97.6002 37.5,103.5C 28.6957,95.9064 22.3624,86.5731 18.5,75.5C 21.5815,77.0688 24.4149,76.7355 27,74.5C 30.6506,67.5071 34.4839,60.8405 38.5,54.5C 38.5,55.5 38.5,56.5 38.5,57.5C 37.9569,57.56 37.6236,57.8933 37.5,58.5C 39.396,59.4656 41.396,59.7989 43.5,59.5C 43.2627,60.791 43.596,61.791 44.5,62.5C 50.4917,63.6989 56.4917,63.6989 62.5,62.5C 69.184,49.7413 70.8507,36.408 67.5,22.5C 60.4491,22.272 53.4491,21.6053 46.5,20.5C 46.5792,21.9305 46.2458,23.2638 45.5,24.5C 29.5816,26.7186 24.9149,35.0519 31.5,49.5C 31.5,50.5 31.5,51.5 31.5,52.5C 30.325,52.281 29.325,52.6143 28.5,53.5C 25.0584,59.4018 21.3917,65.0685 17.5,70.5C 16.0749,67.0968 15.2415,63.4302 15,59.5C 14.5001,44.1703 14.3334,28.837 14.5,13.5C 29.5734,18.9587 44.5734,18.6254 59.5,12.5C 73.2555,18.3181 87.2555,18.9847 101.5,14.5 Z"/></g>
<g><path style="opacity:1" fill="#1f4838" d="M 96.5,37.5 C 96.5,38.1667 96.5,38.8333 96.5,39.5C 96.5,40.5 96.5,41.5 96.5,42.5C 95.5847,45.0857 93.918,47.0857 91.5,48.5C 88.6424,49.8849 85.9758,49.5516 83.5,47.5C 83.0679,46.2905 82.4013,45.2905 81.5,44.5C 81.5,43.8333 81.5,43.1667 81.5,42.5C 81.5,40.1667 81.5,37.8333 81.5,35.5C 81.8369,31.6667 84.0036,29.6667 88,29.5C 93.3698,29.707 96.2032,32.3737 96.5,37.5 Z"/></g>
<g><path style="opacity:1" fill="#374545" d="M 44.5,62.5 C 44.5,61.1667 44.5,59.8333 44.5,58.5C 49.8333,58.5 55.1667,58.5 60.5,58.5C 60.5,58.1667 60.5,57.8333 60.5,57.5C 64.9101,46.971 66.9101,35.971 66.5,24.5C 60.1471,23.9529 53.8138,23.2862 47.5,22.5C 47.238,23.9778 47.5713,25.3112 48.5,26.5C 57.8751,31.5713 60.0417,38.9046 55,48.5C 51.2544,53.1226 46.4211,55.1226 40.5,54.5C 40.2627,55.791 40.596,56.791 41.5,57.5C 40.5,58.8333 39.5,58.8333 38.5,57.5C 38.5,56.5 38.5,55.5 38.5,54.5C 37.3412,53.2597 36.3412,51.9264 35.5,50.5C 34.5084,50.3284 33.8417,50.6618 33.5,51.5C 32.8333,50.8333 32.1667,50.1667 31.5,49.5C 24.9149,35.0519 29.5816,26.7186 45.5,24.5C 46.2458,23.2638 46.5792,21.9305 46.5,20.5C 53.4491,21.6053 60.4491,22.272 67.5,22.5C 70.8507,36.408 69.184,49.7413 62.5,62.5C 56.4917,63.6989 50.4917,63.6989 44.5,62.5 Z"/></g>
<g><path style="opacity:1" fill="#dad9d8" d="M 55.5,37.5 C 49.31,37.8229 43.31,37.4896 37.5,36.5C 37.6082,25.6026 42.2749,23.4359 51.5,30C 53.495,32.1572 54.8283,34.6572 55.5,37.5 Z"/></g>
<g><path style="opacity:1" fill="#099942" d="M 60.5,57.5 C 54.1667,57.5 47.8333,57.5 41.5,57.5C 40.596,56.791 40.2627,55.791 40.5,54.5C 46.4211,55.1226 51.2544,53.1226 55,48.5C 60.0417,38.9046 57.8751,31.5713 48.5,26.5C 47.5713,25.3112 47.238,23.9778 47.5,22.5C 53.8138,23.2862 60.1471,23.9529 66.5,24.5C 66.9101,35.971 64.9101,46.971 60.5,57.5 Z"/></g>
<g><path style="opacity:1" fill="#0c9241" d="M 94.5,37.5 C 91.8888,33.2975 88.5555,32.6308 84.5,35.5C 83.7025,35.0431 83.3691,34.3764 83.5,33.5C 86.6096,31.0659 89.9429,30.8992 93.5,33C 94.3802,34.3561 94.7135,35.8561 94.5,37.5 Z"/></g>
<g><path style="opacity:0.858" fill="#000000" d="M 158.5,32.5 C 185.597,30.7556 196.43,43.089 191,69.5C 187.114,76.3865 181.614,81.5531 174.5,85C 186.204,89.0926 198.204,91.926 210.5,93.5C 213.13,92.6221 215.797,91.9555 218.5,91.5C 217.515,95.3298 215.181,98.1631 211.5,100C 200.046,100.723 189.046,98.7226 178.5,94C 168.911,89.3698 159.244,85.0364 149.5,81C 136.247,68.2178 135.081,54.3844 146,39.5C 150.019,36.7447 154.185,34.4113 158.5,32.5 Z M 160.5,36.5 C 172.908,36.0639 180.074,42.0639 182,54.5C 183.166,62.4994 181.5,69.8328 177,76.5C 167.599,84.0729 159.599,82.7396 153,72.5C 148.023,61.914 148.356,51.5807 154,41.5C 156.326,39.9343 158.492,38.2676 160.5,36.5 Z"/></g>
<g><path style="opacity:0.871" fill="#000000" d="M 610.5,32.5 C 613.722,32.1081 616.722,32.6081 619.5,34C 618.344,48.4253 618.177,62.9253 619,77.5C 620.797,78.9987 622.631,80.4987 624.5,82C 620.495,84.2519 616.162,85.4186 611.5,85.5C 611.649,84.448 611.483,83.448 611,82.5C 598.089,88.9612 590.256,85.1279 587.5,71C 588.929,57.0794 596.595,51.2461 610.5,53.5C 610.666,49.1539 610.499,44.8206 610,40.5C 608.545,38.4068 606.712,36.7401 604.5,35.5C 606.282,34.0159 608.282,33.0159 610.5,32.5 Z M 602.5,56.5 C 606.063,56.6252 608.563,58.2919 610,61.5C 610.667,66.8333 610.667,72.1667 610,77.5C 605.229,81.9273 601.229,81.2606 598,75.5C 594.92,67.8505 596.42,61.5172 602.5,56.5 Z"/></g>
<g><path style="opacity:0.868" fill="#000000" d="M 453.5,33.5 C 460.09,33.189 466.59,33.5223 473,34.5C 477.563,45.9578 482.396,57.2911 487.5,68.5C 492.886,57.3426 497.886,46.0093 502.5,34.5C 508.463,33.5041 514.463,33.1707 520.5,33.5C 520.5,34.5 520.5,35.5 520.5,36.5C 517.762,35.9648 515.928,36.9648 515,39.5C 514.333,52.1667 514.333,64.8333 515,77.5C 515.672,81.0296 517.838,82.3629 521.5,81.5C 521.5,82.5 521.5,83.5 521.5,84.5C 513.5,84.5 505.5,84.5 497.5,84.5C 497.5,83.5 497.5,82.5 497.5,81.5C 499.792,81.7564 501.959,81.4231 504,80.5C 505.499,67.2007 505.832,53.8674 505,40.5C 498.667,54.5 492.333,68.5 486,82.5C 484.286,83.9255 482.953,83.5922 482,81.5C 476.333,67.8333 470.667,54.1667 465,40.5C 464.333,52.8333 464.333,65.1667 465,77.5C 466.026,80.6928 468.192,82.0262 471.5,81.5C 471.5,82.5 471.5,83.5 471.5,84.5C 465.167,84.5 458.833,84.5 452.5,84.5C 452.5,83.5 452.5,82.5 452.5,81.5C 455.368,81.915 457.535,80.915 459,78.5C 460.284,64.8652 460.784,51.1986 460.5,37.5C 458.194,37.0074 455.861,36.6741 453.5,36.5C 453.5,35.5 453.5,34.5 453.5,33.5 Z"/></g>
<g><path style="opacity:1" fill="#dedcdb" d="M 35.5,28.5 C 36.1222,34.7021 34.7888,40.7021 31.5,46.5C 28.1258,39.4514 29.4592,33.4514 35.5,28.5 Z"/></g>
<g><path style="opacity:1" fill="#16683d" d="M 83.5,33.5 C 83.3691,34.3764 83.7025,35.0431 84.5,35.5C 88.5555,32.6308 91.8888,33.2975 94.5,37.5C 94.5,38.8333 94.5,40.1667 94.5,41.5C 91.2748,44.9554 87.7748,45.2887 84,42.5C 83.6012,42.7284 83.4346,43.0618 83.5,43.5C 82.1667,40.1667 82.1667,36.8333 83.5,33.5 Z"/></g>
<g><path style="opacity:1" fill="#11743c" d="M 96.5,39.5 C 96.5,38.8333 96.5,38.1667 96.5,37.5C 98.9732,37.264 100.64,35.9307 101.5,33.5C 101.833,33.8333 102.167,34.1667 102.5,34.5C 100.944,37.3895 99.6104,40.3895 98.5,43.5C 97.8281,42.0508 97.1614,40.7175 96.5,39.5 Z"/></g>
<g><path style="opacity:0.819" fill="#000000" d="M 531.5,37.5 C 538.997,36.8038 540.997,39.6372 537.5,46C 529.749,47.0913 527.749,44.258 531.5,37.5 Z"/></g>
<g><path style="opacity:1" fill="#bfc2c0" d="M 37.5,36.5 C 43.31,37.4896 49.31,37.8229 55.5,37.5C 55.5,39.5 55.5,41.5 55.5,43.5C 53.712,43.2148 52.0453,43.5481 50.5,44.5C 51.0606,47.1867 50.3939,47.1867 48.5,44.5C 44.2172,43.5078 39.8839,43.1744 35.5,43.5C 35.7215,40.9327 36.3882,38.5994 37.5,36.5 Z"/></g>
<g><path style="opacity:1" fill="#7a7d83" d="M 67.5,29.5 C 68.7178,34.7123 68.5511,40.0456 67,45.5C 66.8312,40.1717 66.9979,34.8384 67.5,29.5 Z"/></g>
<g><path style="opacity:1" fill="#13733d" d="M 81.5,35.5 C 81.5,37.8333 81.5,40.1667 81.5,42.5C 80.4168,42.4606 79.4168,42.1272 78.5,41.5C 76.8947,45.1761 75.2281,45.0095 73.5,41C 72.5075,38.5787 73.5075,37.9121 76.5,39C 76.1667,39.3333 75.8333,39.6667 75.5,40C 77.1341,40.4935 78.8008,40.6602 80.5,40.5C 80.5,39.5 80.5,38.5 80.5,37.5C 79.5,37.5 78.5,37.5 77.5,37.5C 77.3359,34.8127 77.5026,32.146 78,29.5C 78.4955,31.4727 78.6621,33.4727 78.5,35.5C 79.5,35.5 80.5,35.5 81.5,35.5 Z"/></g>
<g><path style="opacity:1" fill="#e8e5e4" d="M 35.5,43.5 C 39.8839,43.1744 44.2172,43.5078 48.5,44.5C 50.3939,47.1867 51.0606,47.1867 50.5,44.5C 52.0453,43.5481 53.712,43.2148 55.5,43.5C 52.5195,51.491 46.8529,54.491 38.5,52.5C 37.8333,49.8333 36.1667,48.1667 33.5,47.5C 33.9943,45.9745 34.661,44.6412 35.5,43.5 Z"/></g>
<g><path style="opacity:1" fill="#0e8d42" d="M 94.5,41.5 C 94.2203,45.1133 92.2203,47.1133 88.5,47.5C 86.1853,46.8586 84.5186,45.5253 83.5,43.5C 83.4346,43.0618 83.6012,42.7284 84,42.5C 87.7748,45.2887 91.2748,44.9554 94.5,41.5 Z"/></g>
<g><path style="opacity:0.821" fill="#000000" d="M 324.5,45.5 C 326.388,47.9878 327.055,50.9878 326.5,54.5C 329.833,54.5 333.167,54.5 336.5,54.5C 336.579,55.9305 336.246,57.2638 335.5,58.5C 332.572,59.4841 329.572,59.8174 326.5,59.5C 326.334,65.8421 326.5,72.1754 327,78.5C 329.456,80.3213 332.289,80.988 335.5,80.5C 335.719,81.675 335.386,82.675 334.5,83.5C 328.385,86.7413 322.885,86.0746 318,81.5C 317.5,74.1742 317.334,66.8409 317.5,59.5C 315.335,59.8841 313.668,59.2174 312.5,57.5C 314.666,55.5067 316.999,53.6733 319.5,52C 321.765,50.2419 323.432,48.0752 324.5,45.5 Z"/></g>
<g><path style="opacity:1" fill="#16683c" d="M 96.5,42.5 C 95.781,46.1654 94.9476,49.832 94,53.5C 92.887,52.2396 92.7203,51.073 93.5,50C 92.9558,49.2828 92.2891,48.7828 91.5,48.5C 93.918,47.0857 95.5847,45.0857 96.5,42.5 Z"/></g>
<g><path style="opacity:1" fill="#11713b" d="M 81.5,44.5 C 82.4013,45.2905 83.0679,46.2905 83.5,47.5C 82.0806,49.927 81.0806,52.5936 80.5,55.5C 79.7702,54.0663 78.7702,52.8996 77.5,52C 78.448,51.5172 79.448,51.3505 80.5,51.5C 80.448,49.0971 80.7814,46.7638 81.5,44.5 Z"/></g>
<g><path style="opacity:0.808" fill="#000000" d="M 250.5,53.5 C 254.182,53.3347 257.848,53.5014 261.5,54C 262.416,54.3742 263.25,54.8742 264,55.5C 265.197,63.4385 265.864,71.4385 266,79.5C 267.626,79.8541 269.459,79.8541 271.5,79.5C 271.607,81.9032 270.607,83.7365 268.5,85C 264.291,86.1893 260.624,85.356 257.5,82.5C 253.013,85.5658 248.18,86.2325 243,84.5C 241,80.8333 241,77.1667 243,73.5C 247.032,70.3188 251.365,67.6521 256,65.5C 257.735,59.1123 255.568,56.779 249.5,58.5C 248.971,61.2572 247.971,63.7572 246.5,66C 240.94,66.7214 239.44,64.5547 242,59.5C 244.322,56.6047 247.155,54.6047 250.5,53.5 Z M 255.5,69.5 C 256.806,72.6868 256.806,76.0202 255.5,79.5C 253.929,80.3094 252.262,80.6427 250.5,80.5C 250.67,79.1779 250.337,78.0113 249.5,77C 250.608,73.7319 252.608,71.2319 255.5,69.5 Z"/></g>
<g><path style="opacity:0.868" fill="#000000" d="M 281.5,53.5 C 282.833,53.5 284.167,53.5 285.5,53.5C 285.343,54.8734 285.51,56.2068 286,57.5C 290.091,53.6951 294.924,52.5284 300.5,54C 301.931,54.4652 303.097,55.2986 304,56.5C 305.27,64.3967 305.937,72.3967 306,80.5C 307.356,81.3802 308.856,81.7135 310.5,81.5C 310.5,82.5 310.5,83.5 310.5,84.5C 304.833,84.5 299.167,84.5 293.5,84.5C 293.5,83.5 293.5,82.5 293.5,81.5C 294.822,81.67 295.989,81.3366 297,80.5C 297.667,74.1667 297.667,67.8333 297,61.5C 293.996,58 290.663,57.6667 287,60.5C 286.5,67.4921 286.334,74.4921 286.5,81.5C 287.5,81.5 288.5,81.5 289.5,81.5C 289.5,82.5 289.5,83.5 289.5,84.5C 284.167,84.5 278.833,84.5 273.5,84.5C 273.5,83.5 273.5,82.5 273.5,81.5C 274.833,81.5 276.167,81.5 277.5,81.5C 277.666,75.1579 277.5,68.8246 277,62.5C 275.702,61.4404 274.535,60.2737 273.5,59C 273.645,58.228 273.978,57.5613 274.5,57C 277.174,56.3299 279.507,55.1632 281.5,53.5 Z"/></g>
<g><path style="opacity:0.865" fill="#000000" d="M 385.5,53.5 C 386.833,53.5 388.167,53.5 389.5,53.5C 389.343,54.8734 389.51,56.2068 390,57.5C 394.967,53.3176 400.467,52.4843 406.5,55C 407.701,55.9025 408.535,57.0692 409,58.5C 413.14,53.7886 418.306,52.2886 424.5,54C 426.378,55.5429 427.878,57.3762 429,59.5C 429.333,66.5 429.667,73.5 430,80.5C 431.011,81.3366 432.178,81.67 433.5,81.5C 433.5,82.5 433.5,83.5 433.5,84.5C 428.167,84.5 422.833,84.5 417.5,84.5C 417.5,83.5 417.5,82.5 417.5,81.5C 419.124,81.6399 420.29,80.9733 421,79.5C 421.667,73.8333 421.667,68.1667 421,62.5C 418.177,57.6046 414.843,57.2713 411,61.5C 410.5,68.1583 410.334,74.825 410.5,81.5C 411.5,81.5 412.5,81.5 413.5,81.5C 413.5,82.5 413.5,83.5 413.5,84.5C 408.167,84.5 402.833,84.5 397.5,84.5C 397.5,83.5 397.5,82.5 397.5,81.5C 398.822,81.67 399.989,81.3366 401,80.5C 401.667,74.1667 401.667,67.8333 401,61.5C 399.334,58.6212 396.834,57.7879 393.5,59C 392.299,59.9025 391.465,61.0692 391,62.5C 390.333,68.5 390.333,74.5 391,80.5C 392.011,81.3366 393.178,81.67 394.5,81.5C 394.5,82.5 394.5,83.5 394.5,84.5C 388.833,84.5 383.167,84.5 377.5,84.5C 377.5,83.5 377.5,82.5 377.5,81.5C 378.978,81.762 380.311,81.4287 381.5,80.5C 382.813,74.6795 382.813,68.8461 381.5,63C 380.004,61.6693 378.671,60.1693 377.5,58.5C 380.231,56.8084 382.898,55.1417 385.5,53.5 Z"/></g>
<g><path style="opacity:0.894" fill="#000000" d="M 535.5,53.5 C 536.833,53.5 538.167,53.5 539.5,53.5C 539.334,62.5062 539.5,71.5062 540,80.5C 541.356,81.3802 542.856,81.7135 544.5,81.5C 544.5,82.5 544.5,83.5 544.5,84.5C 538.132,84.8297 531.798,84.4963 525.5,83.5C 526.991,81.9884 528.824,80.9884 531,80.5C 531.667,74.5 531.667,68.5 531,62.5C 529.365,61.2744 527.865,59.941 526.5,58.5C 529.221,56.2658 532.221,54.5991 535.5,53.5 Z"/></g>
<g><path style="opacity:0.877" fill="#000000" d="M 554.5,53.5 C 556.167,53.5 557.833,53.5 559.5,53.5C 559.351,54.552 559.517,55.552 560,56.5C 566.067,52.5544 572.067,52.5544 578,56.5C 579.27,64.3967 579.937,72.3967 580,80.5C 581.356,81.3802 582.856,81.7135 584.5,81.5C 584.5,82.5 584.5,83.5 584.5,84.5C 578.833,84.5 573.167,84.5 567.5,84.5C 567.5,83.5 567.5,82.5 567.5,81.5C 568.5,81.5 569.5,81.5 570.5,81.5C 571.539,75.2033 571.706,68.8699 571,62.5C 569.309,58.7873 566.475,57.6206 562.5,59C 561.107,60.1711 560.273,61.6711 560,63.5C 559.333,69.1667 559.333,74.8333 560,80.5C 561.011,81.3366 562.178,81.67 563.5,81.5C 563.5,82.5 563.5,83.5 563.5,84.5C 558.167,84.5 552.833,84.5 547.5,84.5C 547.5,83.5 547.5,82.5 547.5,81.5C 548.822,81.67 549.989,81.3366 551,80.5C 551.667,74.8333 551.667,69.1667 551,63.5C 550.19,61.6942 549.024,60.1942 547.5,59C 549.444,56.6919 551.777,54.8586 554.5,53.5 Z"/></g>
<g><path style="opacity:0.804" fill="#000000" d="M 633.5,53.5 C 637.514,53.3345 641.514,53.5012 645.5,54C 648.757,56.7108 649.257,59.8774 647,63.5C 644.603,60.6 641.77,58.2667 638.5,56.5C 634.725,57.4623 633.725,59.629 635.5,63C 640.767,64.1934 645.267,66.6934 649,70.5C 650.315,83.5008 644.481,88.3341 631.5,85C 628.771,83.3606 627.438,80.8606 627.5,77.5C 627.696,75.7139 628.529,74.3805 630,73.5C 631.637,77.6365 634.47,80.6365 638.5,82.5C 642.859,80.9901 643.859,78.4901 641.5,75C 638.167,73.6667 634.833,72.3333 631.5,71C 625.9,64.4348 626.567,58.6015 633.5,53.5 Z"/></g>
<g><path style="opacity:0.855" fill="#000000" d="M 200.5,54.5 C 204.833,54.5 209.167,54.5 213.5,54.5C 212.177,62.5423 212.343,70.5423 214,78.5C 217,81.1667 220,81.1667 223,78.5C 223.667,71.8333 223.667,65.1667 223,58.5C 221.989,57.6634 220.822,57.33 219.5,57.5C 219.5,56.5 219.5,55.5 219.5,54.5C 223.833,54.5 228.167,54.5 232.5,54.5C 232.334,62.84 232.5,71.1733 233,79.5C 234.299,79.9662 235.799,79.9662 237.5,79.5C 237.5,80.8333 237.5,82.1667 237.5,83.5C 233.24,84.5853 228.906,85.252 224.5,85.5C 224.649,84.448 224.483,83.448 224,82.5C 217.596,86.8247 211.596,86.4913 206,81.5C 204.769,73.9108 204.103,66.2441 204,58.5C 202.989,57.6634 201.822,57.33 200.5,57.5C 200.5,56.5 200.5,55.5 200.5,54.5 Z"/></g>
<g><path style="opacity:0.864" fill="#000000" d="M 337.5,54.5 C 341.833,54.5 346.167,54.5 350.5,54.5C 350.334,62.1739 350.5,69.8406 351,77.5C 352.666,80.3788 355.166,81.2121 358.5,80C 359.701,79.0975 360.535,77.9308 361,76.5C 361.667,70.8333 361.667,65.1667 361,59.5C 359.951,57.8934 358.451,57.2267 356.5,57.5C 356.5,56.5 356.5,55.5 356.5,54.5C 361.214,54.1734 365.88,54.5067 370.5,55.5C 369.367,63.1171 369.2,70.7837 370,78.5C 370.677,80.689 371.844,81.0224 373.5,79.5C 374.429,80.6888 374.762,82.0222 374.5,83.5C 371.278,83.8503 368.112,84.5169 365,85.5C 362.812,85.646 361.479,84.646 361,82.5C 356.559,85.3306 351.726,86.1639 346.5,85C 344.106,83.0478 342.606,80.5478 342,77.5C 341.667,71.1667 341.333,64.8333 341,58.5C 339.989,57.6634 338.822,57.33 337.5,57.5C 337.5,56.5 337.5,55.5 337.5,54.5 Z"/></g>
<g><path style="opacity:1" fill="#1f4f3a" d="M 38.5,57.5 C 39.5,58.8333 40.5,58.8333 41.5,57.5C 47.8333,57.5 54.1667,57.5 60.5,57.5C 60.5,57.8333 60.5,58.1667 60.5,58.5C 55.1667,58.5 49.8333,58.5 44.5,58.5C 44.5,59.8333 44.5,61.1667 44.5,62.5C 43.596,61.791 43.2627,60.791 43.5,59.5C 41.396,59.7989 39.396,59.4656 37.5,58.5C 37.6236,57.8933 37.9569,57.56 38.5,57.5 Z"/></g>
<g><path style="opacity:1" fill="#d1d0d1" d="M 60.5,58.5 C 62.7702,57.8752 63.1035,58.8752 61.5,61.5C 56.1258,62.4975 50.7925,62.1641 45.5,60.5C 50.6511,59.8332 55.6511,59.1665 60.5,58.5 Z"/></g>
<g><path style="opacity:1" fill="#092a13" d="M 77.5,72.5 C 70.1667,84.5 60.5,94.1667 48.5,101.5C 45.6717,102.655 43.0051,103.989 40.5,105.5C 38.9731,105.573 37.9731,104.906 37.5,103.5C 55.7421,97.6002 69.0755,85.9335 77.5,68.5C 76.8333,68.1667 76.1667,67.8333 75.5,67.5C 76.5,65.8333 77.8333,64.5 79.5,63.5C 79.8333,64.5 80.1667,65.5 80.5,66.5C 79.7274,68.6801 78.7274,70.6801 77.5,72.5 Z"/></g>
<g><path style="opacity:1" fill="#214639" d="M 31.5,49.5 C 32.1667,50.1667 32.8333,50.8333 33.5,51.5C 32.4376,52.5754 32.4376,53.5754 33.5,54.5C 35.1112,53.6798 35.7778,52.3464 35.5,50.5C 36.3412,51.9264 37.3412,53.2597 38.5,54.5C 34.4839,60.8405 30.6506,67.5071 27,74.5C 24.4149,76.7355 21.5815,77.0688 18.5,75.5C 17.6993,73.9582 17.366,72.2915 17.5,70.5C 21.3917,65.0685 25.0584,59.4018 28.5,53.5C 29.325,52.6143 30.325,52.281 31.5,52.5C 31.5,51.5 31.5,50.5 31.5,49.5 Z"/></g>
<g><path style="opacity:1" fill="#0a9841" d="M 28.5,55.5 C 30.9484,55.0101 32.615,55.8434 33.5,58C 31.1023,64.6518 27.6023,70.4851 23,75.5C 21.1667,75 20,73.8333 19.5,72C 22.3904,66.3817 25.3904,60.8817 28.5,55.5 Z"/></g>
<g><path style="opacity:1" fill="#128942" d="M 35.5,50.5 C 35.7778,52.3464 35.1112,53.6798 33.5,54.5C 32.4376,53.5754 32.4376,52.5754 33.5,51.5C 33.8417,50.6618 34.5084,50.3284 35.5,50.5 Z"/></g>
<g><path style="opacity:1" fill="#082711" d="M 65.5,66.5 C 67.1667,66.5 68.8333,66.5 70.5,66.5C 70.4533,69.5682 69.9533,72.5682 69,75.5C 66.3872,78.3245 64.7206,81.6578 64,85.5C 61.7998,87.8307 59.7998,87.8307 58,85.5C 56.2213,88.2764 55.2213,87.9431 55,84.5C 50.5555,87.0082 50.3888,86.5082 54.5,83C 53.1667,83 51.8333,83 50.5,83C 53.2862,80.9786 52.9528,79.4786 49.5,78.5C 50.1279,76.7419 51.1279,75.2419 52.5,74C 57.0018,71.6364 61.3351,69.1364 65.5,66.5 Z"/></g>
<g><path style="opacity:1" fill="#09953f" d="M 61.5,82.5 C 59.7659,83.562 58.0992,83.562 56.5,82.5C 56.3537,80.0576 57.187,79.3909 59,80.5C 59.4828,79.552 59.6495,78.552 59.5,77.5C 57.8212,77.7148 56.8212,77.0481 56.5,75.5C 59.271,71.1128 63.271,68.7795 68.5,68.5C 68.296,74.2413 65.9627,78.908 61.5,82.5 Z"/></g>
<g><path style="opacity:0.999" fill="#39aa5a" d="M 109.5,63.5 C 109.5,66.1667 109.5,68.8333 109.5,71.5C 110.5,71.5 111.5,71.5 112.5,71.5C 107.954,91.8693 96.9541,107.703 79.5,119C 73.6719,122.212 67.6719,124.712 61.5,126.5C 60.1667,126.5 58.8333,126.5 57.5,126.5C 49.8727,124.52 42.8727,121.187 36.5,116.5C 36.0269,115.094 35.0269,114.427 33.5,114.5C 32.5,114.167 31.8333,113.5 31.5,112.5C 30.0892,110.086 28.0892,108.419 25.5,107.5C 25.5,105.5 24.5,104.5 22.5,104.5C 15.4227,96.3492 10.4227,87.0158 7.5,76.5C 8.76597,75.9101 10.0993,75.4101 11.5,75C 10.6198,73.6439 10.2865,72.1439 10.5,70.5C 12.8211,77.2703 15.6545,83.937 19,90.5C 27.9883,106.494 41.3216,116.827 59,121.5C 66.2216,119.64 73.0549,116.807 79.5,113C 95.9898,100.362 105.99,83.8625 109.5,63.5 Z"/></g>
<g><path style="opacity:1" fill="#072610" d="M 78.5,75.5 C 78.5,85.5 78.5,95.5 78.5,105.5C 75.8333,105.5 73.1667,105.5 70.5,105.5C 70.6661,99.8236 70.4994,94.1569 70,88.5C 68.5506,93.9813 68.0506,99.648 68.5,105.5C 65.8333,105.5 63.1667,105.5 60.5,105.5C 60.2989,95.0306 59.6323,95.0306 58.5,105.5C 56.1667,105.5 53.8333,105.5 51.5,105.5C 51.3433,104.127 51.51,102.793 52,101.5C 62.6925,94.64 71.5259,85.9733 78.5,75.5 Z"/></g>
<g><path style="opacity:1" fill="#0a933f" d="M 66.5,91.5 C 67.4834,95.2984 67.8168,99.2984 67.5,103.5C 65.8333,103.5 64.1667,103.5 62.5,103.5C 61.5889,98.6329 62.9222,94.6329 66.5,91.5 Z"/></g>
<g><path style="opacity:1" fill="#0d672e" d="M 76.5,103.5 C 76.825,95.9809 76.4916,88.6476 75.5,81.5C 75.7828,80.7109 76.2828,80.0442 77,79.5C 77.8228,87.6775 77.6561,95.6775 76.5,103.5 Z"/></g>
<g><path style="opacity:1" fill="#0b8339" d="M 77.5,72.5 C 77.5569,73.609 77.8902,74.609 78.5,75.5C 71.5259,85.9733 62.6925,94.64 52,101.5C 51.51,102.793 51.3433,104.127 51.5,105.5C 50.9779,103.781 49.9779,102.448 48.5,101.5C 60.5,94.1667 70.1667,84.5 77.5,72.5 Z"/></g>
<g><path style="opacity:1" fill="#059d41" d="M 75.5,81.5 C 76.4916,88.6476 76.825,95.9809 76.5,103.5C 75.1667,103.5 73.8333,103.5 72.5,103.5C 72.3338,97.1579 72.5005,90.8246 73,84.5C 74.045,83.6266 74.8783,82.6266 75.5,81.5 Z"/></g>
<g><path style="opacity:1" fill="#107536" d="M 61.5,82.5 C 64.0118,83.2162 64.0118,84.2162 61.5,85.5C 60.4376,84.5754 60.4376,83.5754 61.5,82.5 Z"/></g>
<g><path style="opacity:1" fill="#0a6e2f" d="M 56.5,75.5 C 56.8212,77.0481 57.8212,77.7148 59.5,77.5C 59.6495,78.552 59.4828,79.552 59,80.5C 57.187,79.3909 56.3537,80.0576 56.5,82.5C 54.7868,81.3646 54.1201,79.698 54.5,77.5C 50.8979,77.322 50.8979,76.322 54.5,74.5C 55.1835,74.8627 55.8501,75.1961 56.5,75.5 Z"/></g>
<g><path style="opacity:1" fill="#0a2711" d="M 60.5,72.5 C 64.1378,71.7366 65.6378,73.0699 65,76.5C 60.4155,78.4126 58.9155,77.0793 60.5,72.5 Z"/></g>
<g><path style="opacity:1" fill="#0c8037" d="M 61.5,73.5 C 63.4646,73.9483 63.7979,74.9483 62.5,76.5C 61.6143,75.675 61.281,74.675 61.5,73.5 Z"/></g>
<g><path style="opacity:1" fill="#109c43" d="M 78.5,105.5 C 65.7468,116.048 53.0801,116.048 40.5,105.5C 43.0051,103.989 45.6717,102.655 48.5,101.5C 49.9779,102.448 50.9779,103.781 51.5,105.5C 53.8333,105.5 56.1667,105.5 58.5,105.5C 59.6323,95.0306 60.2989,95.0306 60.5,105.5C 63.1667,105.5 65.8333,105.5 68.5,105.5C 68.0506,99.648 68.5506,93.9813 70,88.5C 70.4994,94.1569 70.6661,99.8236 70.5,105.5C 73.1667,105.5 75.8333,105.5 78.5,105.5 Z"/></g>
<g><path style="opacity:1" fill="#0c8b3b" d="M 55.5,100.5 C 57.0481,100.821 57.7148,101.821 57.5,103.5C 52.1488,104.071 51.4822,103.071 55.5,100.5 Z"/></g>
<g><path style="opacity:0.957" fill="#a8d4bb" d="M 22.5,104.5 C 24.5,104.5 25.5,105.5 25.5,107.5C 24.1667,106.833 23.1667,105.833 22.5,104.5 Z"/></g>
<g><path style="opacity:0.992" fill="#9dd4b1" d="M 25.5,107.5 C 28.0892,108.419 30.0892,110.086 31.5,112.5C 28.9108,111.581 26.9108,109.914 25.5,107.5 Z"/></g>
<g><path style="opacity:0.616" fill="#a8dbbc" d="M 33.5,114.5 C 35.0269,114.427 36.0269,115.094 36.5,116.5C 34.9731,116.573 33.9731,115.906 33.5,114.5 Z"/></g>
</svg>
