<svg xmlns="http://www.w3.org/2000/svg" xml:space="preserve" viewBox="1 1 1280 1280">
  <path fill="#FFF" d="M840 1281H1V1h1280v1280H840m8.3-682a269.5 269.5 0 0 0 16.5-85.6c.5-74.6.2-149.3.2-224 0-7.4-6.1-11.3-13-8.3-4.5 2-8.7 4.2-13.2 6a222.4 222.4 0 0 1-78.3 16.4c-39.7 1.4-78-4.3-113.8-22.7-4-2-7.5-2-11.4 0-5 2.5-9.9 4.9-15 7a221.2 221.2 0 0 1-75.4 15.6c-39.1 1.6-77.1-3.5-112.5-21.4-8.5-4.3-15.7 0-15.7 10 .4 70.3.3 140.6.2 211 0 28.9 4.7 57 13.2 84.5A317.2 317.2 0 0 0 496.6 707c33 37 72.3 64.2 120 78.7 12.5 3.8 25 6.8 38.6 3 34.8-9.3 66.3-25 94.3-47.5A311 311 0 0 0 848.3 599M542 842.7c.2-3.2-.4-6.8 1-9.3 1.2-2.3 4.7-3.3 7.4-5-.3-.4-.6-1.3-1-1.3-6.3-.2-12.6-.2-19-.2-.4 0-1 1-1.4 1.6.5.4 1 1.3 1.6 1.4 5.1.3 5.7 3.8 5.7 7.7l.1 20v9.6c-2-.9-2.7-1.8-3.5-2.9-7.8-11.3-15.6-22.8-23.6-34-1-1.6-3.1-3.2-4.8-3.4-4.8-.4-9.7-.2-14.5 0-1.1 0-2.2.8-2.6 1 2.5 2.6 6.3 4.6 6.4 6.9.6 13.3.5 26.6.4 40 0 3.3-2.4 4.8-5.6 5.2-6.1.7-9.6-1.2-12.3-7.8-5.8-14-11.3-28-17.2-42-.7-1.7-2.9-3.6-4.6-3.8-1.1-.1-3.2 2.3-3.9 4-5.8 14.1-11.1 28.5-17 42.6-1.2 2.7-4.3 4.5-6.6 6.8l-3 2.7h20.6l.4-1.3c-1.2-.4-2.5-.7-3.5-1.4-1.2-.8-2.8-2-3-3.1-1-6 3.2-10.6 9.2-10.6h7c7.9 0 9.2 1.2 10.5 9 .4 2.9 0 4.6-3.3 5-1 0-2 1-3 1.6 0 .3.2.7.4 1H508c-1-1.2-1.4-2.5-2-2.5-5.7-.4-6-4.5-6-8.6v-32c2 1 3.1 2.2 4 3.5l24.7 35.8c4 5.8 5.7 6.3 13.1 4.1v-40.3m179.2 30.1L735 838c1 12.5 1.2 24.7.8 37 0 1.7-3.3 3.3-5 5-1 .7-2 1.1-3 1.7l.5 1H755c-.4-1.5-1.2-2.6-2.1-2.7-4.6-.3-5.9-3.3-5.9-7.1v-36c0-3.5 1-6.1 5-7 .8-.1 1.5-1.2 2.3-1.8-1-.4-1.9-1.2-2.9-1.2-5-.1-10-.3-15 .1a6.4 6.4 0 0 0-4.3 3.3c-2.6 5.6-4.6 11.4-6.8 17.1l-8.9 22.1-11.8-30c-4.7-12.6-4.7-12.6-17.9-12.7h-6.4c-1 .1-1.9.7-2.8 1l-.6 1.3c5 .9 8.4 2.6 8.4 8-.3 12 0 24-.1 36 0 3.8-1.4 6.4-5.6 7-1 0-2 .8-3 1.3l.5 1h22l1-1.4c-.8-.3-1.6-.9-2.3-.9-6.1 0-6.8-4.2-6.8-8.9v-33a7.4 7.4 0 0 1 3 3.8l15.3 37.3c1 2.1 1.2 5.6 4.7 4.5 1.7-.6 3.1-2.6 4.2-4.3 1.2-1.8 1.7-4 2.9-6.7m82.8-39.4c-1-5.3-3.9-7.4-9.4-6.7-3.9.6-8 0-12 .2-1 0-2 .9-3.1 1.3 4.7 1.7 7.6 3.8 7.5 8.7v36.5c0 3.7-1.5 6.4-5.9 6.6-.9 0-1.7 1.2-2.6 1.8l.5.8h21.9l1.3-1.7c-.9-.3-1.8-.8-2.8-.8-5.9 0-6.5-4-6.5-8.5V838c1.6 1.1 2.2 2.3 2.7 3.4 5.4 13.1 10.7 26.2 16.3 39.2a6 6 0 0 0 4.1 3c1.1.1 3-1.6 3.6-3 2.5-5.6 4.6-11.3 6.9-17l10.7-26.5c.8 12.5.9 24.7.8 37 0 3.2-1.8 5.1-5 5.7-1.2.2-2.3 1-3.3 1.6l.4 1.2h26.9c-.5-1.6-1.4-2.5-2.3-2.6-4-.4-5.7-2.6-5.7-6.3v-38c0-3.1 1.5-5.2 5-5.9.7-.1 1.4-1.2 2-1.8-.9-.4-1.8-1.2-2.7-1.2-4.7-.1-9.4.2-14-.2-3.3-.2-4.7 1.2-5.8 4-4 10.8-8.3 21.4-12.4 32.1-.7 1.8-1.6 3.4-2.9 6.3l-14.2-35.7m-486-6c-13 5-20.6 14.6-20.5 27.1 0 16.7 9.5 26.1 26 30.7-4 2.2-7.2 3.8-10 6-1.3 1-1.8 3.3-2.6 5 1.7-.2 4 .2 5.2-.7 4.3-3.3 8.6-3 13.1-.8 4.2 2 8.3 4.2 12.6 6a15.7 15.7 0 0 0 15.7-1.7c3.8-2.8 5-6.4 3.6-10.8h-1.4c-.3 0-.7.2-.8.4-3.8 6.6-9.7 5.2-15.5 4l-17-4.4c1.9-.9 3.4-1.7 5-2.3 4.2-1.9 8.7-3.3 12.7-5.6a28.4 28.4 0 0 0 9.8-41.6c-7.7-10.8-20.5-15-35.9-11.4m630 42.2.1-31.5c0-4.4.9-8 6.4-8.2.7 0 1.4-1.3 3-3h-20c-.9.1-1.7 1-2.5 1.6l2 1.6c1.7 1.3 4.8 2.7 4.8 4 .4 11.1.2 22.1.2 34.2-1.4-1.7-2.3-2.6-3-3.6l-17-24.7c-9-13.5-9-13.5-25.2-13-.4 0-.7-.2-1 0-1 .3-1.8.8-2.7 1.3.7.6 1.4 1.5 2.3 1.7 3.3.7 4.8 2.8 4.8 6v38c0 3.4-1.5 5.6-5.2 6.1-1 .2-2 1.2-4.2 2.5H914c-1-1.2-1.3-2.3-1.8-2.3-5.7-.3-6-4.4-6-8.5-.2-8.5-.1-17-.1-25.5v-7.7c1 .8 1.4 1 1.6 1.3 8.9 12.8 18.1 25.5 26.5 38.6 3.6 5.7 7.7 6.4 13.8 5v-14m19.8-31.8v34.5c0 4-.5 7.8-5.9 8-1 0-1.8.5-2.8.8 1.8 1.8 2.4 2 3 2 10.3 0 20.6.4 31 0 9.8-.6 18.5-4.3 23.8-13.3 9.9-16.8.1-38.1-20.1-41.5-11.3-1.9-23.2-.6-34.8-.7l-1 1.5c3.5 1.4 7.6 2.8 6.8 8.7m-301.6.6c.6-4 .9-8.2 6.5-8.3.6 0 1-1 1.6-1.5-.7-.5-1.4-1.5-2.1-1.5h-19.5c-.7 0-1.3 1-2.9 2.5 11.2.2 10.1 7.7 10.2 14.2.1 7 .3 14-.1 21-.5 9.2-5.8 14-14.8 14-8.7 0-13.6-4.8-14-14.1-.3-9 0-18 0-27 0-4.2 1-7.7 6.3-7.6.6 0 1.3-.8 1.9-1.2-.5-.6-.9-1.7-1.3-1.7-7.7-.1-15.3-.2-23 0-.5 0-1.2.9-1.4 1.5-.1.3.7 1.3 1.1 1.3 5.7.3 5.4 4.6 5.5 8.4.2 9.8-.1 19.6.7 29.4.7 9.6 5.2 13.8 14.7 15.5 2.9.5 6 .8 8.9.7 14.5-.4 21.3-7.2 21.5-21.7.2-7.7.1-15.3.2-23.9m-272.4 40.2c-8.1-1.7-11.3-4.7-11.6-12.6-.4-10-.1-20 0-29.9 0-3.4 1.4-5.6 5.2-6 1-.1 1.8-1.2 2.6-1.9-1-.4-1.9-1-2.8-1.1h-20c-1 0-2 .7-3 1l-.8 1.4c8.7.2 7.6 6 7.6 11.1l.1 23.5c.4 12.1 5 18 16.5 19.4 24 3 29.5-7.2 29.4-24.4-.1-7-.1-14 .2-21 .1-3.8.8-7.8 6.1-8 .6 0 1.2-1.2 1.7-1.8-.7-.4-1.5-1.2-2.3-1.2h-18.4c-.8 0-1.6.8-2.4 1.2.6.6 1.2 1.7 1.8 1.8 5.7.2 6.8 4 7 8.5.2 8.2.3 16.3.1 24.5-.2 11-5 15.5-17 15.5m644.3-1.7-10.1-13.4 1.2 20.8c1.7-2.4 2.5-3.6 3-4.1 4.6 1.4 8.7 3.1 12.9 3.7 10.3 1.4 20.6-4.3 22.8-12.1 2.4-9-1.5-15.5-12.7-20.9-4.3-2-8.8-3.8-13.2-5.8-3.2-1.5-5.5-4.3-4-7.5 1-2.5 3.7-5.3 6.2-6 6.6-2.2 12.4 1.2 15.8 8 .7 1.4 1.8 2.7 2.7 4l1.5-.7-.9-16.5-3.6 4a22 22 0 0 0-18.3-3.4c-10.1 2.5-15.7 13.4-10.3 21.7 2.7 4.1 7.7 7 12 9.8 3.7 2.3 8 3.3 11.8 5.4 5.9 3.2 5.8 10.2 0 13.6-5.3 3.2-10.8 2.7-16.8-.6M552.8 841l1.2 1.9c.5-.9 1.4-1.7 1.6-2.6 1.6-7.5 3.5-9.2 11-9.4h5.5c3-.1 4 1.2 4 4.2v37c0 4.6-2 7.5-6.9 8-1.1 0-2.1 1.1-3.2 1.7l.5.8h29.9l.2-1.4c-1.2-.4-2.3-1-3.6-1.2-4.2-.5-6.2-3-6.2-7v-38.5c0-1.1.7-2.8 1.5-3.3 6.7-3.6 16.8 1 18.7 8.4.3 1.3 1.2 2.4 1.8 3.6l1-.5V827h-57v14M869 867.4c-.2 3.1.3 6.7-1 9.3-1 2.3-4.3 3.6-7.5 6h27.2c-.8-1.2-1.1-2.4-1.6-2.4-6-.4-6.3-4.7-6.3-9.3v-29.5c0-5.3-1.3-11.5 7.1-12.3-2.7-2.7-18.6-3.4-24.8-1.4.4.7.7 1.9 1.2 1.9 5.6.5 5.7 4.6 5.7 8.8v28.9m61.2 61.2-2.8 6.5c-3.8-7.4-6.4-14.7-9.2-22-.5-1.2-1.6-2.8-2.6-3-3-.4-6-.1-9-.1l-1 1.2c6.5 1.2 5.1 5.7 5.2 9.6v11.5c0 4.3 1.4 9.2-4.1 11.7h9.8c-5.5-8.6-1.4-17.9-3-26.6l1.2-.2 10.4 27.8 2.3-.2 9.2-28c-.3-.1 1.4.3 1.4.7-.6 8.8 3 18-2.6 26.4H946c-1-2.9-2.6-5.5-2.8-8.2-.5-4.7-.2-9.3-.1-14 0-4.2-1.3-9 4.7-11.2-3.3-.5-6-.8-8.8-.4a4.5 4.5 0 0 0-3 2.4c-2 5-3.7 10.2-5.7 16m-332.9-3.2c-1.2-5.4-3.3-11 4.6-14.9h-14.6c5 1.8 4.3 5.8 4.3 9.6v14.5c0 3.7.7 7.7-4.2 9.5h13.3c-7.8-3.7-3-10.4-4.6-15.7h16.2c-1.7 5.4 3 12-6.1 15.7H621c-5.2-1.7-4-6-4-9.5V920c0-3.7-1.1-7.9 4.1-9.5h-14.3c5.7 3.4 6.5 6.6 4.6 15-4.3 0-8.7 0-14-.2M746.7 910c-1.2 0-2.4.2-4.5.4 2.4 1.8 4.8 2.8 4.9 3.9.4 6.6.2 13.3.2 19.9-5.6-6.7-10-13.6-14.5-20.6-2.7-4.1-6.1-5-11.6-2.1 5.2.4 5 3.7 5 7.2v14.5c-.1 4 1.3 8.6-4 10.8H734c-2-1.7-4.5-2.9-4.6-4.1-.4-7.2-.2-14.4-.2-23l16 24.8c1 1.4 2.6 2.2 3.9 3.3l1.3-1v-21.3c0-4.5-1.6-9.6 4-12.7h-7.7m-324.5 31.4c-3.5-4.7-7-9.4-10.6-13.9-1.8-2.3-1.6-4 .4-6l10.7-11.2h-9.8c.2 2 1.1 4.3.4 5.3-3.1 4.2-6.7 8-10.1 12l-1.3-.6c1.5-5.5-3.6-12.4 5.8-16.7H393c5 2.1 4.2 6.2 4.2 10.1V935c0 3.7.4 7.3-4.2 9h13.5c-4.6-1.7-5-5.3-4.3-9 .4-2.2 1.8-4.2 3.2-7.5 3.6 5 6.2 8.4 8.4 12 2.7 4.3 6.2 5.7 11.6 4.4l-3.1-2.4M683.5 919c0 5.3-.8 10.7.1 15.7 1.3 6.5 6.4 9.8 13.2 10 7 .1 12-2.8 14-9a34 34 0 0 0 1.3-11.7c-.4-7.6-4.8-13-11.1-14.1-5.9-1-13.8-.2-17.5 9.1m-44.4 20.1v-11l11.4-.6v-2h-11.2v-13c3 0 6.1-.8 8.4.2 2.2 1 3.6 3.7 5.9 6.3v-8.6h-22.3c1 2.9 2.5 5.5 2.7 8.2.5 5.1.2 10.3.1 15.4 0 3.8 1.1 8-4 10h25v-8c-1.6.8-2 1.9-2.5 3-1.9 3.6-10.4 4.3-13.5.1m-273.7 4.2c.9.3 1.8.8 2.7 1 7.3 1.6 13.5-1 15.1-6.2 1.8-5.7-.8-9.5-8.5-13-2-1-4.8-2-5.6-3.8-1-2.1-1.3-6 0-7.4 1.4-1.4 5-1 7.5-.5 1.2.2 1.8 2.9 2.7 4.5 3.6-1 3.9-3.3 1.9-5.5-3.1-3.6-7.7-3.7-11.5-2.3-2.7 1-5.4 4-6.4 6.7-1.3 3.8.4 7.6 4.1 9.8 2.6 1.5 5.7 2.3 7.8 4.3 1.8 1.7 3.4 4.6 3.3 6.8-.1 1.6-3 3.7-5 4.3-3 1-5.5-.6-6.8-3.5l-1.8-4.1c-3.8 3.3-2.5 5.9.5 8.9m81.3-9.7c1.1-9.2 6.8-16 12.3-23.1h-10.8c1.1 1.9 3.3 4 2.8 5.2-1.4 3.9-3.7 7.4-6 11.7l-7.1-14 5.1-3h-12.9c3.8 6.5 8.1 12.7 11.2 19.6 2.4 5.5.2 10.6-4.7 13.8h14.8c-5.9-1.2-4.6-5.6-4.7-10.2m75-23c-.9-.3-1.8-.7-2.8-.9-6.3-.8-11 1.5-12.5 5.8-1.7 5 .7 9.5 6.9 12.7 1.9 1 4.3 1.5 5.6 3 1.5 1.8 3.1 4.6 2.8 6.6-.3 1.7-3.3 4-5.1 4.1-2.2.1-4.6-1.7-6.5-3.2-1-.7-1.1-2.6-1.7-4-3.5 2.6-3.8 5.8-.6 8 4.4 3 9.5 3 13.7.5 2.5-1.4 4.6-4.9 5.1-7.8.8-5-3-7.6-7.1-9.6-2.4-1.1-5.2-2-6.8-3.9-1.4-1.6-1.8-4.5-1.4-6.6.2-1.3 3-3.1 4.4-3 1.9.2 3.7 2 5.4 3.2.7.5 1 1.5 1.7 2.9 3.6-3.2 3-5.5-1-7.9m273.9.4c4 6 8.6 12 12 18.4 2.8 5.1.2 11.6-5 14.6h16.2c-5.5-3-7.6-9.9-4.9-15.2 3.3-6.3 7.1-12.4 10.5-18.3H815c1 2 3.2 4.3 2.7 5.6-1.3 3.7-3.6 7-6 11.2l-7-13.8 5.4-3.2c-5.6 0-9.8 0-14.3.7m202.6-1H978v8.3c1.5-.7 2-1.5 2.2-2.3.7-3.7 3.5-4 6-3.3 1.2.3 2.3 2.8 2.4 4.3.2 5.7.1 11.3 0 17 0 4 1.3 8.6-4.7 10H998c-1.6-1.8-4.3-3.4-4.4-5.1-.4-8.6-.2-17.2-.2-25.7 5.8-2.2 8.6.4 9.7 6.1l1-1.1V910h-5.8m-430.1 22.5v-19c5.9-2.8 8.3.5 10.7 4.6v-7.7h-26.5v7.9l1 1c1.8-4.6 3.7-9 9.9-6V934c0 4 1.3 8.7-4.8 10h14.3c-6.2-1.7-4.4-6.6-4.6-11.4m290.6 0c0-2-.3-4 0-6 .9-5.5-3.1-12.3 5.1-16h-15.5c5.4 3 5.4 3 5.4 8.6v16c.2 3.8.1 7.3-4.4 9h25.3v-10.7c-2.3 3.4-3.5 7-5.9 8.2-2.6 1.3-6.4.3-10 .3v-9.4m-74.4 8.5c-3.9.5-7.7 1-12 1.4v-22.2c-.2-4-.5-7.8 4.2-9.6h-14.3c5.2 2.9 5.2 2.9 5.2 7.8v17c.2 3.5.1 6.9-4.3 8.6h25.3v-9.8l-1.3-.2c-.8 2.1-1.5 4.3-2.8 7m-290.5-31h-11l-1.3 1.4c7 .6 5.5 5.2 5.5 9v15c.2 3.5.2 7-4.2 8.6h13.6c-5-1.7-4.5-5.6-4.4-9.5v-12.9c.1-4.2-1.4-9 4.5-11.3l-2.7-.4m474.9 32.5c-3.1-.3-3.6-2.5-3.5-5v-17c0-3.9-.9-8 4.4-9.8H956l-1 1.2c6-.1 5.3 3.7 5.4 7v14c-.1 4.1 1.4 9-4.7 11 4.7.5 9 .5 13.2.5.2 0 .4-1-.1-1.9m-75.3-27.5 3.4-4.3h-12.6c4.5 1.5 4.4 4.8 4.4 8.3-.1 5.4-.2 10.7 0 16 .2 3.9 0 7.3-4.5 9h13.6c-5.2-1.2-4.4-5.2-4.4-8.6l.1-20.4z"/>
  <path fill="#0B9F46" d="M848.2 599.3c-20 56.6-52.1 104.4-98.7 142a253.8 253.8 0 0 1-94.3 47.5c-13.6 3.7-26 .7-38.7-3.1A260.1 260.1 0 0 1 496.6 707c-31-34.9-52.9-74.9-66.5-119.5a286.1 286.1 0 0 1-13.2-84.5c0-70.4.2-140.7-.2-211 0-10 7.2-14.3 15.7-10 35.4 17.9 73.4 23 112.5 21.4 26-1 51.3-5.8 75.5-15.6 5-2.1 10-4.5 14.9-7 3.9-2 7.5-2 11.4 0 35.8 18.4 74.1 24 113.8 22.7 27-1 53.3-6 78.3-16.3 4.5-1.9 8.7-4.2 13.2-6.1 6.9-3 13 .9 13 8.4 0 74.6.3 149.3-.2 224-.2 29.3-7 57.7-16.6 85.8m-12.5-291.2a261.9 261.9 0 0 1-178.2-2.5 40.2 40.2 0 0 0-32-.5c-54.7 21.4-110.8 22.3-167.2 6.8-7.7-2.1-15.1-5-23-7.5l-.3 4.6c0 62-.2 124 .2 186a294.2 294.2 0 0 0 88.4 213.2A236 236 0 0 0 622 768c9 2.7 18 5.8 27.9 3a236 236 0 0 0 76.8-36 283.3 283.3 0 0 0 83.4-94.9c22.7-41 36-85 36.6-132 .8-66.9.3-133.7.3-200.5 0-1-.2-1.9-.4-3.4l-11 4z"/>
  <path fill="#383642" d="M541.9 843.2V883c-7.4 2.2-9 1.7-13-4.1L504 843c-.9-1.3-2-2.5-4-3.6v32c0 4.2.3 8.3 6 8.7.6 0 1 1.3 2 2.5h-49c0-.3-.2-.7-.4-1 1-.6 2-1.6 3.1-1.7 3.2-.3 3.7-2 3.3-4.8-1.3-8-2.6-9-10.5-9.1h-7c-6 0-10.1 4.5-9.2 10.6.2 1.2 1.8 2.3 3 3.1 1 .7 2.3 1 3.5 1.4l-.4 1.3H424l3-2.7c2.3-2.3 5.4-4.1 6.5-6.8 6-14.1 11.3-28.5 17.1-42.7.7-1.6 2.8-4 4-3.9 1.6.2 3.8 2 4.5 3.8 5.9 14 11.4 28 17.2 42 2.7 6.6 6.2 8.5 12.3 7.8 3.2-.4 5.5-1.9 5.6-5.3 0-13.3.2-26.6-.4-39.9 0-2.3-3.9-4.3-6.4-7 .4-.1 1.5-1 2.6-1 4.8-.1 9.7-.3 14.5.1 1.7.2 3.7 1.8 4.8 3.3 8 11.3 15.8 22.8 23.6 34.1.8 1 1.6 2 3.5 2.9v-29.6c-.1-4-.7-7.4-5.8-7.7-.6 0-1-1-1.6-1.4.5-.6 1-1.6 1.4-1.6 6.4 0 12.7 0 19 .2.4 0 .7.9 1 1.3-2.7 1.7-6.2 2.7-7.4 5-1.4 2.5-.8 6.1-1 9.8m-92.8 3.3-5.8 15h17l-8.3-22-3 7z"/>
  <path fill="#393843" d="M721 873.2c-1 2.3-1.6 4.5-2.8 6.3-1 1.7-2.5 3.7-4.2 4.3-3.5 1-3.8-2.4-4.7-4.5L694 842a7.4 7.4 0 0 0-3-3.7v33c0 4.6.8 8.8 6.9 8.8.7 0 1.5.6 2.3.9l-1 1.5h-22l-.4-1c1-.6 1.9-1.4 2.9-1.5 4.2-.5 5.6-3.1 5.6-6.9 0-12-.2-24 0-36 .1-5.4-3.4-7.1-8.3-8l.6-1.2c1-.4 1.8-1 2.8-1 2.1-.2 4.3 0 6.4 0 13.2 0 13.2 0 18 12.5 3.6 9.6 7.4 19.1 11.7 30.1l8.9-22c2.2-5.8 4.2-11.6 6.8-17.2a6.4 6.4 0 0 1 4.4-3.3c5-.4 10-.2 15-.1.9 0 1.8.8 2.8 1.2-.8.6-1.5 1.7-2.3 1.9-4 .8-5 3.4-5 7v35.9c0 3.8 1.3 6.8 5.9 7.1.9 0 1.7 1.2 2 2.8h-26.6l-.5-1c1-.7 2-1.1 3-1.9 1.7-1.6 5-3.2 5-5 .4-12.2.2-24.4-.8-37l-14 35.3z"/>
  <path fill="#383642" d="m804 833.7 14.1 35.4c1.3-2.9 2.2-4.5 2.9-6.3 4.1-10.7 8.4-21.3 12.4-32 1-2.9 2.5-4.3 5.8-4 4.6.3 9.3 0 14 .1 1 0 1.8.8 2.8 1.2-.7.6-1.4 1.7-2.2 1.8-3.4.7-4.8 2.8-4.8 6v38c0 3.6 1.7 5.8 5.6 6.2 1 0 1.8 1 2.3 2.6h-27l-.3-1.2c1-.5 2-1.4 3.2-1.6 3.3-.6 5-2.5 5-5.8.2-12.2.1-24.4-.7-37l-10.7 26.5c-2.3 5.8-4.4 11.5-7 17.1-.5 1.4-2.4 3.1-3.5 3a6 6 0 0 1-4-3c-5.7-13-11-26.1-16.4-39.2-.5-1.1-1-2.3-2.7-3.4v33.5c0 4.4.6 8.5 6.5 8.5 1 0 1.9.5 2.8.8l-1.3 1.7h-22c0-.3-.2-.6-.4-.8.9-.6 1.7-1.7 2.6-1.8 4.4-.2 5.8-3 5.9-6.6v-36.5c0-4.9-2.8-7-7.5-8.7 1-.4 2-1.3 3.2-1.3 4-.2 8 .4 12-.2 5.4-.7 8.4 1.4 9.5 7zM318.3 827.2c15-3.5 27.8.7 35.5 11.5a28.4 28.4 0 0 1-9.8 41.6c-4 2.3-8.5 3.7-12.8 5.6l-5 2.3 17.1 4.4c5.8 1.2 11.7 2.6 15.5-4 0-.2.5-.4.8-.4h1.4c1.3 4.4.2 8-3.6 10.8a15.7 15.7 0 0 1-15.7 1.6c-4.3-1.7-8.4-3.9-12.6-5.9-4.5-2.2-8.8-2.5-13.1.8-1.2.9-3.5.5-5.2.7.8-1.7 1.3-4 2.6-5 2.8-2.2 6-3.8 10-6-16.5-4.6-26-14-26-30.7-.1-12.5 7.4-22 20.9-27.3m18.8 50.7c10.8-6.7 11.8-27.7 6.1-37.9-3.8-6.8-9.6-10-17.3-9.2-7.4.6-11.6 5.3-14 11.8-2.8 7.9-2.8 16-.6 24 3.4 12.4 13.4 17 25.8 11.3z"/>
  <path fill="#393843" d="M948 870v13.4c-6 1.4-10.2.7-13.8-5-8.4-13.1-17.6-25.8-26.5-38.6-.2-.3-.5-.5-1.6-1.3v33.2c0 4.1.4 8.2 6 8.5.6 0 1 1 2 2.3h-23.4c2.2-1.3 3.1-2.3 4.2-2.5 3.7-.5 5.2-2.7 5.2-6.1v-38c0-3.2-1.5-5.3-4.8-6-.9-.2-1.6-1.1-2.3-1.7l2.7-1.4h1c16.2-.4 16.1-.4 25.3 13l17 24.8c.6 1 1.5 1.9 3 3.6 0-12 .1-23.1-.3-34.1 0-1.4-3-2.8-4.8-4.1l-2-1.6c.8-.5 1.6-1.5 2.5-1.5 6.1-.2 12.3 0 20 0-1.6 1.6-2.3 3-3 3-5.5 0-6.4 3.7-6.4 8.1v32z"/>
  <path fill="#353340" d="M967.8 837.2c.8-5.5-3.3-6.9-6.8-8.3l1-1.5c11.6.1 23.5-1.2 34.8.7a27.7 27.7 0 0 1 20.1 41.5c-5.3 9-14 12.7-23.9 13.2-10.3.5-20.6.2-31 .2-.5 0-1-.3-2.9-2.1 1-.3 1.9-.8 2.8-.8 5.4-.2 5.9-4 5.9-8v-35m20.4-5.8h-3c-6.9 0-6.9 0-6.9 6.6v31c0 6.4 2.6 9 9 9.6 12.2 1.2 19.6-5.5 21-19 1.9-16.5-5.3-27-20.1-28.2z"/>
  <path fill="#383642" d="M666.2 838.7c0 8 0 15.7-.2 23.4-.2 14.5-7 21.3-21.5 21.7-3 .1-6-.2-9-.7-9.4-1.7-13.9-6-14.6-15.5-.8-9.8-.5-19.6-.7-29.4-.1-3.8.2-8-5.5-8.4-.4 0-1.2-1-1.1-1.3.2-.6.9-1.5 1.4-1.6h23c.4 0 .8 1.2 1.3 1.8-.6.4-1.3 1.2-1.9 1.2-5.4-.1-6.2 3.4-6.3 7.6 0 9-.3 18 0 27 .4 9.3 5.3 14 14 14 9 0 14.3-4.7 14.8-13.9.4-7 .2-14 .1-21-.1-6.5 1-14-10.2-14.2 1.6-1.4 2.2-2.4 2.9-2.5h19.5c.7 0 1.4 1 2 1.5-.4.5-1 1.4-1.5 1.5-5.6 0-5.9 4.4-6.5 8.8zM394.2 878.5c11.6-.1 16.4-4.6 16.6-15.6.2-8.2 0-16.3-.1-24.5-.2-4.4-1.3-8.3-7-8.5-.6 0-1.2-1.2-1.8-1.8.8-.4 1.6-1.2 2.4-1.2h18.4c.8 0 1.6.8 2.3 1.2-.5.6-1 1.7-1.7 1.8-5.3.2-6 4.2-6.1 8-.3 7-.3 14-.2 21 .1 17.2-5.4 27.3-29.4 24.4-11.5-1.5-16-7.3-16.5-19.4-.2-7.9 0-15.7 0-23.5-.1-5 1-11-7.7-11l.7-1.5c1-.3 2-1 3.1-1h20c1 0 1.9.7 2.8 1.1-.8.7-1.7 1.8-2.6 1.9-3.8.4-5.2 2.6-5.3 6 0 10-.3 20 .1 30 .3 7.8 3.5 10.8 12 12.6z"/>
  <path fill="#3B3945" d="M1038.5 877c5.6 3 11 3.5 16.4.3 5.8-3.4 5.9-10.4 0-13.6-3.8-2-8.1-3.1-11.7-5.4-4.4-2.8-9.4-5.7-12.1-9.8-5.4-8.3.2-19.2 10.3-21.7a22 22 0 0 1 18.3 3.4l3.6-4 1 16.5-1.6.8c-.9-1.4-2-2.7-2.7-4.2-3.4-6.7-9.2-10.1-15.8-8-2.5.8-5.2 3.6-6.2 6-1.5 3.3.8 6.1 4 7.6 4.4 2 8.9 3.7 13.2 5.8 11.2 5.4 15.1 12 12.7 20.9-2.2 7.8-12.5 13.5-22.8 12-4.2-.5-8.3-2.2-13-3.6l-2.9 4-1.2-20.7c4 5.3 7 9.3 10.5 13.6zM552.8 840.5V827h57v15.7l-1 .5c-.6-1.2-1.5-2.3-1.8-3.6-1.9-7.4-12-12-18.7-8.4-.8.5-1.5 2.2-1.5 3.3V873c0 4 2 6.5 6.2 7 1.3.1 2.4.8 3.6 1.2l-.2 1.4h-29.9l-.5-.8c1-.6 2-1.6 3.2-1.7 5-.5 7-3.4 7-8v-37c0-3-1.2-4.3-4.1-4.2h-5.5c-7.5.2-9.4 1.9-11 9.4-.2 1-1 1.7-1.6 2.6-.4-.6-.8-1.3-1.2-2.3z"/>
  <path fill="#353340" d="M869 866.9v-28.4c0-4.2 0-8.3-5.6-8.8-.5 0-.8-1.2-1.2-2 6.2-1.9 22.1-1.2 24.8 1.5-8.4.8-7 7-7 12.3-.2 9.8 0 19.7-.1 29.5 0 4.6.2 8.9 6.3 9.3.5 0 .8 1.2 1.6 2.3h-27.2c3.2-2.3 6.4-3.6 7.6-6 1.2-2.5.7-6 .9-9.7z"/>
  <path fill="#44424B" d="M930.4 928.2c2-5.5 3.6-10.6 5.6-15.7.4-1 1.9-2.3 3-2.4 2.7-.4 5.5-.1 8.8.4-6 2.2-4.7 7-4.7 11.2 0 4.7-.4 9.3 0 14 .3 2.7 1.9 5.3 2.9 8.2h-10.5c5.6-8.3 2-17.6 2.6-26.4 0-.4-1.7-.8-1.4-.7l-9.2 28-2.3.2-10.4-27.8-1.2.2c1.6 8.7-2.5 18 3 26.6h-9.8c5.5-2.5 4-7.4 4.1-11.7v-11.5c0-3.9 1.3-8.4-5.1-9.6l.8-1.2c3 0 6.1-.3 9.1.1 1 .2 2.1 1.8 2.6 3 2.8 7.3 5.4 14.6 9.2 22l2.9-6.9z"/>
  <path fill="#383642" d="m598 925.4 13.4.1c1.9-8.4 1-11.6-4.6-15h14.3c-5.2 1.6-4.1 5.8-4.1 9.5v14.5c0 3.6-1.2 7.8 4 9.5h-14.7c9-3.7 4.4-10.3 6-15.7h-16c1.5 5.3-3.3 12 4.5 15.7h-13.3c5-1.8 4.2-5.8 4.2-9.5V920c0-3.8.7-7.8-4.3-9.6H602c-7.9 3.8-5.8 9.5-4 15z"/>
  <path fill="#3F3D47" d="M747.2 910h7.3c-5.7 3.1-4 8.2-4.1 12.7V944l-1.3 1c-1.3-1.1-3-2-3.8-3.3-5.2-7.7-10.2-15.6-16-24.8 0 8.6-.3 15.8.1 23 0 1.2 2.6 2.4 4.6 4h-11.8c5.3-2.1 3.9-6.7 4-10.7v-14.5c0-3.5.2-6.8-5-7.2 5.5-2.8 8.9-2 11.6 2.1 4.4 7 8.9 13.9 14.5 20.6 0-6.6.2-13.3-.2-20 0-1-2.5-2-5-3.8l5-.4z"/>
  <path fill="#44424B" d="m422.5 941.5 2.8 2.3c-5.4 1.3-9 0-11.6-4.3-2.2-3.7-4.8-7-8.4-12.1-1.4 3.3-2.8 5.3-3.2 7.5-.7 3.7-.3 7.3 4.3 9h-13.5c4.6-1.7 4.3-5.3 4.2-9v-14.5c0-3.9.8-8-4.2-10h14.8c-9.4 4.2-4.3 11.1-5.8 16.6l1.3.6c3.4-4 7-7.8 10-12 .8-1-.1-3.2-.3-5.3h9.8L412 921.5c-2 2-2.2 3.7-.4 6 3.6 4.5 7 9.2 10.9 14z"/>
  <path fill="#3F3D47" d="M683.7 918.8c3.5-9 11.4-9.9 17.3-8.8 6.3 1.1 10.7 6.5 11.1 14 .2 4-.1 8.1-1.3 11.8-2 6.2-7 9.1-14 9-6.8-.2-12-3.5-13.2-10-1-5-.1-10.4 0-16M696 942c6.7 0 9.4-1.6 10.4-8 .7-5.2.3-10.6-.6-15.8-.6-3.9-3.8-6-8-6-4.2-.1-7.9 1.7-8.4 5.6a75 75 0 0 0 0 18.5c.3 2 3.8 3.7 6.6 5.7z"/>
  <path fill="#3B3945" d="M639 939.7c3.2 3.7 11.7 3 13.6-.7.5-1 1-2 2.5-2.9v8h-25c5.1-2 4-6.2 4-10 0-5.1.4-10.3 0-15.4-.3-2.7-1.8-5.3-2.8-8.2h22.3v8.6c-2.3-2.6-3.7-5.4-5.9-6.3-2.3-1-5.4-.2-8.4-.2v13h11.1v2l-11.3.6v11.5z"/>
  <path fill="#44424B" d="M365 943.1c-2.6-2.7-4-5.3 0-8.6l1.7 4c1.3 3 3.8 4.7 6.8 3.6 2-.6 4.9-2.7 5-4.3 0-2.2-1.5-5.1-3.3-6.8-2-2-5.2-2.8-7.8-4.3-3.7-2.2-5.4-6-4.1-9.8 1-2.7 3.7-5.6 6.4-6.7 3.8-1.4 8.4-1.3 11.5 2.3 2 2.2 1.7 4.5-2 5.5-.8-1.6-1.4-4.3-2.6-4.5-2.4-.6-6.1-.9-7.5.5-1.3 1.4-1 5.3 0 7.4.8 1.8 3.5 2.8 5.6 3.8 7.7 3.5 10.3 7.3 8.5 13-1.6 5.2-7.8 7.8-15 6.2-1-.2-2-.7-3.1-1.3zM446.7 934.1c0 4.2-1.2 8.6 4.7 9.8h-14.8c4.9-3.2 7.1-8.3 4.7-13.8-3-6.9-7.4-13.1-11.2-19.6h13l-5.2 3 7.1 14c2.3-4.3 4.6-7.8 6-11.7.5-1.2-1.7-3.3-2.8-5.2H459c-5.5 7-11.2 13.9-12.3 23.5zM522 910.8c3.8 2.2 4.4 4.5.8 7.7-.7-1.4-1-2.4-1.7-2.9-1.7-1.3-3.5-3-5.4-3.2-1.5-.1-4.2 1.7-4.4 3-.4 2 0 5 1.4 6.6 1.6 1.9 4.4 2.8 6.8 4 4.1 2 8 4.6 7.1 9.5-.5 2.9-2.6 6.4-5 7.8a12.5 12.5 0 0 1-13.8-.5c-3.2-2.2-2.9-5.4.6-8 .6 1.4.7 3.3 1.7 4 2 1.5 4.3 3.3 6.5 3.2 1.8 0 4.8-2.4 5.1-4 .3-2.1-1.3-4.9-2.8-6.7-1.3-1.5-3.7-2-5.6-3-6.2-3.2-8.6-7.7-6.9-12.7 1.5-4.3 6.2-6.6 12.5-5.8 1 .2 1.9.6 3.2 1zM795.8 910.6c4.4-.3 8.6-.3 14.2-.3l-5.5 3.2 7.2 13.8c2.3-4.1 4.6-7.5 6-11.2.4-1.3-1.8-3.6-2.8-5.6h9.6c-3.4 6-7.2 12-10.5 18.3a11.5 11.5 0 0 0 5 15.2h-16.4c5.3-3 7.9-9.5 5.2-14.6-3.5-6.4-8-12.3-12-18.8z"/>
  <path fill="#3B3945" d="M998.8 910h5.4v8.2l-1 1.1c-1.2-5.7-4-8.3-9.8-6.1 0 8.5-.2 17.1.2 25.7.1 1.7 2.8 3.3 4.4 5.1h-14.2c6-1.4 4.7-6 4.8-10 0-5.7.1-11.3-.1-17-.1-1.5-1.2-4-2.3-4.3-2.6-.8-5.4-.4-6 3.3-.2.8-.8 1.6-2.3 2.3V910h21z"/>
  <path fill="#44424B" d="M568.2 933c.2 4.3-1.6 9.2 4.6 10.9h-14.3c6-1.3 4.7-6 4.7-10v-20.5c-6-3-8 1.3-9.8 5.9l-1-1v-8H579v7.8c-2.4-4-4.8-7.4-10.7-4.7V933zM858.8 933v8.9c3.6 0 7.4 1 10-.3 2.4-1.2 3.6-4.8 5.9-8.2V944h-25.3c4.5-1.6 4.6-5 4.5-8.9-.2-5.3 0-10.7 0-16-.1-5.5-.1-5.5-5.5-8.6h15.5c-8.2 3.7-4.2 10.5-5.1 16-.3 2 0 4 0 6.4z"/>
  <path fill="#393843" d="m784.6 940.7 2.6-6.7 1.3.2v9.8h-25.3c4.4-1.7 4.5-5 4.4-8.7-.2-5.6 0-11.3 0-17 0-4.8-.1-4.8-5.3-7.7h14.3c-4.7 1.8-4.4 5.6-4.3 9.6.2 7.1 0 14.2 0 22.2 4.4-.5 8.2-1 12.3-1.7z"/>
  <path fill="#44424B" d="M494.4 910c1 0 1.6.2 2.2.3-5.9 2.2-4.4 7.1-4.5 11.3v13c0 3.8-.5 7.7 4.4 9.4H483c4.4-1.7 4.4-5 4.3-8.7-.2-5 0-10 0-15-.1-3.7 1.5-8.3-5.6-9l1.3-1.4h11.5zM969.1 942.6c.2.7 0 1.6-.2 1.7-4.2 0-8.5 0-13.2-.4 6-2.2 4.6-7 4.7-11.1v-14c0-3.3.7-7.1-5.4-7l1-1.2h13.7c-5.3 1.7-4.5 6-4.4 9.8v17c0 2.5.4 4.7 3.8 5.2z"/>
  <path fill="#383642" d="M893.5 915.3c-.1 7-.2 13.5-.1 20 0 3.4-.8 7.4 4.4 8.6h-13.6c4.5-1.7 4.7-5.1 4.5-9-.2-5.3-.1-10.6 0-16 0-3.5 0-6.8-4.4-8.3H897c-1 1.2-2.2 2.7-3.4 4.7z"/>
  <path fill="#F8FDFA" d="M836 308c3.7-1.3 7-2.4 10.6-3.8.2 1.5.4 2.4.4 3.4 0 66.8.5 133.6-.3 200.4-.6 47-14 91-36.6 132.1a283.3 283.3 0 0 1-83.4 94.8 236 236 0 0 1-76.8 36.2c-10 2.7-18.9-.4-27.9-3a236 236 0 0 1-98.5-60A294.2 294.2 0 0 1 435.2 495c-.4-62-.2-124-.2-186l.3-4.5c7.9 2.6 15.3 5.4 23 7.5 56.4 15.5 112.5 14.6 167.2-6.8a40.2 40.2 0 0 1 32 .5c58.9 22 118.5 22.2 178.5 2.4M473 585.6c0 .4 0 1 .2 1.4A263.5 263.5 0 0 0 555 704c-.3 5.3 3.9 2.6 6.2 4 19.5 15 41.2 25.6 64.9 32.2 7.5 2.1 14.8 4.2 23 2a197.3 197.3 0 0 0 66.9-30.4c58.2-41.9 91.8-99.2 104.3-169.3 5.1-28.6 2.7-57.5 3.5-86.5-.2-1-.5-2-.5-4V331.9c-1.5-.1-2-.2-2.5-.1-.8.1-1.6.4-2.4.7a198 198 0 0 1-70 14.9c-36.6 1.6-72-2.8-105.3-19.6-1-.5-3-.5-4 0a189.6 189.6 0 0 1-78.5 19.5c-33 1.5-65.5-1.5-96.4-14.6-1.5-.6-3-.8-5-1.3l-.3 5.2c0 53-.1 106 .1 159 0 13.4.4 27 2.1 40.3 1.5 12 5 23.7 7.7 36.2 1.4 4.2 2.8 8.5 4.2 13.5z"/>
  <path fill="#F9F9F9" d="m449.2 846.2 2.8-6.7 8.3 22h-17l5.9-15.3z"/>
  <path fill="#FBFBFB" d="M336.8 878.1c-12 5.4-22.1.9-25.5-11.5-2.2-8-2.2-16.1.6-24 2.4-6.5 6.6-11.2 14-11.8 7.7-.7 13.5 2.4 17.3 9.2 5.7 10.2 4.7 31.2-6.4 38.1z"/>
  <path fill="#F9F9F9" d="M988.6 831.3c14.4 1.2 21.6 11.7 19.8 28.1-1.5 13.6-8.9 20.3-21.2 19.1-6.3-.6-8.8-3.2-8.9-9.6v-31c0-6.6 0-6.6 6.9-6.6h3.4z"/>
  <path fill="#FAF9FA" d="M695.5 942c-2.4-1.9-6-3.5-6.2-5.6a75 75 0 0 1 0-18.5c.5-4 4.2-5.7 8.3-5.7 4.3 0 7.5 2.2 8.1 6.1.9 5.2 1.3 10.6.6 15.7-1 6.5-3.7 8-10.8 8z"/>
  <path fill="#069E42" d="M823 456.2c0 28.8 2.3 57.7-2.8 86.3-12.5 70-46.1 127.4-104.3 169.3a197.3 197.3 0 0 1-67 30.5c-8.1 2-15.4 0-23-2a179.2 179.2 0 0 1-64.7-33 301.3 301.3 0 0 0 97.5-62.7 262.8 262.8 0 0 0 56.4-76.7l6-12.2c1 2 .6 3.7 1 5.3.3 1 1.6 1.8 2.4 2.7.9-.9 2.4-1.7 2.4-2.6.2-7.9.2-15.7 0-23.5-.1-.7-3.4-2-3.9-1.7-5.6 5.2-11 10.6-16.3 16.2-.6.7 0 2.7.2 4 1.3 0 2.7 0 3.8-.5 1-.4 1.9-1.5 2.8-2.4l1.2.7c-1.2 3-2 6-3.4 8.7a269.4 269.4 0 0 1-37.1 57.2c-19.4 23-42 42-67.4 57.9a294 294 0 0 1-51.9 25.4 195.7 195.7 0 0 1-37.2-36.4A263.5 263.5 0 0 1 473 587c-.1-.4-.1-1 .2-1.8 1.3.1 2.3.4 3 1 5.9 6 13 7.1 20.7 4.6 7.1-2.3 10.7-8 14.1-14.4 11.6-21.3 23.6-42.4 35.2-63.7.8-1.4.6-4.3-.3-5.5-2.7-3.6-.3-6.3 1.6-7.8 1.5-1 4.8-.2 7 .5 3.4 1 1.8 3.2 1 5.2l-2.8 7.4c-1.8 4.4-.7 6.1 4.2 6.3 3.5.2 7 0 10.5.1 9.2 0 9.1 0 9.7 9.4.1 1.6 1.9 4.3 3 4.4 13.7 1.7 27.4 3.3 41.1 4.2 9 .6 18.2.2 27.3 0 1.7 0 4.3-1.2 4.9-2.5 4.7-10.6 9.6-21.2 13.5-32.2a237.5 237.5 0 0 0 14.2-62.8c1-14.1 1.3-28.2 1.5-42.3 0-1.4-2.3-3.8-3.8-4-3.5-.3-4-2-4-5-.1-4.2-.7-8.5-.8-12.8-.1-3.4-2.2-4-5-4.2-6.9-.7-13.8-1.3-20.7-2.3-18.6-2.4-37-5.1-55.6-7.5-1.4-.1-4 1.6-4.5 3a70.3 70.3 0 0 0-3.2 13c-.4 3.2-2 4-4.7 3.7-2.8-.3-5.6-1-8.4-.8a59.5 59.5 0 0 0-44.9 21.2 59.4 59.4 0 0 0-.3 79.5c3 4.2.5 6.3-.9 9.3-1.2 2.6-3 2.8-5.7 1.7-1.2-.5-4 .6-4.7 1.7-11 17.2-22 34.4-32.3 52-4.7 7.8-12 14.4-12.6 24.4 0 .5-1.3 1-2 1.4-2.6-11.8-6-23.5-7.6-35.5a334 334 0 0 1-2.1-40.3c-.2-53-.1-106-.1-159l.3-5.2c2 .5 3.5.7 5 1.3 30.9 13 63.3 16 96.4 14.6 27.5-1.1 53.8-7 78.4-19.4 1.1-.6 3-.6 4.1 0 33.3 16.7 68.7 21.1 105.4 19.5a198 198 0 0 0 72.3-15.6c.5-.1 1 0 2.5.1 0 40 0 80-.6 120.6-5.5.7-10.5 0-16.1 1 1 1.5 1.2 2 1.4 2l15.2.7m-61.2-56-.2-.6-.7-1.2V386c-.1-4-4.2-8-8.9-8.6.3 1 .3 2.3.8 2.7 5.4 3.6 5.5 9 5.2 14.6 0 .7.5 1.4.8 2.8 0 .4 0 .9-.8 1.4-1.4 0-2.7 0-4.7.3-2.8 1.6-5.6 3.2-8.7 4.1l-1.3-3.9-1.5-.2c-.2 1.6-.5 3.1-1 5.2-.3.5-.6 1-1.4 1.7l-1.3.8c-1 .7-2 1.3-3.4 1.6l-1.1.7c-.2.3-.5.5-1.4.8-1 1.7-2 3.3-3.2 5.8 0 1.7 0 3.5-.8 5.5l-7.3 1.3v1.6l6 1.1-.4 1.4c-2.6-1-7.2-1.8-7.2-2.7-.2-7.7.6-15.4.9-23 0-1.5-.3-3.6-1.3-4.2-1-.8-3.3-.8-4.4-.1-.9.5-1.2 2.6-1 3.9.6 5.2 1.8 10.3 2.3 15.5.4 4-1.4 10 .6 11.6 2.7 2.2 8.1 1 12.4 2.2 0 4.3 0 8.7-.9 13-8.1-.8-16.5 1.8-24.5-1.7-.8-.4-2.8.7-3.6 1.7-.7.8-.8 2.7-.2 3.5.5.9 2.2 1.3 3.3 1.4 1.4 0 2.9-.5 4.4-.9l1.7 11.5 1.6-.3c.2-3.6-.8-8.1 1-10.4 1.8-2.1 6.6-1.7 11-2.6-2.3 4.6-.6 5.8 2.8 5.7l4.5.1v1.7c.2.8.3 1.5.2 3 .9 1.1 1.8 2.4 2.7 4.1l.1 2-5 7.2-2 3.1 1.6 1.4c2.5-2.5 5-5 8-7.6.2 0 .4 0 .8.7-.5 1.5-.7 3-1.4 4.3-.8 1.5-2.1 2.7-3.9 4.2-2 2.8-5.9 6-5.5 8.5.9 6-2.2 5.4-5.9 5.4-2.1 0-4.2.6-6.4.9l.3 2.1h6.6c3.5 0 6.5.3 3.6 5.1-.5.9.3 3.2 1.2 4 .8.7 3.2.8 4 0a5 5 0 0 0 1.3-4c-1.7-7.2-4-14.4 3-20.2.5-.4.6-1.2 1.4-2.1 2.1-1.4 4.2-2.7 6.8-3.8.8.4 1.6.7 2.6 1.5l.9.5.1.7c3.3 1.5 6.6 3 10.5 4.4.5.3 1 .6 1.8 1.7l1.1 25h2c.1-1.4.5-2.9.5-4.4 0-5-.2-10 .1-15 .2-2.4 1.4-4.8 2.5-7.3l.9-.2c.3-.2.5-.4 1.4-.7 1-.4 2-.8 3.8-1.2.8-.6 1.6-1.2 3-2l2-.1c.4 0 .8 0 1.6.6l.8 5 1 1c.2-.5.5-1 .9-2.4.6-2.7 1.3-5.4 2-7.2v5c-.3 2.7.3 6.2-1.1 8-1.3 1.6-4.8 1.2-7.4 1.7 1.3 1.2 2.6 1.2 3.8 1.5 1.2.2 2.3.6 3.6 1-.4 1.4-1 2.5-.8 3.3.3 1.4.9 3 1.9 3.7.7.5 2.8 0 3.4-.6.7-1 .8-2.7.7-4 0-1.3-1-2.5-1.1-3.7-.2-3-1-6.4 4.6-5.9-.2-.6-.4-1.3-1.3-2-.7 0-1.4 0-2.3-.6-.7-.5-1.3-1-2-2 0-.5 0-.9.6-1.8l-.5-7.1c0-.4 0-.8.7-1.3l8.3 6 .7-1c-1.3-5.7-2.5-11.4-3.7-17.8 0-.7 0-1.4.8-2.4.4-2.4 1-4.8 1-7.2.2-5.8 1.1-6.6 7.1-4.7l1 15.5h1.4c.3-.8 1-1.6 1-2.5.3-4 .4-8.2.5-12.4.3-6.2 3.2-7.9 8.6-5 .9.5 2 .7 3.2 1-.2-2.7.5-6-.8-7.3-3.6-3.8-1.5-5.5 1.6-7.7 1.2-1 2-3 2-4.5 0-.7-2.7-2.2-3.7-1.9-1.5.5-2.7 2.2-3.7 3.7L799 433l-.2-.8-8-2.1.1-1c0-4.4.5-8.9-.1-13.2-.3-2-2.5-3.9-3.9-5.8l-.3-.6-2.1-.8c-.6-.5-1.2-1.1-1.8-2.1-.2-.3-.4-.4-.8-.5v-.9c-.5-1.7-.4-4.2-1.6-5-3.7-2.8-3-5.7-.6-8.4 3.7-4.1 7.8-7.9 11.7-12 1.3-1.2 2.4-2.8 4.3-5.1-2.1.1-3.1 0-3.5.3-5.4 4.8-11.5 9.1-15.8 14.8-2.3 2.9-1.5 8-2.1 12.4-1.4 0-2.9 0-5-.2-1 0-2-.1-3.4-.6-.3-.2-.6-.4-1.5-.5-.4 0-.9 0-1.6-.4-.2-.2-.5-.3-1-.4M671 643.5a307 307 0 0 1-60.8 47.4c-3.9 2.3-5.9 12.1-3 15.4.8.9 2.3 1.4 3.5 1.4h22c3 0 4.5-1.3 4.5-4.5-.2-5.4 0-10.7 0-16 0-7.7 2-10.5 9.8-13.4v28.5c-.2 4.3 1.5 5.6 5.5 5.5 6.3-.1 12.7-.2 19 0 4.9.3 6.4-1.7 6.3-6.4-.2-16.1.5-32.3-.3-48.4-.4-8.3 3.8-12.7 9.6-17.7v6l-.1 60.5c0 4.2 1.4 6.2 5.8 6h19.4c4.2.2 5.9-1.3 5.9-5.8-.2-36.6 0-73.2-.2-109.9 0-1.9-1.2-3.8-1.9-5.7-1.5 1.3-3.6 2.2-4.5 3.8a279.9 279.9 0 0 1-40.5 53.3m9.4-93.4c-15.8.6-30 5.8-42 16-4.6 3.8-8.9 7.7-15.3 8.8-3.1.4-6.2 2.4-9 4.2-7.8 5.3-13 12.3-13.4 23l12.1-1c.3 5.8-3.5 8.8-6.3 12.4-.8 1-.3 3.1-.4 4.7 1.4-.3 3.3-.2 4.2-1 2.2-2 4-4.4 5.9-6.6 3.9 2.1 5.1 3.9 2 6.8a65 65 0 0 0-7.5 8c-1 1.2-.8 3.3-1 5 1.7-.4 3.9-.2 5.1-1.2 2.3-1.8 3.9-4.5 6.1-6.5 1.7-1.4 2.8-5.7 6-2.7.8.6-.9 4-1.7 6-.3 1-1.6 1.5-1.8 2.4-.4 1.2-.3 2.6-.4 4 1.6-.1 3.4.3 4.5-.4 1.6-1 2.5-3.1 4-4.3 2.3-1.7 4.8-3 8.3-5.1-.4 3.4-.8 5.2-.8 7 0 2 .3 4 .5 6 2.4-.4 5-.2 7.1-1.1 11-5 16.3-14.1 18.4-25.6.6-2.7 1.7-5.6 3.5-7.7a69 69 0 0 0 16.5-47.9c0-2.7-1.3-3.5-4.6-3.2M804 487.5c0-10.3 0-10.3-2.3-11.7v29h2.3v-17.3m1-105.7-1-5.9c-3.1 6-2.4 21.5 1 23.9v-18m-60 116.6v-16.1c-3.8 4.3-4 19.5-.6 23.1l.6-7M730 394l1.6 3.8c2.3-6.6 1.8-19.2-1.6-22.7v19m-33.7 42c.2.6.3 1.8.5 1.8l7.5.1h9v-2l-17 .1m9 49 6.2-.6-.2-.8h-15.7v1.4h9.8m-5-79.1 4.5-1-.2-1.2h-9.5v1.6l5.2.6z"/>
  <path fill="#2D393C" d="M468.7 571.8c.6-.9 1.9-1.3 2-1.8.5-10 7.8-16.6 12.5-24.4 10.4-17.6 21.4-34.8 32.3-52 .7-1.1 3.5-2.2 4.7-1.7 2.7 1.1 4.5.9 5.7-1.7 1.4-3 3.9-5 1-9.3a59.4 59.4 0 0 1 .3-79.6c11.7-13.9 27-20.3 44.8-21.1 2.8-.1 5.6.5 8.4.8 2.7.3 4.3-.5 4.7-3.6.7-4.4 1.7-8.9 3.2-13 .5-1.5 3-3.2 4.5-3 18.5 2.3 37 5 55.6 7.4 6.9 1 13.8 1.6 20.7 2.3 2.8.2 4.9.8 5 4.2.1 4.3.7 8.6.8 12.9 0 2.8.5 4.6 4 5 1.5.1 3.8 2.5 3.8 3.9-.2 14-.4 28.2-1.5 42.3-1.5 21.6-7 42.5-14.2 62.8-4 11-8.8 21.6-13.5 32.2-.6 1.3-3.2 2.4-5 2.5-9 .2-18.1.6-27.2 0-13.7-.9-27.4-2.5-41-4.2-1.2-.1-3-2.8-3-4.4-.7-9.3-.6-9.3-9.8-9.4H557c-4.9-.3-6-2-4.2-6.4l2.8-7.4c.8-2 2.4-4.3-1-5.2-2.2-.7-5.5-1.6-7-.5-2 1.5-4.3 4.2-1.6 7.8 1 1.2 1 4 .3 5.5-11.6 21.3-23.6 42.4-35.2 63.7-3.4 6.3-7 12.1-14.1 14.4a19.2 19.2 0 0 1-20.8-4.6c-.6-.6-1.6-.9-2.9-1.4-1.8-4.2-3.2-8.5-4.6-13m191.9-80.2-12.8 26c-1.4 2.8-3.4 3.8-6.7 3.6-17-.8-34-1.3-51-2h-5.5c-1.6 5.7 0 8.1 5.5 8.1 3.8 0 7.6 1 11.4 1.3 13.8.9 27.6 1.7 41.4 2.2 2 0 5.2-1.4 5.9-3 5-12.2 9.5-24.5 14.6-37.4 9.2-29.3 14.6-59 11.9-90-1.1 30.8-4.4 61.2-14.7 91.2M569 433.9c0-.3 0-.6.9-1.1l56.1-1.6c-1.2-4.4-.6-9.3-7-8.9 0 0 0-.4.3-1 3.3-.4 3-2 1.8-4.5a54.9 54.9 0 0 0-61.1-28c-3.6.8-5 2.4-5.6 6.2-3.8 27.2-8.3 54.3-21.6 79-.5 1 0 2.4 0 3.6 1.2 0 2.5.2 3.7-.1 8.3-2.5 15.4 1.6 15.2 9.6 0 3.9 1.6 4.8 4.5 5.7a53 53 0 0 0 53-11.6c8.6-7.5 14-17 16.5-29.3h-79v-1.7h74.6c5.8 0 6.1-.5 4.6-7.1h-75.4v-1.6H627l-.5-6.7c-19.5 0-38.5 0-57.5-.9m47-35.4a60.3 60.3 0 0 1 10.8 71.2 58.2 58.2 0 0 1-55.5 32.3c-7.2 0-8.2 1-9 9.2l23.4 1c17.4.6 34.9 1.3 52.3 1.7 2 0 5-1.5 6-3.2a138.6 138.6 0 0 0 16.9-45c2-10.2 3.7-20.6 4.3-31 1.1-17.5 1.3-35 2-52.6 0-3-1.4-4-4.2-4.3-8.6-.9-17.1-2-25.7-3.3-12.8-1.7-25.5-3.6-38.3-5.4-3.2-.5-5.2.8-5.8 4l-1.2 5.8c-.5 2.9.5 4.8 3.3 5.8a54.5 54.5 0 0 1 20.7 13.8m-117 135c-6.7 10.8-13.2 21.8-20.2 32.5-3.5 5.5 0 14 4.9 16.9 6.7 3.7 13 2.5 17.3-4 2.6-4 5-8.2 7.3-12.4l28.3-50.9c1.5-2.8 1.6-5.2-2-6.8-3.2-1.6-6.8-3-9.4-5.5-4-3.9-6.3-1.9-8.5 1.6L499 533.5m29-64.9c7.2-13 11-27.1 14-41.4 2.4-10.8 4.1-21.7 6.2-33.1l-2.4.6a53.7 53.7 0 0 0-26.5 53.5c1 7.5 2.5 15 8.7 20.4m4.9 31.3c3.4 2 5.8 1.5 7.4-2.4 1-2.6 2.8-5 4-7.5 1.5-3 1-6.5-2.4-6.6-6.1-.1-6.8 6.3-9.8 10-1.6 2-3 4.1.8 6.5z"/>
  <path fill="#011204" d="M554.9 703.5a328.4 328.4 0 0 0 51.9-25.8c25.4-15.9 48-35 67.4-58a269.4 269.4 0 0 0 37-57c1.4-2.9 2.3-5.9 3.5-8.8l-1.2-.7c-1 .9-1.7 2-2.8 2.4-1.1.5-2.5.4-3.8.6-.1-1.4-.8-3.4-.2-4 5.3-5.7 10.7-11 16.3-16.3.5-.4 3.8 1 3.8 1.7.3 7.8.3 15.6.1 23.5 0 .9-1.5 1.7-2.4 2.6-.8-.9-2-1.7-2.4-2.7-.4-1.6 0-3.3-1-5.3l-6 12.2c-14 29-33 54.5-56.4 76.7-28.4 27.1-60.7 48-97.5 62.4-2.4-.4-6.6 2.3-6.3-3.5z"/>
  <path fill="#125634" d="M823.4 456c-5.4 0-10.5-.2-15.5-.5-.2 0-.4-.5-1.4-2 5.6-1 10.6-.3 16-.6.7 1 1 2 .9 3.2z"/>
  <path fill="#010F03" d="M671.2 643.2a279 279 0 0 0 40.3-53c1-1.6 3-2.5 4.5-3.8.7 2 2 3.8 2 5.7v110c.1 4.4-1.6 5.9-5.8 5.7h-19.4c-4.4.2-5.8-1.8-5.8-6v-66.5c-5.7 5-9.9 9.4-9.5 17.7.8 16 .1 32.3.3 48.4.1 4.7-1.4 6.7-6.3 6.5-6.3-.3-12.7-.2-19 0-4 0-5.7-1.3-5.6-5.6.2-9.4 0-19 0-28.5-7.7 3-9.8 5.7-9.8 13.4v16c.1 3.2-1.4 4.6-4.4 4.6h-22c-1.2-.1-2.7-.6-3.5-1.5-2.9-3.3-.9-13 3-15.4 22.2-13.3 42.5-29 61-47.7m41.6-26.7v-17c-1.5 2.1-2.3 3-3 3.8-4.7 6.8-9.6 13.5-14 20.5-1.5 2.2-2.6 5-2.7 7.7-.2 21.6 0 43.2 0 64.8 0 1.8 0 3.6.2 5.3h19c.2-.7.5-1 .5-1.3v-83.8M671 652.2c-3.8 3.3-7.4 7-11.7 9.8-6.3 4.2-7.9 9.7-7.3 17 .5 7.4 0 15 0 22.6h19.7c0-16.5 0-32.8-.7-49.4m-55.5 42c-3.7 1.4-4.2 4-3 7.4h18.9V684L615.5 694z"/>
  <path fill="#011204" d="M680.9 550c2.8-.2 4 .6 4.1 3.3a69 69 0 0 1-16.5 47.9c-1.8 2-3 5-3.5 7.7-2.1 11.5-7.4 20.7-18.4 25.6-2 .9-4.7.7-7 1-.3-2-.6-4-.6-6 0-1.7.4-3.5.8-7-3.5 2.2-6 3.5-8.2 5.2-1.6 1.2-2.5 3.3-4 4.3-1.2.7-3 .3-4.6.3.1-1.3 0-2.7.4-4 .2-.8 1.5-1.4 1.8-2.2.8-2.1 2.5-5.5 1.7-6.1-3.2-3-4.3 1.3-6 2.7-2.2 2-3.8 4.7-6.1 6.5-1.2 1-3.4.8-5.2 1.1.3-1.6.2-3.7 1.1-4.9a65 65 0 0 1 7.5-8c3.1-3 1.9-4.7-2-6.8-1.9 2.2-3.7 4.6-5.9 6.6-1 .8-2.8.7-4.2 1 0-1.6-.4-3.7.4-4.7 2.8-3.6 6.6-6.6 6.3-12.5l-12.1 1.2a27.6 27.6 0 0 1 13.5-23c2.7-2 5.8-3.9 9-4.3 6.3-1 10.6-5 15.2-8.8a67.9 67.9 0 0 1 42.5-16m-61.4 52c.3 1.2.2 3 1 3.8 4.1 4.1 8.4 8 12.8 11.8.8.7 2.9.6 4 .1a74 74 0 0 0 37-36.7 45.7 45.7 0 0 0 4.3-25.4 62.2 62.2 0 0 0-37.8 15.7 81.2 81.2 0 0 0-21.3 30.6m1.5-20.4c-7.8 3.9-12.2 8.9-12.3 13.6 11.1 1.6 11.1-8.9 15.5-14.9l-3.2 1.3m30.9 42.8 7.5-12.1-1.4-1c-2.7 1.8-5 4.1-8 5.5-5.2 2.6-5 7-4.7 12.6a269 269 0 0 0 6.6-5z"/>
  <path fill="#243537" d="M789.2 451.2c0 .7 0 1.4-.4 2.7-.8 2.2-1.1 4-2 5.6-1 2-2.5 3.7-4 5.7-.5 1-.6 2-1 2.8h-1.1c-1.9 1.7-3.3 3.3-5 5-.8.2-1.2.5-1.7.8l-1.9.3c-1.5.6-2.3 1.3-3 2l-3.8 1.1c-.8.3-1 .6-1.3.8l-1 .1-5.9.9-2-1.2L745 473l-.1-.2-1-.7c-.8-.4-1.6-.7-2.8-1.5l-5-4.6c-.1 0-.3 0-.8-.5L733 461l-.1-1.8c-.9-1.9-1.7-3-2.6-4.2v-2.7c0-.8-.2-1-.3-1.3v-.3l-1-7.7V421c0-1.7 0-3.5.5-5.7l3.5-5.3 1.1-1 1-.1c1-.7 2-1.3 3.7-2 .8-.5 1-.7 1.2-1l1.3-1.8c1.4-.3 2.5-.2 3.7-.1 2.8-1.6 5.6-3.2 8.8-4.6 2.4 1.8 4.2 2.8 5.1-.6 0-.4 0-.9.3-1.6.8-.3 1.3-.3 1.7-.3l.2 2c.2.7.4 1 .7 1l.3.3c.4.5.7.6 1 .6.4 0 .9 0 1.7.3l1.4.6c1 0 2 .2 3.6.6a288.6 288.6 0 0 0 12.2 4c.3.3.5.5.8.6l2 2.1 2 1 .2.4 2 14.6c.3 1.7 1.2 3.3 1.8 5l.1.4-1.7 20.7M745 465l.3.6c7.8 6.4 15.7 9.3 25.1 2.8 8.2-5.7 14.5-12 14-22.8-.3-7.6.5-15.2.4-22.8 0-2.7-.3-6.7-2-7.9-8.6-6-17.8-11.4-29-8.2-5 1.5-9.8 4-14.6 6.3-3 1.4-4.3 3.7-4.2 7.2.2 8.8 0 17.7 0 26.5.1 7.8 3 14.2 10 18.3z"/>
  <path fill="#125634" d="M789.6 451c.2-6.5.8-13.3 1.4-20.4 2.6.3 5.2 1 7.5 2-2 .8-3.9 1.3-5.7 1.7l.6 1.4 5.7-2.6 10-15.2c1-1.5 2.2-3.2 3.7-3.7 1-.3 3.8 1.2 3.8 1.9 0 1.5-.9 3.6-2.1 4.5-3 2.2-5.2 3.9-1.6 7.7 1.3 1.4.6 4.6.8 7.4-1.2-.4-2.3-.6-3.2-1-5.4-3-8.3-1.3-8.6 5-.1 4-.2 8.2-.5 12.3 0 .9-.7 1.7-1 2.6l-1.4-.1-1-15.5c-6-1.9-6.9-1.1-7 4.7-.2 2.4-.7 4.8-1.4 7.3z"/>
  <path fill="#164A32" d="M728.5 443c.8 2.4 1 5 1.4 7.7-1.4.3-3 .2-4.4.2-3.4 0-5.1-1.1-2.9-5.7-4.3.9-9.1.5-10.8 2.6-1.9 2.3-.9 6.8-1.1 10.4l-1.6.3-1.7-11.5c-1.5.4-3 1-4.4.9-1.1 0-2.8-.5-3.3-1.4-.6-.8-.5-2.7.2-3.5.8-1 2.8-2.1 3.6-1.7 8 3.5 16.4 1 25 1.7z"/>
  <path fill="#125634" d="M728.6 421.2c.4 2.3.4 4.7.4 7.5-4.4.1-9.8 1.3-12.5-.9-2-1.6-.2-7.6-.6-11.6-.5-5.2-1.7-10.3-2.3-15.5-.2-1.3.1-3.4 1-3.9 1.1-.7 3.3-.7 4.4 0 1 .7 1.3 2.8 1.3 4.2-.3 7.7-1.1 15.4-1 23.1 0 1 4.7 1.8 7.3 2.7l.4-1.4-6-1.1v-1.6l7.6-1.5zM734.2 475c-.3.7-.4 1.5-.8 1.9-7 5.8-4.8 13-3.1 20.2a5 5 0 0 1-1.3 4c-.8.8-3.2.7-4 0-.9-.8-1.7-3.1-1.2-4 2.9-4.8-.1-5-3.6-5h-6.6l-.3-2.2c2.2-.3 4.3-.8 6.4-.9 3.7 0 6.8.5 5.9-5.4-.4-2.5 3.6-5.7 6.3-8.6h2.3zM781.9 405.6a74 74 0 0 1-11.7-3.1c1.2-.3 2.7-.3 4-.3.7-4.3 0-9.5 2.2-12.4 4.3-5.7 10.4-10 15.8-14.8.4-.4 1.4-.2 3.5-.3-2 2.3-3 3.9-4.3 5.2-3.9 4-8 7.8-11.7 12-2.4 2.6-3.1 5.5.6 8.2 1.2.9 1.1 3.4 1.6 5.5z"/>
  <path fill="#164A32" d="M785.2 478.9c.7 0 1.4 0 2.5.4.3.8.3 1.2.3 1.6-5-.5-4.2 3-4 5.9 0 1.2 1 2.4 1.1 3.7.1 1.3 0 3-.7 4-.6.7-2.7 1.1-3.4.6-1-.7-1.6-2.3-1.9-3.7-.2-.8.4-1.9.8-3.4l-3.6-1c-1.2-.2-2.5-.2-3.8-1.4 2.6-.5 6.1-.1 7.4-1.7 1.4-1.8.8-5.3 1.5-8.4a3 3 0 0 1 1.7-.5v2a5.8 5.8 0 0 0 2 1.9z"/>
  <path fill="#125634" d="M804 488V505h-2.3v-29.1c2.3 1.4 2.3 1.4 2.3 12.2zM757.3 479.4c1.6-.7 3.3-1 5.5-1.3-.3 2.5-1.5 4.9-1.7 7.4-.3 5 0 10-.1 15 0 1.4-.4 2.9-.6 4.4h-1.9l-1.2-25.5zM783 465c1.3-1.8 2.8-3.6 3.9-5.5.8-1.6 1-3.4 1.9-5.3 1.5 5.5 2.7 11.2 4 17l-.7 1-8.7-6.3c-.4-.5-.4-.7-.4-.9zM761 396.6c-.5.4-1 .4-1.7.4-.7-.8-1.3-1.5-1.2-2.2.3-5.7.2-11-5.2-14.6-.5-.4-.5-1.7-.8-2.7 4.7.6 8.8 4.7 9 8.6l-.1 10.5zM805 382.2v17.6c-3.4-2.4-4.1-17.9-1-23.9.5 2.7.8 4.3 1 6.3zM745 498.8l-.6 6.6c-3.3-3.6-3.2-18.8.6-23.1v16.5zM730 393.6v-18.5c3.4 3.5 3.9 16.1 1.6 22.7-.8-1.8-1.2-2.8-1.6-4.2zM790.9 429.6c-.7-1.2-1.6-2.8-1.8-4.5-.8-4.7-1.4-9.5-2.1-14.6 1.3 1.5 3.5 3.3 3.8 5.4.6 4.3.1 8.8 0 13.7z"/>
  <path fill="#164A32" d="M733 461.4a20 20 0 0 1 2 4c-2.5 3-5 5.6-7.4 8.1l-1.6-1.4 2-3c1.7-2.5 3.4-5 5-7.7z"/>
  <path fill="#125634" d="M696.7 436h16.6v2h-9l-7.5-.1c-.2 0-.3-1.2 0-1.9z"/>
  <path fill="#164A32" d="M704.9 485h-9.2l-.1-1.3h15.7l.2.8-6.6.6zM734.5 475h-2.3c.7-1.4 2-2.6 2.8-4 .7-1.3 1-3 1.3-4.7 1.4 1 2.9 2.5 4.5 4.2-2 1.6-4 3-6.3 4.4z"/>
  <path fill="#125634" d="m700 406-4.9-.6.1-1.6h9.5l.2 1.3-4.9.9z"/>
  <path fill="#164A32" d="M775.9 472.9c1.5-1.6 3-3.2 4.8-4.5.3.8.3 1.2.2 1.7-.6 2.6-1.3 5.3-2.3 8.5-.7.4-1.2.4-1.6.4l-.9-5-.2-1.1z"/>
  <path fill="#125634" d="M781 470.5v-2.1c.2-.4.4-.4 1-.4h1c.2 2.2.4 4.3.3 6.7-.7.3-1.1.3-2 .3-.3-1.4-.3-2.7-.4-4.5zM745 473.4c3.2 1.1 6.4 2.6 9.8 4.4a80.5 80.5 0 0 1-9.8-4.4zM744.8 403.8c-1 .2-2 0-3.4 0 0-1.4.3-3 .5-4.5l1.5.2 1.4 4.3zM732.7 410.1a22 22 0 0 1-3.2 4.9 22 22 0 0 1 3.2-4.9zM758.5 399c-.5 3.3-2.3 2.3-4.3.4 1.2-.3 2.5-.4 4.3-.5z"/>
  <path fill="#164A32" d="M730.3 455.3c.9.9 1.7 2 2.6 3.6-1-.8-1.8-2-2.6-3.6z"/>
  <path fill="#125634" d="M769.4 476c.4-.6 1.2-1.3 2.4-1.9-.5.7-1.3 1.3-2.4 2zM788.3 481c-.3-.5-.3-1-.3-1.7.2.3.4 1 .3 1.6zM777 479.3c.4-.3.9-.3 1.6-.3 0 .5-.3 1-.6 1.5a5 5 0 0 1-1-1.2zM785 478.6c-.5-.1-1.2-.6-2-1.4.7.2 1.3.6 2 1.4z"/>
  <path fill="#164A32" d="M783 467.7c-.1.3-.3.3-.7.3-.1-.8 0-1.7.4-2.8.3 0 .3.2.4.7v1.8z"/>
  <path fill="#125634" d="M775.6 473c.3-.1.4.4.4.6-.5.2-.9.3-1.7.2.2-.3.6-.6 1.3-.9zM786.8 409.8c-.4 0-1-.1-1.6-.5.3-.1.9 0 1.6.5zM761.8 399.8c-.3.1-.5 0-.7-.5.2-.2.5 0 .7.5z"/>
  <path fill="#164A32" d="M730 451.3c.1 0 .3.2.3.6-.2 0-.3-.4-.3-.6z"/>
  <path fill="#125634" d="M763 400.7c-.2.2-.5.1-.9-.3.2-.2.5-.1.9.3zM766 401.6c-.1 0-.4 0-.9-.4.2-.2.5 0 1 .4zM739.8 406c0 .3-.2.5-.7.9 0-.3.1-.5.7-.8zM764.3 478c0-.2.2-.5.6-.8.1.3-.1.5-.6.8zM782.7 406.8c-.2.1-.4 0-.6-.5.2-.1.4 0 .6.5zM744 472.3c.2 0 .5.1.9.5-.2 0-.5-.1-.9-.5zM735 408.8c0 .2-.4.2-.6.2 0 0 .2-.2.5-.2z"/>
  <path fill="#E8E6E5" d="M619 422.8c6.4-1 5.8 4 7 8.4l-57 1.6-17 .3.2 1.7h74.3l.5 6.7h-76.5v1.6h75.4c1.5 6.6 1.2 7-4.6 7.1h-74.7v1.7h79a49.7 49.7 0 0 1-16.4 29.3 53 53 0 0 1-53 11.6c-2.9-.9-4.6-1.8-4.5-5.7.2-8-6.9-12.1-15.2-9.6-1.2.3-2.5 0-3.7.1 0-1.2-.5-2.6 0-3.6 13.3-24.7 17.8-51.8 21.6-79 .5-3.8 2-5.4 5.6-6.2 24.2-5.8 50 6 61 28 1.3 2.5 1.6 4-2.3 4.7-3.3 0-6-.6-8.8-.6l-49.3 1.1c-1.5 0-3 .4-4.4.5l.1 2 62.7-1.7m-53.7-7.8H556c3 3.4 11.4 3.5 15.4.6l-6.1-.6z"/>
  <path fill="#069C42" d="M615.8 398.2a53.9 53.9 0 0 0-20.5-13.5c-2.8-1-3.8-3-3.3-5.8l1.2-5.9c.6-3.1 2.6-4.4 5.8-4 12.8 2 25.5 3.8 38.3 5.5 8.6 1.2 17.1 2.4 25.7 3.3 2.8.4 4.2 1.4 4.1 4.3-.6 17.6-.8 35.1-1.9 52.6-.6 10.4-2.2 20.8-4.3 31a138.6 138.6 0 0 1-17 45 8 8 0 0 1-6 3.2c-17.3-.4-34.8-1.1-52.2-1.8l-23.3-.9c.7-8.2 1.7-9.3 9-9.2 25 .4 43.8-10.7 55.4-32.3a60.4 60.4 0 0 0-11-71.5z"/>
  <path fill="#079B42" d="m499.2 533.2 17.5-28.3c2.2-3.5 4.4-5.5 8.5-1.6 2.6 2.4 6.2 4 9.5 5.5 3.5 1.6 3.4 4 1.9 6.8l-28.3 51c-2.3 4.1-4.7 8.3-7.3 12.3-4.2 6.5-10.6 7.7-17.3 4-4.9-2.8-8.4-11.4-4.9-16.9 7-10.7 13.5-21.7 20.4-32.8z"/>
  <path fill="#E8E6E5" d="M527.7 468.8c-6-5.6-7.4-13.1-8.4-20.6-3-21.2 7.9-42.9 26.5-53.5l2.4-.6c-2 11.4-3.8 22.3-6.1 33a143.5 143.5 0 0 1-14.4 41.7z"/>
  <path fill="#E3E2E1" d="M663 491c-4.7 12.3-9.2 24.6-14.2 36.7-.7 1.7-4 3.2-5.9 3.1-13.8-.5-27.6-1.3-41.4-2.2-3.8-.2-7.6-1.3-11.4-1.3-5.5 0-7-2.4-5.5-8h5.6c17 .6 34 1.1 51 2 3.2 0 5.2-.9 6.6-3.8 4.2-8.6 8.5-17.3 13.3-26.2 1-.3 1.4-.3 1.9-.3z"/>
  <path fill="#C6CACB" d="M663.2 490.7c-.7.3-1.1.3-1.9.3a326.6 326.6 0 0 0 14-90.5c2.7 30.8-2.7 60.6-12.1 90.2z"/>
  <path fill="#0F9346" d="M532.6 499.7c-3.5-2.2-2.1-4.3-.5-6.4 3-3.6 3.7-10 9.8-9.9 3.4.1 3.9 3.6 2.4 6.6-1.2 2.6-3 4.9-4 7.5-1.6 4-4 4.4-7.7 2.2z"/>
  <path fill="#44424B" d="M619 422.5a5784 5784 0 0 1-62.7 2l-.1-2c1.4-.1 2.9-.5 4.4-.5 16.4-.4 32.8-.8 49.3-1 2.7-.1 5.5.5 8.6.9.4 0 .5.4.5.6zM569 434.4c-5.6.4-11.2.4-16.8.4l-.1-1.7 16.4-.2c.5.4.5.7.5 1.5z"/>
  <path fill="#079A41" d="M712.8 617v83.3c0 .3-.3.6-.5 1.3h-19c-.1-1.7-.3-3.5-.3-5.3l.1-64.8c0-2.6 1.2-5.5 2.6-7.7 4.5-7 9.4-13.7 14.2-20.5.6-.9 1.4-1.7 3-3.7V617z"/>
  <path fill="#099841" d="M671.4 652.4c.3 16.4.3 32.7.3 49.2h-19.6c0-7.6.4-15.2-.1-22.7-.6-7.2 1-12.7 7.3-16.9 4.3-2.7 7.9-6.5 12-9.6z"/>
  <path fill="#0F9346" d="m615.8 694 15.6-10v17.6h-18.9c-1.2-3.3-.7-6 3.3-7.6z"/>
  <path fill="#099841" d="M619.6 601.7c5-11.9 11.8-22 21.2-30.3a62.2 62.2 0 0 1 37.8-15.7c1.4 9.2-1 17.5-4.3 25.4a74 74 0 0 1-37 36.7c-1.1.5-3.2.6-4-.1-4.4-3.7-8.7-7.7-12.8-11.8-.8-.8-.7-2.6-.9-4.2m37-28.4c-7.6-1-11.6 1-13.7 7.3-1.5 4.5.7 9.9 5 12.3a11 11 0 0 0 14.7-3.9c3.3-5.4 1.4-11-6-15.7M634.4 602c2.3 1.2 6.4 3.7 6.6 3.4 2.8-3.6-1.6-4.8-3-7 0-.2-.2-.4-.4-.4l-4.6-1.5c.3 1.7.6 3.3 1.4 5.5z"/>
  <path fill="#168847" d="m621.3 581.5 2.9-1.2c-4.4 6-4.4 16.5-15.5 14.9 0-4.7 4.5-9.7 12.6-13.7zM651.6 624.6l-6.3 4.8c-.3-5.7-.5-10 4.7-12.6 3-1.4 5.3-3.7 8-5.6l1.4 1c-2.5 4.1-5 8.2-7.8 12.4z"/>
  <path fill="#0F9346" d="M745 465c-7-4.1-9.9-10.5-10-18.3 0-8.8.2-17.7 0-26.5-.1-3.5 1.2-5.8 4.2-7.2 4.8-2.3 9.5-4.8 14.6-6.3 11.2-3.2 20.4 2.3 29 8.2 1.7 1.2 2 5.2 2 7.9 0 7.6-.7 15.2-.4 22.8.5 10.9-5.8 17.1-14 22.8-9.4 6.5-17.3 3.6-24.8-3.1 4 1.2 7.8 2.8 11.6 4.3 1.3.4 3.1 1.1 4 .6 5.6-3.2 11.2-6.4 16.2-10.4 2.4-2 3.4-5.8 5-8.7l-1.1-.6c-2.8 2.5-5.3 5.2-8.3 7.4-2.9 2.2-6.2 3.9-9.3 5.8-1.2-.4-2.8-1.2-4.5-1.6-2.2-.6-4.9-.3-6.8-1.3-5-2.6-11.3-3.7-12-10.8 1 .5 1.8 1 2.3 1.5a21.9 21.9 0 0 0 25.4 7c9-3.9 14.4-13.4 13-23.4-1.5-11-8.8-17.9-20.1-19-9-1-18.4 5.6-21.9 14.8-2.5 6.5-.2 12.7.6 19-2.3 2.4-2.3 4 0 6.4 2.3 2.4 3.6 5.7 5.3 8.7m-7.4-17.5s-.1 0 0 0z"/>
  <path fill="#069E42" d="M799 433c-1.8 1-3.7 1.8-5.6 2.7l-.6-1.4 5.8-1.3h.4z"/>
  <path fill="#44424B" d="m565.7 415 5.7.6c-4 2.9-12.4 2.8-15.4-.6h9.7z"/>
  <path fill="#011204" d="M657 573.5c7 4.5 9 10 5.6 15.5A11 11 0 0 1 648 593a10.7 10.7 0 0 1-5-12.3c2-6.2 6-8.4 14.1-7.1m-6.5 14.6c2.2-.4 4.7-.2 6.6-1.2 1-.6 1.7-3.6 1.1-4.8a7.9 7.9 0 0 0-4.6-3.7c-1.3-.3-4.3 1-4.5 2-.4 2.4.4 4.9 1.4 7.7zM634.1 601.8l-1.1-5.3 4.6 1.5c.2 0 .3.2.4.3 1.4 2.3 5.8 3.5 3 7-.2.4-4.3-2-6.9-3.5z"/>
  <path fill="#164A32" d="M740 449.9c-1.1-6.3-3.4-12.5-.9-19 3.5-9.2 13-15.8 21.9-14.9 11.3 1.2 18.6 8.1 20.1 19.1 1.4 10-4 19.5-13 23.3-8.8 3.7-19.1 1-25.4-6.9-.5-.6-1.3-1-2.3-1.5-.4 0-.3-.1-.3-.1m18-20.5c-4-1.3-5 1.2-5 4.4.2 1 1.7 3 2.6 3 4 .2 3.2-3 3.2-5.3 0-.5-.1-1-.7-2.1m0 17.2c.2-1.9.8-3.8.6-5.7-.1-.7-1.8-1.6-2.8-1.7-.9-.1-2.3.5-2.7 1.3-1.3 2.4 1 5.9 4.9 6.1m14.5-16.8-4.4.1c.3 2 .3 4.2 1 6 .2.7 2.2.6 3.4.9l.5-4.8-.5-2.2M746.3 440c-.6 6.8-.2 7.3 6.6 6.3-3.9-1.6 1.3-8.2-6.6-6.3m18.8-10.5c-3-1.1-4.6.2-4 3.2.3 1.6 1.6 4 2.5 4.1 3.6.3 2.1-2.8 2.4-4.7 0-.6-.2-1.3-.9-2.6m-13.8 1.1-4.3-.8c-.3 1.9-.8 3.8-.8 5.7 0 .5 2.3 1.6 2.5 1.4 1-1 1.6-2.3 2.3-3.5.2-.6 0-1.3.3-2.8m16.8 14.8 3.6 1.5 2.3-7.2c-5.4-1.6-5.9 1.4-6 5.7m-2-2.7-2.8-3.5c-.8 1.2-2 2.5-2 3.6 0 1.5 1.2 2.9 2 4.3.9-1.2 1.9-2.4 2.8-4.4m-17.5-16.3c6.9 1.7 3.4-4.2 5.4-6.2l-1.7-1a48.2 48.2 0 0 0-3.7 7.2m-8.4 14.3c.6 2.5.3 5.8 4.5 6.5-.3-2.6-.1-4.5-.8-6-.4-.8-2.2-.9-3.7-.5m18.4-14.9v-6.3l-1.2-.3c-.8 1.6-1.8 3-2.2 4.6-.3 2 0 4 3.4 2m.4 26c-.5-.9-1-1.8-1.8-2.4-.2-.2-1.8.7-1.8 1 .4 2.2 1 4.4 1.6 6.6l1.7-.3.3-5m11 2.6c.1-.4.6-.8.5-1.3 0-1.2-.2-2.4-.3-3.5-.9.3-2.3.3-2.5.9-.7 1.6-.8 3.3-1.2 5 1-.1 2-.3 3.4-1m.6-31.4-3.3-3-1.1.9c.4 1.5.6 3.2 1.4 4.5.4.8 1.8 1 2.8 1.5.2-1.1.4-2.2.2-4m-28.2 7-2.2 6.3 1 1c1-.7 2.8-1.7 2.8-1.9-1-1.9 3-4.7-1.6-5.4m9.5 20.1-2.7 1.2c1.1 2 2.3 3.8 3.5 5.7l1.5-1c-.5-1.8-1.1-3.6-2.3-5.9z"/>
  <path fill="#069E42" d="M740 450c1 7 7.5 8.2 12.4 10.8 2 1 4.6.7 6.8 1.3 1.7.4 3.3 1.2 4.5 1.6 3-1.9 6.4-3.6 9.3-5.8 3-2.2 5.5-5 8.3-7.4l1.1.6c-1.6 3-2.6 6.7-5 8.7-5 4-10.6 7.2-16.1 10.4-1 .5-2.8-.2-4.1-.6l-11.8-4.6h-.4c-1.7-3-3-6.3-5.3-8.7-2.3-2.4-2.3-4 0-6.3h.3zM737.5 447.6z"/>
  <path fill="#0F9346" d="M650.1 587.9c-.6-2.6-1.4-5.1-1-7.4.2-1 3.2-2.4 4.5-2 1.8.4 3.8 2 4.6 3.6.6 1.2 0 4.2-1 4.8-2 1-4.5.8-7 1z"/>
  <path fill="#168847" d="M758.4 429.7c.4.8.5 1.3.5 1.8 0 2.4.7 5.5-3.2 5.3-1 0-2.4-2-2.5-3-.2-3.2.9-5.7 5.2-4.1zM757.8 446.8c-3.5-.4-5.8-3.9-4.5-6.3.4-.8 1.8-1.4 2.7-1.3 1 0 2.7 1 2.8 1.7a15 15 0 0 1-1 5.9zM772.8 430.2l.4 1.8-.5 4.8c-1.2-.3-3.2-.2-3.4-.8-.7-2-.7-4-1-6 1.5-.1 3-.1 4.5.2zM746.6 439.6c7.6-1.6 2.4 5 6.3 6.6-6.8 1-7.2.5-6.3-6.6z"/>
  <path fill="#0F9346" d="M765.4 429.7c.4 1 .7 1.7.6 2.3-.3 1.9 1.2 5-2.4 4.7-1 0-2.2-2.5-2.5-4-.6-3.1 1-4.4 4.3-3z"/>
  <path fill="#168847" d="M751.2 430.9c-.1 1 0 1.8-.2 2.4-.7 1.2-1.4 2.5-2.3 3.5-.2.2-2.5-.9-2.5-1.4 0-1.9.5-3.8.8-5.7 1.4.3 2.8.5 4.2 1.2zM768 444.9c.1-4 .6-6.9 6-5.3l-2.3 7.2c-1.2-.5-2.4-1-3.6-2z"/>
  <path fill="#0F9346" d="M766 443c-1 1.6-1.9 2.8-2.9 4-.7-1.4-1.9-2.8-2-4.3 0-1.1 1.3-2.4 2-3.6 1 1.1 2 2.3 3 3.9z"/>
  <path fill="#168847" d="M748.4 426a87 87 0 0 1 3.8-7l1.7 1.1c-2 2 1.5 8-5.5 5.9zM740.3 440.2c1.3 0 3.1.1 3.5.9.7 1.5.5 3.4.8 6-4.2-.7-3.9-4-4.3-6.9zM758.2 426c-3.2 1.7-3.4-.3-3-2.3.3-1.6 1.3-3 2-4.6l1.3.3c0 2.1 0 4.2-.3 6.6zM759 452l-.4 4.6c-.6 0-1.1.2-1.7.3-.5-2.2-1.2-4.4-1.6-6.6 0-.3 1.6-1.2 1.8-1a8 8 0 0 1 1.8 2.8zM769.6 454.6c-1.2.4-2.2.6-3.2.7.4-1.7.5-3.4 1.2-5 .2-.6 1.6-.6 2.5-1l.3 3.6c0 .5-.4.9-.8 1.7zM770.6 423.2c0 1.4-.2 2.5-.4 3.6-1-.5-2.4-.7-2.8-1.5-.8-1.3-1-3-1.4-4.5l1.1-1 3.5 3.4zM742.5 429.6c4.3 1 .4 3.7 1.3 5.6 0 .2-1.8 1.2-2.8 1.8l-1-.9a95 95 0 0 1 2.5-6.5zM752 450.1c.9 2 1.5 4 2 5.8l-1.5 1-3.5-5.8c.9-.4 1.8-.8 3-1z"/>
</svg>
